<svg xmlns="http://www.w3.org/2000/svg" viewBox="0 0 32 32" role="img" aria-label="The Crow Theory">
  <rect width="32" height="32" rx="6" fill="#0d0e1a"/>
  <path fill="#ffffff" d="M58.65 11.44a6.93 6.93 0 0 0-.92-1.77 3.64 3.64 0 0 0-1.5-1.16h0c-.13-.06-.82-.26-.85-.26a6 6 0 0 0-1.82-.1 7.8 7.8 0 0 0-2.27.58c-.09-.13.07-.47-.35-.77l-.18-.15c-.44-.44-.62-.75-.93-1s-.33-.06-.62.12a22.45 22.45 0 0 0-2.88 2.36 37.31 37.31 0 0 0-8.53 13.22 7.73 7.73 0 0 0 .81 7.41A6 6 0 0 0 40.51 32c1.28.76 2.77.67 5.61-.76 6.27-3.15 11.73-9.93 12.74-12.55.99-2.66.62-4.32-.36-6.98ZM51 23.13c-2.43 2.26-6.2 5.66-8.7 5.45-.47-.02-.78-1.63-.25-3.48a14.73 14.73 0 0 1 .78-2.11 1.85 1.85 0 0 0 1.56-.14c.69-.44 3.18-3.17 4.41-4.31s2.67-2.6 4.22-3.89c1.83-1.52 3.94-2.21 4.35-.88.41 1.33-2.75 5.39-8.72 10.38Z" transform="translate(-38 -4) scale(0.95)"/>
</svg>
