<svg id="Layer_1" data-name="Layer 1" xmlns="http://www.w3.org/2000/svg" viewBox="0 0 886.85 886.85"><defs><style>.cls-1{fill:#fff;}</style></defs><title>Adpr Memetic Brand Labs</title><path class="cls-1" d="M106.56,438.59c0-47.1,34.93-85.47,84.22-85.47,23.39,0,43,9.05,54.27,20.28V357.8h33.37V519.06h-34l.32-16.53c-10.61,10.92-27.76,21.21-54,21.21C141.49,523.74,106.56,485.69,106.56,438.59Zm140.36-.31c0-34.94-23.71-55.21-53.65-55.21-30.25,0-53,24.64-53,55.21s22.77,55.52,53,55.52C223.21,493.8,246.92,473.52,246.92,438.28Z"/><path class="cls-1" d="M296,438.59c0-47.1,34.94-85.47,84.22-85.47,23.39,0,43,9.05,54.27,20.28V301.66h33.69v217.4H433.83l.31-16.53c-10.61,10.92-27.76,21.21-54,21.21C330.9,523.74,296,485.69,296,438.59Zm140.36-.31c0-34.94-23.7-55.21-53.65-55.21-30.25,0-54,24.64-54,55.21s23.71,55.52,54,55.52C412.62,493.8,436.32,473.52,436.32,438.28Z"/><path class="cls-1" d="M491.32,357.8H525v15.6c11.23-11.23,30.88-20.28,54.27-20.28,49.29,0,84.22,38.37,84.22,85.47s-34.93,85.15-84.22,85.15c-26.51,0-43.66-10.29-54.27-21.83v83.28H491.32Zm139.43,80.79c0-30.57-20.59-55.52-50.84-55.52s-56.77,20.27-56.77,55.52c0,34.93,26.51,55.21,56.77,55.21S630.75,469.16,630.75,438.59Z"/><path class="cls-1" d="M680.48,357.49h33.68v31.19c7.49-19.65,31.82-35.87,66.13-35.87v27.76c-40.86,0-65.5,23.4-66.13,57.71v80.78H680.48Z"/></svg>