<svg id="Layer_1" data-name="Layer 1" xmlns="http://www.w3.org/2000/svg" viewBox="0 0 886.85 886.85"><defs><style>.cls-1{fill:#f2ddb6;}</style></defs><title>Adpr Memetic Brand Labs</title><path class="cls-1" d="M601.29,170.94c-52.67-53.83-145.24-40.4-182.58-6.68S334.94,270.63,278.36,273.85c0,0-67.93-4.87-85.38,17.38s-18.6,65.21,13.78,87.7,74.41,21.31,107.11,10.22A391,391,0,0,0,373.2,363s.8,93.38-59.48,171.33S244.86,634.8,254.08,647.24c20.23,27.31,49.51,17.82,83.64-18.3,26.6-28.16,61.4-72.51,86.75-109.67a2.45,2.45,0,0,1,4.23,2.46c-11.16,23-27.29,53.72-43.18,74.87-28.49,37.94-68.71,70.45-69.6,96.86s26.3,46.15,47.4,39.64C381.28,727.56,476,627.31,512.89,566a2.45,2.45,0,0,1,4.42,2.06c-9.83,28-28.62,70.46-60.4,104.64-52.18,56.14-20.8,73.39-8.7,81.41,27.51,18.25,92.69-34.25,154.55-187.62a2.45,2.45,0,0,1,4.7,1.31C603.84,589.06,592,630.91,554,697.89c0,0-10.75,27.07,13.23,39.76,9.51,5,23.5,5.38,47.83-12.87C679.9,676.11,783,356.69,601.29,170.94Z"/></svg>