<svg id="Layer_1" data-name="Layer 1" xmlns="http://www.w3.org/2000/svg" viewBox="0 0 886.85 886.85"><defs><style>.cls-1{fill:#de5f64;}</style></defs><title>Adpr Memetic Brand Labs</title><path class="cls-1" d="M439.19,686.75c-85.82,0-127.53-45.87-127.53-140.24V486.3H430v60.21c0,30.94,7.16,30.94,12.39,30.94,6.66,0,12.4,0,12.4-45.78V520.54c0-46.32-19-46.32-26.18-46.32a56.34,56.34,0,0,0-6,.16L407,478.27l0-110.16h12.52c26.42,0,36.24-9,36.24-33.07,0-9.78-1.27-26.18-9.75-26.18-4.63,0-12.39,0-12.39,27.24v26.29H314.31V349.88c0-1.83-.11-4.1-.23-6.49-.15-3.12-.3-6.42-.3-9.41,0-90.09,43.1-133.88,131.76-133.88,84.12,0,128.58,46.29,128.58,133.88,0,30.47-3.92,66.08-30.48,86.7,29,24.16,31.55,60.9,31.55,111C575.19,634.57,529.43,686.75,439.19,686.75ZM336.68,511.32v35.19c0,80.76,30.66,115.21,102.51,115.21,76.75,0,111-40.11,111-130.05,0-62-5.27-85.22-36.48-100.61l-26.39-13,27.68-10c24.24-8.75,34.13-30.21,34.13-74.09,0-74.27-32.91-108.86-103.56-108.86-74.81,0-106.73,32.56-106.73,108.86,0,1.09,0,2.23.06,3.39h69.78V336.1c0-43.2,20.35-52.26,37.42-52.26,10.46,0,34.77,5,34.77,51.2,0,24.16-8.83,52.55-48.75,57.38V449.3c19.28,1.17,47.7,12.82,47.7,71.24v11.13c0,31.55,0,70.81-37.43,70.81s-37.42-42.13-37.42-56V511.32Z"/></svg>