<svg id="Layer_1" data-name="Layer 1" xmlns="http://www.w3.org/2000/svg" viewBox="0 0 886.85 886.85"><defs><style>.cls-1{fill:#de5f64;}</style></defs><title>Adpr Memetic Brand Labs</title><path class="cls-1" d="M212.45,599.05c2.48-1.78,4.5-3.78,6.93-4.9,15.13-7,24-18.61,24.17-35.36s-8.69-28.14-23.67-35c-6-2.76-8.21-6.51-5.86-12.85,4-10.9,8.5-21.69,13.5-32.19,3.34-7,7.44-7.93,14.87-5,17.2,6.9,35.63,1.83,45.53-13.06,7.36-11.09,8.65-23.21,4-35.79-3-8.09-1.93-11.72,5.94-15.25,9.85-4.42,19.88-8.5,30.05-12.15,8.08-2.91,11.32-1.06,14.87,6.9,12,27,47.46,31.21,65,7.7,1.86-2.51,3.09-5.49,4.62-8.25,3.58-6.43,8.14-8.39,15-5.7,10.05,4,20,8.1,29.87,12.55,7.36,3.33,8.67,7.44,6,15-5.47,15.35-4.12,29.79,7.69,41.66s26.25,14,41.89,7.95c6.3-2.46,10.8-1.07,13.58,5.13,4.68,10.46,9.05,21.09,13,31.85,2.76,7.51.65,11.28-6.76,14.56-25.9,11.45-31.46,44.82-10.36,63,3.22,2.78,7.18,4.76,11,6.77,6,3.19,8.06,7.15,5.57,13.5-4.12,10.53-8.46,21-13.1,31.27-3.07,6.82-7.4,8.27-14.23,5.56-15.57-6.17-30.05-4.37-42,7.56s-13.84,26.38-8,42c2.31,6.23.93,10.94-5.14,13.63-10.63,4.71-21.42,9.12-32.34,13.12-6.74,2.47-10.53.29-13.45-6.36-6.6-15-18.16-23.44-34.46-23.76s-28,8-35.11,22.72c-3.26,6.79-8.06,9.23-15,6.6-10.1-3.83-20.13-7.93-29.9-12.54-8-3.79-8.9-7.37-5.84-15.71,5.61-15.31,3.45-29.5-8.12-41.09s-25.61-14.06-41-8.28c-7.75,2.92-11.65,1.88-15-5.62-4.67-10.47-8.75-21.2-12.8-31.93C212.46,605,212.76,602.22,212.45,599.05ZM340.11,647.2c47.73,20,103.12-2.6,123.2-50.33,20.2-48-2.45-103.5-50.39-123.55A94.25,94.25,0,0,0,340.11,647.2Z"/><path class="cls-1" d="M402.73,387.43a99.22,99.22,0,0,0-1.6,10.52c-.3,4.82-2.57,7.56-7.29,7.78-7.95.36-15.92.64-23.87.5-5.66-.1-7.15-1.93-7.49-7.73-.64-11.05-5.74-19.39-15.45-24.52-10.36-5.47-23-3.24-31.87,5.08-5,4.7-7.38,5.05-12.37.65-5.6-4.93-11-10.16-16.09-15.57-4.07-4.3-3.86-6.88-.15-11.23,12.5-14.67,9.37-34.31-7.41-43.68-3.72-2.08-8.52-2.58-12.91-3-5.89-.61-7.83-1.69-8.23-7.63-.51-7.61-.69-15.27-.5-22.9.15-5.87,2.24-7.56,8-8,11.87-.81,20.59-6.38,25-17.55s1.65-21.21-6.1-30c-4.53-5.15-4.88-6.78-.44-11.92,4.66-5.38,9.61-10.56,14.76-15.48,5-4.76,7-4.59,12.43-.18,11.81,9.55,27.08,9.32,37.67-.67a26.59,26.59,0,0,0,8.6-19c.3-7.5,2.06-9.42,9.54-9.89,6.95-.43,13.94-.53,20.91-.35,6.39.16,7.79,1.65,8.33,8,.65,7.79,3.45,14.56,9.13,20,10.41,9.86,26.71,9.67,37.61-.32,5.9-5.4,7.51-5.65,13.47-.49,5.13,4.44,10,9.22,14.69,14.15,4.9,5.16,4.75,7.19.17,12.83-10.94,13.5-8.72,31.87,5.7,41.36,4.2,2.76,9.81,3.82,14.93,4.62,6.49,1,8.34,1.94,8.73,8.46.45,7.45.57,14.93.38,22.39-.15,5.69-2.05,7.39-7.62,7.66-11.95.59-20.93,6.21-25.34,17.14-4.56,11.27-1.91,21.86,6.52,30.84,4.05,4.31,4.33,6.7.4,11.16-4.93,5.6-10.11,11-15.52,16.15-4.85,4.63-6.79,4.43-11.93.06-12.91-11-30.91-9.21-40.87,4.07A70.05,70.05,0,0,0,402.73,387.43Zm-2-154c-27.37-11.64-59.57,1.25-71.66,27.43s-3,60.84,28.61,74.72c27.31,12,60.66-1.58,72.36-28.89A55.5,55.5,0,0,0,400.77,233.48Z"/><path class="cls-1" d="M508.19,317.68c10.15,4.58,17.81,3.95,24.76-1.33s9.8-12.79,8.73-21.56c-.88-7.26-.48-8.16,6.63-10.33,4.45-1.36,9.05-2.19,13.56-3.37,4.72-1.22,7.27.35,8.91,5.15,4.34,12.67,16.57,19.08,28.53,14.59,4.25-1.6,8.1-5.07,11.26-8.48s5.86-5.18,10.22-2.56c4.83,2.92,9.86,5.5,14.58,8.58,3.3,2.16,4.07,4.91,2,9-4.21,8.06-4.2,16.47,1.18,24.11s13,10.55,22.24,9.12c6.51-1,7.66-.52,9.52,5.58,1.54,5.09,2.67,10.3,3.85,15.49.92,4-.34,6.69-4.58,8-9.35,2.9-14.88,9.66-16.31,19s2.65,16.88,10.63,22.07c3,2,4,4.58,2.28,7.65-3.26,5.77-6.69,11.45-10.34,17-1.83,2.76-4.53,2.89-7.47,1.2-8.25-4.76-16.63-4.72-24.41.71s-10.75,13.6-9.14,22.77c.93,5.31-.52,7.92-5.47,9.13-5.16,1.26-10.29,2.69-15.48,3.84-4.15.92-7-.36-8.26-4.91-2.58-9.1-9.17-14.26-18.14-15.83-9.19-1.6-16.75,2-22.06,9.6-2.71,3.87-5.66,4.94-9.7,2.61-5-2.9-10-5.82-15-8.86-4.16-2.55-3-5.9-1.44-9.56,4.86-11.19,2.85-21.07-5.69-27.86-5.48-4.35-11.81-6.24-18.72-4.5-5,1.25-7.63-.58-8.82-5.29-1.25-5-2.54-10-3.82-15-1.22-4.8.16-7.6,5.26-9.37,8.77-3,14.62-9.23,15.67-18.83,1-9.05-2.49-16.36-10.12-21.34-4.1-2.69-4.64-5.57-2.14-9.61,2.36-3.81,4.22-7.93,6.62-11.7C501.83,315.71,503.05,315.44,508.19,317.68Zm110.75,76.43c8.79-17.2,3.68-46.48-23.82-58.41-22.25-9.65-48.82,1.59-58.15,24.1-8.91,21.52-.9,48.06,24.15,58.45C587.61,429.22,612.25,413.34,618.94,394.11Z"/></svg>