<svg id="Layer_1" data-name="Layer 1" xmlns="http://www.w3.org/2000/svg" viewBox="0 0 886.85 886.85"><defs><style>.cls-1{fill:#828de0;}</style></defs><title>Adpr Memetic Brand Labs</title><path class="cls-1" d="M538.34,600.58l-7.53-10.14c5.05-3.74,10.7-8.9,16.67-14.36,18.18-16.62,38.79-35.49,62.15-34.54l.81.08c12.16,2,32.51,2.6,37.54-2.69,4.16-4.37,6.52-11.32,6.15-18.15A23.17,23.17,0,0,0,645.81,504c-11.52-9.76-29.13-13.06-47.1-8.83a189.46,189.46,0,0,0-29.55,9.74l-9.78,4.34.93-10.66c.17-2,4.64-48.94,39.34-85.9,24.89-26.51,36.38-41.83,34.14-45.55s-4.67-5.57-7.64-6c-5.84-.91-14.78,3.57-25.15,12.63-12.85,11.23-36.09,39.81-51.46,58.72l-6.31,7.74a7.3,7.3,0,0,1-11.91-8.38c11.38-19,26.8-43.66,35.62-53.33,5.42-5.94,11.3-11.37,17-16.62,9.68-8.93,19.69-18.16,20.54-24.65A13.57,13.57,0,0,0,600,325.63c-2.85-2.65-6.43-3.94-9.41-3.42-9.14,3.78-67.92,61.36-88.05,89.63a7.3,7.3,0,0,1-12.61-7.22c6.32-14.13,26.61-50.82,45.71-67.79,13.14-11.67,15-18.48,14.9-21.5-.09-3.44-2.59-5.7-5.84-8.31l-.65-.52c-1.2-1-3.08-1.2-5.58-.68-13.82,2.89-40.63,26.86-70.69,84.92a7.47,7.47,0,0,1-13.86-5.31c3.11-11.88,11.45-32.65,33.51-64.16.83-1.85,3.06-8.11-2.67-11.89-3.39-2.23-9.3-.81-17.56,4.23-7.85,4.79-21.58,21.22-34.43,51.76l-11.64-4.89c11.89-28.27,26.65-49.81,39.49-57.65s23.15-9.23,31.09-4a20,20,0,0,1,9.4,18.92c12.5-13.67,24.41-22.13,34.78-24.3,8-1.66,13.16.84,16.11,3.23l.59.47c3.35,2.68,10.32,8.26,10.57,17.84.24,9.39-6,19.62-19.13,31.28a89.41,89.41,0,0,0-8.91,9.32c22.23-22.94,45.4-44.2,52.72-45.72,7-1.45,14.81,1,20.76,6.5A26.2,26.2,0,0,1,617,338.8c-.57,4.33-2.56,8.49-5.52,12.63,6-2.71,11.53-3.65,16.64-2.84,6.79,1.06,12.34,5.1,16.49,12,6.53,10.83-1.16,23.88-35.75,60.72-22.26,23.71-31,52.65-34.21,67.86a198.62,198.62,0,0,1,21.18-6.33c21.85-5.14,43.59-.84,58.15,11.49a36,36,0,0,1,12.77,25.79c.56,10.33-3,20.62-9.61,27.53-11.2,11.77-41.32,7.66-48.36,6.5-18.09-.52-36.5,16.39-52.77,31.26C549.78,591.08,543.91,596.45,538.34,600.58Z"/><path class="cls-1" d="M429.74,678.36A56.06,56.06,0,0,1,407.1,674c-6.33-2.82-13.23-6.77-20.54-11-19.13-11-40.79-23.4-58.31-19-6.62,2.66-35.12,13.24-48.62,4.2-7.92-5.31-13.67-14.58-15.38-24.78a36,36,0,0,1,6.84-28c11.52-15.21,31.79-24.09,54.25-23.89a197.83,197.83,0,0,1,22.05,1.57c-6.46-14.14-21.29-40.5-48.18-58.78-41.37-28.13-50.62-50.6-45.47-62.24,2.4-5.45,6.14-9.06,11.09-10.75,6.14-2.09,13.32-1,21.68,2.24-4.16-4.64-7.11-9.09-8.71-13.5-3.09-8.48-2.05-17.19,2.79-23.29s12.76-8.92,22.21-7.8c3.88.46,13,4.86,24.31,11.37A29.72,29.72,0,0,1,323.3,401c-1.86-8.89,1-16.48,4.25-20.62,2.36-3,6.88-6.55,15-6.66C353,373.6,366,379,380.79,389.18a18.07,18.07,0,0,1-.6-3.72c-.22-3.88.75-9.81,6.61-16,4.36-4.63,14.31-11.12,32-2.66,13.83,6.64,32.57,25.77,50.13,51.19,19.8,28.67,35.48,61.51,44.14,92.48,14.15,50.6,9.78,95.51-12.65,129.89h0C490.17,656,474.13,668,455.24,674.18A83,83,0,0,1,429.74,678.36ZM336,630.5c19.21,0,39,11.37,56.87,21.6,7,4,13.66,7.83,19.4,10.39,21,9.36,59.47-1.3,77.58-29.06C515.57,594,510,546.61,500.88,513.84c-8.3-29.65-23.35-61.16-42.38-88.71-15.87-23-33.61-41.42-45.19-47-7.95-3.81-13.77-3.84-17.32-.07-2.21,2.34-3.28,4.55-3.2,6.57a8.49,8.49,0,0,0,2.62,5.2c28.79,26.24,41.55,44.8,47.2,55.77a7.47,7.47,0,0,1-12.36,8.22c-41.76-49.84-73-67.47-87.27-67.47h-.24c-2.55,0-4.33.66-5.29,1.87a13.05,13.05,0,0,0-1.79,10.18C337,404.9,342.72,411,352.16,416c18,9.52,34.8,25.1,50.06,46.32a7,7,0,0,1-10.54,9.19c-25.41-24.21-82.73-58.61-90.4-59.86-4.9-.59-8.75.51-10.79,3.1s-2.4,6.8-.83,11.12c4.3,11.82,29.17,29.24,41.12,37.62,12.93,9.06,27.73,23.91,37.87,34.78a7,7,0,0,1-9.52,10.27c-2.43-1.95-5-4-7.64-6.17-16.91-13.67-37.94-30.7-53.72-39.28-5.45-3-22-12-28.87-9.68-1,.36-2.38,1.12-3.61,3.9s2,20.19,41,46.7c41.92,28.5,56.51,73.36,57.11,75.26l3.24,10.19-10.5-2.1a191.58,191.58,0,0,0-31-3.07c-18.45-.2-34.93,6.85-44,18.89a23.19,23.19,0,0,0-4.46,18.23c1.13,6.74,4.95,13,10,16.38,6.06,4.06,25.8-.92,37.23-5.57l.76-.25A44,44,0,0,1,336,630.5Z"/><path class="cls-1" d="M297,380.48a18.12,18.12,0,0,1-6.49-1.19L232.43,357.1a19.27,19.27,0,1,1,14.27-35.79l57.42,23.85a18.38,18.38,0,0,1,8.34,27A18.48,18.48,0,0,1,297,380.48Zm-57.7-48a6.68,6.68,0,0,0-2.86.65,6.57,6.57,0,0,0-3.51,4.13,6.66,6.66,0,0,0,4,8.06L295,367.49a5.77,5.77,0,0,0,6.86-2.22,5.75,5.75,0,0,0-2.61-8.45L241.86,333A6.71,6.71,0,0,0,239.31,332.46Z"/><path class="cls-1" d="M431.06,307.18A18.37,18.37,0,0,1,413,285.6l10.86-61.23a19.27,19.27,0,1,1,37.84,7.28l-12.63,60.89h0a18.47,18.47,0,0,1-17.82,14.64Zm11.73-86.08a6.65,6.65,0,0,0-6.51,5.48L425.41,287.8a5.69,5.69,0,0,0,1.27,4.72,5.59,5.59,0,0,0,4.44,2,5.78,5.78,0,0,0,5.57-4.58h0l12.62-60.88a6.67,6.67,0,0,0-4.63-7.72A6.85,6.85,0,0,0,442.79,221.1Z"/><path class="cls-1" d="M354.59,328a18.48,18.48,0,0,1-15.7-8.71l-32.65-52.92a19.26,19.26,0,1,1,33.07-19.75l31.12,53.83A18.33,18.33,0,0,1,354.59,328Zm-32-78.39a6.56,6.56,0,0,0-3.9,1.29,6.68,6.68,0,0,0-1.72,8.84l32.66,52.92a5.76,5.76,0,0,0,6.79,2.4,5.75,5.75,0,0,0,3.07-8.29l-31.12-53.84a6.73,6.73,0,0,0-5.78-3.32Z"/></svg>