<?xml version="1.0" encoding="UTF-8"?>
<svg xmlns="http://www.w3.org/2000/svg" version="1.1" viewBox="0 0 886.8 886.8">
  <defs>
    <style>
      .cls-1 {
        fill: #f2ddb6;
      }
    </style>
  </defs>
  <!-- Generator: Adobe Illustrator 28.7.1, SVG Export Plug-In . SVG Version: 1.2.0 Build 142)  -->
  <g>
    <g id="Layer_1">
      <path class="cls-1" d="M87.6,264.1h47.4l13,94.7,13-94.7h47.7v155.3h-28.4v-111.9l-17.9,111.9h-27.8l-19-111.9v111.9h-28v-155.3Z"/>
      <path class="cls-1" d="M220.8,376.2v-53.2c0-24.6,15-37.4,39.8-37.4s38.1,12.3,38.1,37.4v9.6c0,11.9-.2,19-.4,23.5h-45.9v25.7c0,7,.5,14.6,7.4,14.6s7.4-6.3,7.4-15.4v-12.8h31.5v7.6c0,29.6-9.8,45-39.8,45-28.4,0-38.1-16.4-38.1-44.6ZM267.2,340.4v-17.9c0-9.4-2.4-13.4-7-13.4s-7.9,3.6-7.9,13.4v17.9h15Z"/>
      <path class="cls-1" d="M310.1,287h30.9v15.4c2.9-10.9,9-16.8,22.2-16.8s18.4,5.2,21.5,13.2c4.9-8.7,10.3-13.2,22.4-13.2,22.1,0,27.7,15.2,27.7,37v96.7h-31.4v-97.2c0-8.5-2.2-12.8-6.5-12.8-6.9,0-8.7,8.3-8.7,15v95.1h-31.5v-97.3c0-5.6-.5-12.5-6.1-12.5s-8.9,9-8.9,16.3v93.5h-31.6v-132.4Z"/>
      <path class="cls-1" d="M446,376.2v-53.2c0-24.6,15-37.4,39.8-37.4,25.5,0,38.2,12.3,38.2,37.4v9.6c0,11.9-.2,19-.4,23.5h-46v25.7c0,7,.5,14.6,7.4,14.6s7.4-6.3,7.4-15.4v-12.8h31.5v7.6c0,29.6-9.8,45-39.8,45-28.4,0-38.2-16.4-38.2-44.6ZM492.5,340.4v-17.9c0-9.4-2.4-13.4-7-13.4s-8,3.6-8,13.4v17.9h15Z"/>
      <path class="cls-1" d="M540.8,398.8v-82.6h-8.9v-24h8.9v-28h30.7v28h9v24h-9v75.2c0,4.3,1.1,5.8,5.2,5.8,1.3,0,2.6,0,3.8-.4v21.7c-5.9,1.4-11.9,2.2-17.9,2.4-17.2,0-21.9-7.2-21.9-22.1Z"/>
      <path class="cls-1" d="M590.3,252.5h31.7v26.4h-31.7v-26.4ZM590.3,287h31.7v132.3h-31.7v-132.3Z"/>
      <path class="cls-1" d="M633.3,376v-40.9c0-33.1,9-49.5,40.5-49.5s38.3,11.9,38.3,33.6v20.2h-32.2v-18.6c0-6.1-1.1-10.9-7-10.9s-7.8,3.8-7.8,11v64.2c0,5.4,2.2,10.9,7.6,10.9s7.4-5.1,7.4-11v-22.3h32v23.1c0,22-15.9,34.9-38,34.9s-40.8-15.4-40.8-44.8Z"/>
      <path class="cls-1" d="M87.6,437.3h42.1c22.6,0,32.4,10.1,32.4,35.4v6.9c0,14.5-5.2,23.7-15.9,26.6,13.9,3.6,17.7,17.5,17.7,36.2,0,30.4-6.9,50.2-34.2,50.2h-42.1v-155.3ZM124.2,495.7c5.8,0,6.9-5.1,6.9-11.4v-15.5c0-5.1-2.2-7.6-6.7-7.6h-6.5v34.5h6.3ZM121,565.3c8.1,0,12.1-4,12.1-11.6v-19.3c0-8.9-2.2-14.3-9.4-14.3h-5.8v45l3.1.2Z"/>
      <path class="cls-1" d="M173.6,460.3h32.2v14.6c2.9-10.3,11-16.3,22.8-16.3v26.4c-7.8,0-22.8,2.7-22.8,6.3v101.3h-32.2v-132.3Z"/>
      <path class="cls-1" d="M233.6,554.6c0-24,6.1-33.8,26.6-40.9l19.5-6.7v-13.6c0-7.4-2.7-10.7-7-10.7s-6.3,2.9-6.3,8.5v8h-30.7v-4.3c0-26.2,11.8-36.1,38.9-36.1s37.1,11.4,37.1,32.9v100.8h-31.5v-15.7c-3.1,11-10.5,17.1-19.7,17.1-22.1,0-26.8-16.8-26.8-39.4ZM272.9,569.5c5.2,0,6.7-5.2,6.7-10.3v-36.9c-8.7,3.4-13.7,8.1-13.7,18.4v17c0,7.9,2.3,11.7,7,11.7Z"/>
      <path class="cls-1" d="M323.6,460.3h31.6v16.8c2.4-10.1,8.5-18.2,19.9-18.2,18.4,0,26.2,12.1,26.2,31.6v102.1h-31.1v-98.9c0-5.2-2-10.5-7-10.5-7.4,0-8,8.9-8,16.3v93.1h-31.6v-132.3Z"/>
      <path class="cls-1" d="M413,550.5v-57.5c0-20.4,6.5-34.2,23.9-34.2s19,5.8,22.8,15.5v-37.1h32.2v155.3h-32.2v-14.1c-3.4,9.6-8.7,15.5-19.7,15.5-24.4,0-26.9-19.2-26.9-43.6ZM452,569.3c6,0,7.6-4.2,7.6-16.6v-55.6c0-6.1-1.3-13.7-7.4-13.7s-7.8,7-7.8,13.7v55.7c0,11,2.5,16.6,7.6,16.6Z"/>
      <path class="cls-1" d="M87.6,610.5h31.1v128.9h32v26.4h-63.1v-155.3Z"/>
      <path class="cls-1" d="M156.1,727.8c0-24,6.1-33.8,26.6-40.9l19.5-6.7v-13.5c0-7.4-2.7-10.7-7-10.7s-6.3,2.9-6.3,8.5v8h-30.8v-4.3c0-26.2,11.8-36.2,38.9-36.2s37.1,11.4,37.1,32.9v100.9h-31.4v-15.7c-3.1,11-10.5,17.2-19.7,17.2-22.1,0-26.8-16.8-26.8-39.4ZM195.3,742.7c5.2,0,6.7-5.2,6.7-10.3v-36.9c-8.7,3.4-13.7,8.1-13.7,18.4v17c0,8,2.4,11.7,7.1,11.7Z"/>
      <path class="cls-1" d="M278.6,751.7v14.1h-32.2v-155.3h32.2v37.1c3.8-9.8,10.1-15.5,22.8-15.5s23.7,13.7,23.7,34.2v65.1c0,20.4-8.1,36-26,36-10.3,0-16.7-5.1-20.5-15.6ZM285.9,742.7c6.7,0,7.2-7.4,7.2-17.2v-51.7c0-9.8-.5-17.2-7-17.2s-7.4,7.6-7.4,17.2v51.7c0,9.6.5,17.2,7.2,17.2h0Z"/>
      <path class="cls-1" d="M333.8,727.5v-10.5h31.8v15.5c0,6,2.2,9.6,7.4,9.6s6.9-3.4,6.9-10.3c0-11.4-5.6-15.9-12.5-21.2l-16.8-13c-10.7-8.1-16.3-15.7-16.3-32.2s18.3-33.4,39.2-33.4,38.5,12.7,38.5,38.3v2.5h-32.7v-5.1c0-5.2-1.4-11.4-6.7-11.4s-6.7,2.7-6.7,7c-.2,4.4,1.9,8.7,5.6,11.2l19.5,14.3c12.3,8.9,21.7,19.9,21.7,40s-15,38.3-39.8,38.3c-26.2,0-39.2-13.2-39.2-39.8Z"/>
      <path class="cls-1" d="M88.1,185.6c0-22.7,16.8-41.2,40.6-41.2s20.8,4.4,26.2,9.8v-7.5h16.1v77.7h-16.4v-8c-5,5.3-13.2,10.2-25.9,10.2-23.7,0-40.6-18.3-40.6-41ZM155.8,185.4c0-16.8-11.4-26.6-25.9-26.6s-25.6,11.9-25.6,26.6,11,26.8,25.6,26.8,25.9-9.8,25.9-26.8Z"/>
      <path class="cls-1" d="M179.4,185.6c0-22.7,16.8-41.2,40.6-41.2s20.8,4.4,26.2,9.8v-34.6h16.2v104.8h-16.5v-8c-5,5.3-13.2,10.2-25.9,10.2-23.8,0-40.6-18.3-40.6-41ZM247.1,185.4c0-16.8-11.4-26.6-25.9-26.6s-26,11.9-26,26.6,11.4,26.8,26,26.8,25.9-9.8,25.9-26.8Z"/>
      <path class="cls-1" d="M273.6,146.6h16.2v7.5c5.4-5.4,14.9-9.8,26.2-9.8,23.8,0,40.6,18.5,40.6,41.2s-16.8,41-40.6,41-21-5-26.2-10.5v40.1h-16.2v-109.6ZM340.8,185.6c0-14.7-9.9-26.8-24.5-26.8s-27.4,9.8-27.4,26.8,12.8,26.6,27.4,26.6,24.5-11.9,24.5-26.6h0Z"/>
      <path class="cls-1" d="M364.8,146.5h16.2v15c3.6-9.5,15.3-17.3,31.9-17.3v13.4c-19.7,0-31.6,11.3-31.9,27.8v38.9h-16.2v-77.8Z"/>
    </g>
  </g>
</svg>