<svg id="Layer_1" data-name="Layer 1" xmlns="http://www.w3.org/2000/svg" viewBox="0 0 886.85 886.85"><defs><style>.cls-1{fill:#828de0;}</style></defs><title>Adpr Memetic Brand Labs</title><path class="cls-1" d="M342.59,593.2l16.18,13.55c4-4.56,7.07-8.11,11-12.68l-16.89-14.55Z"/><path class="cls-1" d="M668.56,208.5H486.2a29.91,29.91,0,0,0-29.89,29.89v26.09a141.3,141.3,0,0,0-77.75-23.22c-78.41,0-142.2,63.79-142.2,142.2a141.37,141.37,0,0,0,9.49,51H218.29a29.93,29.93,0,0,0-29.89,29.89V603.5a29.93,29.93,0,0,0,29.89,29.89h122L392.56,676a10.19,10.19,0,0,0,16.63-7.87V633.39h83.57a29.92,29.92,0,0,0,29.89-29.89V534.09h24.11v34.77a10.08,10.08,0,0,0,5.8,9.19,10.25,10.25,0,0,0,4.4,1,10.1,10.1,0,0,0,6.4-2.3l52.3-42.67h52.9a29.91,29.91,0,0,0,29.89-29.89V238.39A29.91,29.91,0,0,0,668.56,208.5Zm-290,46.58c70.79,0,128.36,57.59,128.36,128.38a127.56,127.56,0,0,1-3.8,31c-.73,3-1.61,6.06-2.6,9a128.25,128.25,0,0,1-140,87.06l-2.74-.39-47.19,34.18q-.93-.32-1.8-.69l13-44.91-4.83-2.67a128.38,128.38,0,0,1,61.64-241Zm129.38,69.5c1.84.64,4.42.78,7.87.46,11.72-1.1,23.65-.25,37.24-.25-4.82,27.45-17.07,49.76-32.75,69.82.3-3.69.44-7.39.44-11.15A141.12,141.12,0,0,0,507.94,324.58Zm.89,278.92a16.08,16.08,0,0,1-16.07,16.07H395.37v40.92L345.2,619.57H218.29a16.1,16.1,0,0,1-16.08-16.07V464.34a16.11,16.11,0,0,1,16.08-16.08H252A140.52,140.52,0,0,0,282,487.76c-11.4,25.74-8,51.21,9.56,65.9a10.17,10.17,0,0,0,10,12,10.27,10.27,0,0,0,4.68-1.15l2.23-1.62a62.45,62.45,0,0,0,7.71,2c33.74,6.77,66.21,1.82,98.66-7.85,15.59-4.65,22-15.91,20.79-29.8a97.67,97.67,0,0,0-2.09-12.64,143.37,143.37,0,0,0,22.82-12.18v1.75a29.91,29.91,0,0,0,29.89,29.89h22.63Zm-84.92-78.76c3.54,7.88,2,14.12-7,15.41-26.08,3.75-52.54,10.93-78.34,9.18-3.57-.25-6.9-.55-10.06-1l32.86-23.77a145.67,145.67,0,0,0,17.2,1.06,141.28,141.28,0,0,0,43-6.65C422.29,520.94,423.05,522.87,423.91,524.74ZM284.49,490.06a141.46,141.46,0,0,0,21,15.36l-8.89,30.7C287,527,283.78,512.47,284.49,490.06ZM684.63,504.2a16.09,16.09,0,0,1-16.07,16.07H610.73l-50.15,40.92V520.27H486.2a16.09,16.09,0,0,1-16.08-16.07V492.13a142.29,142.29,0,0,0,44.24-66.5c1.13-1.29,2.4-3,3.94-5.18,11.53-16.22,21.85-33.33,32.84-49.95,2.39-3.62,5.22-9.6,8.1-9.77,17.48-.92,35-.46,56.93-.46-9.21,18.1-16.21,31.87-25.33,49.81-7.63-12.89-12.25-21.55-17.78-29.59-2-2.85-6.15-4.21-9.3-6.24-.63,3.71-2.91,8.25-1.55,11,5.12,10.18,11.42,19.74,19.23,32.77L526.93,443.5c1.92,3.36,4,7,7.46,13.1,16.49-8.54,32.66-16.07,47.88-25.22,6.42-3.86,10.27-4.3,17.18-.89,15.8,7.78,32.47,13.77,49.6,20.81,3.11-7.71,5-12.43,6.68-16.67l-52.55-16.14C614,394.17,623.42,372.82,634.43,348H563.76c2.6-24.13,2.87-24.36,24-24.34,22.8.05,45.62,0,68.51,0,3.52-9.58,0-12.23-9.69-12-24.32.63-48.64.21-74.36.21.78-9.23,1.45-17,2.21-26-4.47-.95-9-1.91-14.33-3.07-.69,5-1.7,8.39-1.54,11.73.76,14.34-5.89,19.34-19.87,18-10.78-1-21.72-.21-32.91-.21a26.37,26.37,0,0,0-1.33,5.18,142.21,142.21,0,0,0-34.32-42.65v-36.4a16.09,16.09,0,0,1,16.08-16.08H668.56a16.09,16.09,0,0,1,16.07,16.08Z"/><path class="cls-1" d="M339.61,437.48c9.79-25.27,10.13-25.14,37.78-25,1.67,0,3.33,0,5,0,29.58.12,22.74-3.28,33.16,23,3.89,9.81,8.48,14.77,20.17,11.06-.18-1.8,0-3.13-.48-4.23C420.52,405.17,406,368,390.61,331.19c-1.62-3.87-8.58-7.75-12.94-7.61s-10.9,4.33-12.59,8.38c-14.59,34.91-28.32,70.17-42.21,105.37-1.13,2.88-1.52,6.05-2.24,9C330.73,449.75,336,446.78,339.61,437.48Zm36.32-95.6,3.59.34c6.93,17.95,13.86,35.89,21.32,55.23H354.89Z"/></svg>