<svg id="Layer_1" data-name="Layer 1" xmlns="http://www.w3.org/2000/svg" viewBox="0 0 886.85 886.85"><defs><style>.cls-1{fill:#de5f64;}.cls-2{fill:#f2ddb6;}</style></defs><title>Adpr Memetic Brand Labs</title><polygon class="cls-1" points="418.73 145.52 198.35 301.56 223.61 587.55 157.08 665.42 308.54 741.33 560.85 698.84 603.9 560.8 708.8 543.04 680.48 173.99 418.73 145.52"/><path class="cls-2" d="M570.51,265.05q-6.68-7.82-14.26-10.27a157.41,157.41,0,0,0-15.69-4.15,111.38,111.38,0,0,0-22.36,0q-11.13,1.14-21.14,3a303.2,303.2,0,0,0-82.85,28q-37.8,19.49-68.25,53.77-8.88,11.4-16.67,23.25A168.82,168.82,0,0,0,315.61,384Q310,398.67,323,405.92q5.6,2.19,9.52,4a40.3,40.3,0,0,0,8.65,2.9c3.57.62,6.69,1.12,9.35,1.47s5.74.65,9.24.85q9.35,1.47,13.55,6.5t4.6,14Q380,447,368.48,454.35q-12.83,7.62-30.64,9.37T303,454.43q-15.27-8.78-18.35-25-1.94-6.76-3.73-14.53t-3.1-14.64a107.25,107.25,0,0,1-.72-20.93,117.6,117.6,0,0,1,3.66-21.76A132.07,132.07,0,0,1,290.3,336a186.46,186.46,0,0,1,13-20.29,244.61,244.61,0,0,1,31.2-33.78q16.64-14.82,35.28-29.37,21.75-15.13,44.62-27.9A260.68,260.68,0,0,1,463,203.74a334.8,334.8,0,0,1,39.81-8.83,151,151,0,0,1,40.72-.59,86.53,86.53,0,0,1,19.77,3.39,158.14,158.14,0,0,1,18.48,6.87q20.12,10.46,24.39,33a107.07,107.07,0,0,1,.6,39.1,147.51,147.51,0,0,1-11.1,35.49q-5.48,8.81-10.36,17.19a160.83,160.83,0,0,1-10.59,15.94Q558.61,366.49,543,386.93t-32.52,40.51Q492.3,451,473.76,474.6t-35,49.42a251.72,251.72,0,0,0-14.59,22.21A127.64,127.64,0,0,0,413.25,571a44.13,44.13,0,0,0-1.33,20.34,31.22,31.22,0,0,1,.49,7.69q-.23,3.93-.77,7.92-.66,3.38-4.49,5.39c-2.56,1.36-4.79,1.56-6.69.62q-9.09-3.47-10.62-11.6a149.74,149.74,0,0,1-5.16-27.22,86.47,86.47,0,0,1,1.46-26.53,254.28,254.28,0,0,1,12.66-47.77,187.94,187.94,0,0,1,22.73-42.55,514.53,514.53,0,0,1,32.65-41.52q17.31-19.8,34.26-39.87,15.42-17.82,29-35T545.86,306a177.41,177.41,0,0,0,13.5-19.41A192,192,0,0,0,570.51,265.05ZM403.83,637.58q14.48,1.15,20.8,12.27t.83,23.18c-2.95,2.72-5.26,4.23-6.92,4.55a78.54,78.54,0,0,1-27.77,4,16.86,16.86,0,0,1-9.47-2.09q-4.35-2.41-6.9-9.07c-1.16-1.5-2.18-2.93-3.08-4.28s-2-3-3.2-4.9a7.5,7.5,0,0,1-1.29-8.51,16.33,16.33,0,0,1,6.7-7.42,40.27,40.27,0,0,1,14.73-6A96.3,96.3,0,0,1,403.83,637.58Z"/></svg>