<svg id="Layer_1" data-name="Layer 1" xmlns="http://www.w3.org/2000/svg" viewBox="0 0 886.85 886.85"><defs><style>.cls-1{fill:#de5f64;}</style></defs><title>Adpr Memetic Brand Labs</title><path class="cls-1" d="M574.21,686.75H310.5V652.21c0-73.08,38.69-120.18,76.11-165.73,33.56-41.06,68.25-83.54,68.25-148.11,0-26.95-7.2-26.95-12-26.95-8.57,0-10.37,15.52-10.37,28.55v68.76H311.32L310.53,397c-.5-7.51-1.09-18.67-1.09-29.18,0-56.63,8.62-95.35,27.13-121.85C358.12,215.09,393.24,200.1,444,200.1c83.56,0,133.45,51.09,133.45,136.66,0,88.76-40.07,137.15-78.82,184-14.06,16.72-28.5,34.45-40.63,54.18H574.21ZM335.75,661.51H549V600.14H416.05l9.13-18.27c14.89-29.77,34.86-54.53,54-77.33,44-53.2,73-93.66,73-167.78,0-71.85-38.43-111.42-108.21-111.42-79.66,0-109.28,38.6-109.28,142.43,0,5.27.17,10.79.39,15.71h72.21V340c0-20.09,4.62-53.79,35.61-53.79,24.7,0,37.22,17.56,37.22,52.19,0,73.58-39.3,121.67-74,164.1l0,0c-36.2,44-70.38,85.67-70.38,149.71Z"/></svg>