<svg id="Layer_1" data-name="Layer 1" xmlns="http://www.w3.org/2000/svg" viewBox="0 0 886.85 886.85"><defs><style>.cls-1{fill:#828de0;}.cls-2{fill:#de5f64;}</style></defs><title>Adpr Memetic Brand Labs</title><path class="cls-1" d="M755.47,362.15v299a40.11,40.11,0,0,1-40.11,40.11H618.57a33.52,33.52,0,0,0,.82-7.35c3.19-65.76-8-127,0-207.74H518l-9.93-124h33.49v48.32a6.61,6.61,0,1,0,13.21,0V362.15h113.4v43.76a6.61,6.61,0,1,0,13.21,0V362.15Z"/><path class="cls-1" d="M303.66,693.92a33.52,33.52,0,0,0,.82,7.35H162.37a31,31,0,0,1-30.84-34l29.06-396.2s34,2.31,81.66,4.12V326a8.26,8.26,0,1,0,16.51,0V275.82c40,1.34,87.09,2.16,131.25,1.09v43.78a8.26,8.26,0,0,0,16.52,0V276.41c25.87-.92,50.23-2.59,70.9-5.31l15.85,215.08H303.66C311.2,534.46,307.93,612.79,303.66,693.92Z"/><path class="cls-1" d="M406.52,237.25v39.17c-5.43.21-10.95.36-16.51.49V237.25a65.63,65.63,0,1,0-131.25,0v38.57q-8.5-.27-16.52-.59v-38a82.14,82.14,0,0,1,164.28,0Z"/><path class="cls-1" d="M681.32,334.41v27.75H668.11V334.41a56.7,56.7,0,1,0-113.4,0v27.75H541.5V334.41a69.91,69.91,0,1,1,139.82,0Z"/><path class="cls-2" d="M586.53,731.74h-250a37.86,37.86,0,0,1-37.81-37.82v-.26c4.3-81.59,7.53-158.8.06-206.71l-.9-5.72h327l-.54,5.44c-4.59,46.41-2.81,86.16-1.09,124.6,1.26,28.23,2.46,54.91,1.11,82.78A37.85,37.85,0,0,1,586.53,731.74ZM308.61,694.05a27.94,27.94,0,0,0,27.91,27.78h250a27.94,27.94,0,0,0,27.91-27.91v-.24c1.33-27.45.15-53.93-1.11-82-1.66-37.29-3.39-75.79.62-120.57H309.38C315.92,540.19,312.77,615.09,308.61,694.05Z"/><path class="cls-1" d="M461.52,634.77a70,70,0,0,1-69.91-69.91v-37.2a6.61,6.61,0,1,1,13.21,0v37.2a56.71,56.71,0,0,0,113.41,0V523.1a6.61,6.61,0,0,1,13.21,0v41.76A70,70,0,0,1,461.52,634.77Z"/></svg>