<svg id="Layer_1" data-name="Layer 1" xmlns="http://www.w3.org/2000/svg" viewBox="0 0 886.85 886.85"><defs><style>.cls-1{fill:#efc960;}</style></defs><title>Adpr Memetic Brand Labs</title><path class="cls-1" d="M117.88,384.74s-39,87.4-8.67,163.85,185.46,31.95,185.46,31.95l-37.58-35.37s52.13,36,112.73,48.24c0,0-25.47,2.05-39.22,0,0,0,15.79,44,70.82,31.05s52.48-78.65,26.49-99.28S335.18,482,335.18,482s-9.17-8.15,9.17-7.67,103.94,24.94,112.09,71.46c0,0,48.41-23,37.71-66.67s-103.43-71.93-103.43-71.93-12.74-10.07,2-10.07,97.83,24.93,110.06,69.06c0,0,26.49-1.44,28.53-35.49,0,0-4.08-68.58-66.75-76.26s-64.19-16.78-64.19-20.14,39.74,7.2,62.16,9.59,75.4,19.67,77.95,86.33c0,0,89.16,52.27,164.06,27.33s87.64-64.74,84.07-87.76S771.32,331,723.93,328.56s-137,1.91-221.63-26.86-180-51.49-230.81-37.41C223.09,277.72,155.35,311.61,117.88,384.74Z"/></svg>