<svg id="Layer_1" data-name="Layer 1" xmlns="http://www.w3.org/2000/svg" viewBox="0 0 886.85 886.85"><defs><style>.cls-1{fill:#8e4ed5;}</style></defs><title>Adpr Memetic Brand Labs</title><path class="cls-1" d="M87.55,264.08h47.37l13,94.73,13-94.73h47.72V419.37H180.29V307.47l-17.9,111.9H134.56l-19-111.9v111.9h-28Z"/><path class="cls-1" d="M220.79,376.16V323c0-24.59,15-37.42,39.77-37.42,25.49,0,38.14,12.29,38.14,37.42v9.58c0,11.93-.18,19-.36,23.5H252.43v25.67c0,7.05.54,14.64,7.41,14.64,6.51,0,7.41-6.33,7.41-15.36V368.21H298.7v7.59c0,29.65-9.76,45-39.77,45C230.55,420.82,220.79,404.37,220.79,376.16Zm46.46-35.79v-17.9c0-9.4-2.35-13.37-7.05-13.37-5.06,0-7.95,3.61-7.95,13.37v17.9Z"/><path class="cls-1" d="M310.1,287H341v15.37c2.89-10.85,9-16.81,22.23-16.81,10.67,0,18.44,5.24,21.52,13.19,4.88-8.68,10.3-13.19,22.41-13.19,22.06,0,27.66,15.18,27.66,37v96.72H403.38V322.11c0-8.49-2.17-12.83-6.51-12.83-6.87,0-8.68,8.31-8.68,15v95.09H356.74V322.11c0-5.6-.55-12.47-6.15-12.47-7.23,0-8.86,9-8.86,16.27v93.46H310.1Z"/><path class="cls-1" d="M446.05,376.16V323c0-24.59,15-37.42,39.77-37.42C511.31,285.6,524,297.89,524,323v9.58c0,11.93-.18,19-.36,23.5H477.68v25.67c0,7.05.54,14.64,7.41,14.64,6.51,0,7.42-6.33,7.42-15.36V368.21H524v7.59c0,29.65-9.76,45-39.77,45C455.81,420.82,446.05,404.37,446.05,376.16Zm46.46-35.79v-17.9c0-9.4-2.35-13.37-7.05-13.37-5.07,0-8,3.61-8,13.37v17.9Z"/><path class="cls-1" d="M540.78,398.76V316.15h-8.86v-24h8.86v-28h30.73v28h9v24h-9v75.2c0,4.34,1.08,5.79,5.24,5.79a13.26,13.26,0,0,0,3.8-.37v21.7a88.3,88.3,0,0,1-17.9,2.35C545.48,420.82,540.78,413.59,540.78,398.76Z"/><path class="cls-1" d="M590.31,252.51H622v26.4H590.31Zm0,34.53H622V419.37H590.31Z"/><path class="cls-1" d="M633.34,376V335.13c0-33.08,9-49.53,40.49-49.53,21.87,0,38.33,11.93,38.33,33.62v20.25H680V320.85c0-6.15-1.09-10.85-7.05-10.85-5.25,0-7.78,3.8-7.78,11V385.2c0,5.43,2.17,10.85,7.6,10.85s7.41-5.06,7.41-11V362.79h32v23.14c0,22.05-15.91,34.89-38,34.89C644.54,420.82,633.34,405.45,633.34,376Z"/><path class="cls-1" d="M720.29,381.05V370.56h31.82v15.55c0,6,2.17,9.58,7.41,9.58,4.7,0,6.87-3.44,6.87-10.31,0-11.38-5.6-15.9-12.47-21.15l-16.81-13c-10.67-8.14-16.27-15.73-16.27-32.18,0-22.78,18.25-33.44,39.22-33.44,25.31,0,38.51,12.65,38.51,38.32v2.53H765.85v-5.06c0-5.24-1.45-11.39-6.69-11.39-4.52,0-6.69,2.71-6.69,7.05a13,13,0,0,0,5.61,11.21l19.52,14.28c12.29,8.86,21.69,19.89,21.69,39.95,0,24.95-15,38.33-39.77,38.33C733.31,420.82,720.29,407.62,720.29,381.05Z"/><path class="cls-1" d="M87.55,437.3h42.12c22.6,0,32.36,10.13,32.36,35.44v6.87c0,14.46-5.24,23.68-15.91,26.57,13.92,3.62,17.72,17.54,17.72,36.16,0,30.37-6.87,50.25-34.17,50.25H87.55Zm36.7,58.39c5.79,0,6.87-5.06,6.87-11.38V468.76c0-5.06-2.17-7.59-6.69-7.59h-6.51v34.52ZM121,565.29c8.13,0,12.11-4,12.11-11.57V534.38c0-8.86-2.17-14.28-9.4-14.28h-5.79v45Z"/><path class="cls-1" d="M173.6,460.26h32.18v14.65c2.9-10.31,11-16.27,22.78-16.27V485c-7.77,0-22.78,2.71-22.78,6.33V592.59H173.6Z"/><path class="cls-1" d="M233.62,554.63c0-24,6.15-33.81,26.58-40.86l19.52-6.69V493.53c0-7.42-2.71-10.67-7.05-10.67-4,0-6.33,2.89-6.33,8.5v7.95H235.61V495c0-26.21,11.75-36.15,38.87-36.15,21.15,0,37.06,11.39,37.06,32.9V592.59H280.08V576.86C277,587.89,269.6,594,260.38,594,238.32,594,233.62,577.23,233.62,554.63Zm39.23,14.82c5.24,0,6.69-5.24,6.69-10.3V522.27c-8.68,3.43-13.74,8.13-13.74,18.44v17C265.8,565.66,268.15,569.45,272.85,569.45Z"/><path class="cls-1" d="M323.65,460.26h31.64v16.81c2.35-10.12,8.49-18.25,19.88-18.25,18.44,0,26.22,12.11,26.22,31.63V592.59h-31.1V493.71c0-5.25-2-10.49-7.05-10.49-7.41,0-7.95,8.86-7.95,16.27v93.1H323.65Z"/><path class="cls-1" d="M413,550.47V493c0-20.42,6.51-34.16,23.86-34.16,12.84,0,19,5.78,22.78,15.54V437.3h32.18V592.59H459.6v-14.1c-3.44,9.58-8.68,15.55-19.71,15.55C415.49,594,413,574.88,413,550.47ZM452,569.27c6,0,7.59-4.16,7.59-16.63V497c0-6.15-1.27-13.74-7.41-13.74-6.87,0-7.78,7-7.78,13.74v55.68C444.41,563.67,446.94,569.27,452,569.27Z"/><path class="cls-1" d="M87.55,610.52h31.1v128.9h32v26.39H87.55Z"/><path class="cls-1" d="M156.07,727.85c0-24,6.15-33.81,26.57-40.86l19.53-6.69V666.75c0-7.42-2.71-10.67-7-10.67-4,0-6.33,2.89-6.33,8.5v7.95H158.06v-4.34c0-26.21,11.75-36.15,38.86-36.15,21.16,0,37.06,11.39,37.06,32.9V765.81H202.53V750.09c-3.07,11-10.49,17.17-19.71,17.17C160.77,767.26,156.07,750.45,156.07,727.85Zm39.23,14.82c5.24,0,6.69-5.24,6.69-10.3V695.49c-8.68,3.44-13.74,8.14-13.74,18.44v17C188.25,738.88,190.6,742.67,195.3,742.67Z"/><path class="cls-1" d="M278.64,751.71v14.1H246.46V610.52h32.18v37.06c3.79-9.76,10.12-15.54,22.78-15.54,17.35,0,23.68,13.74,23.68,34.16v65.08c0,20.43-8.14,36-26,36C288.76,767.26,282.43,762.2,278.64,751.71Zm7.23-9c6.69,0,7.23-7.41,7.23-17.17V673.8c0-9.77-.54-17.18-7.05-17.18-6.87,0-7.41,7.6-7.41,17.18v51.7C278.64,735.08,279.18,742.67,285.87,742.67Z"/><path class="cls-1" d="M333.78,727.49V717h31.81v15.55c0,6,2.17,9.58,7.42,9.58,4.7,0,6.87-3.43,6.87-10.3,0-11.39-5.61-15.91-12.48-21.15l-16.81-13c-10.67-8.14-16.27-15.73-16.27-32.18,0-22.78,18.26-33.44,39.23-33.44,25.31,0,38.5,12.65,38.5,38.32v2.53H379.33v-5.06c0-5.24-1.44-11.39-6.69-11.39-4.51,0-6.68,2.71-6.68,7a13,13,0,0,0,5.6,11.21L391.08,689c12.3,8.86,21.7,19.89,21.7,39.95,0,25-15,38.33-39.77,38.33C346.79,767.26,333.78,754.06,333.78,727.49Z"/><path class="cls-1" d="M88.11,185.59c0-22.7,16.84-41.19,40.6-41.19,11.27,0,20.75,4.36,26.16,9.77v-7.52H171v77.73H154.57l.15-8c-5.11,5.26-13.38,10.23-26,10.23C105,226.64,88.11,208.29,88.11,185.59Zm67.66-.15c0-16.84-11.43-26.61-25.86-26.61s-25.56,11.88-25.56,26.61,11,26.76,25.56,26.76C144.34,212.2,155.77,202.43,155.77,185.44Z"/><path class="cls-1" d="M179.41,185.59c0-22.7,16.84-41.19,40.59-41.19,11.28,0,20.75,4.36,26.17,9.77V119.59H262.4V224.38H245.86l.15-8c-5.11,5.26-13.38,10.23-26,10.23C196.25,226.64,179.41,208.29,179.41,185.59Zm67.66-.15c0-16.84-11.43-26.61-25.86-26.61-14.59,0-26,11.88-26,26.61s11.42,26.76,26,26.76C235.64,212.2,247.07,202.43,247.07,185.44Z"/><path class="cls-1" d="M273.58,146.65h16.24v7.52c5.41-5.41,14.88-9.77,26.16-9.77,23.75,0,40.59,18.49,40.59,41.19s-16.84,41-40.59,41c-12.78,0-21.05-5-26.16-10.53v40.15H273.58Zm67.21,38.94c0-14.73-9.93-26.76-24.51-26.76s-27.36,9.77-27.36,26.76c0,16.84,12.78,26.61,27.36,26.61S340.79,200.33,340.79,185.59Z"/><path class="cls-1" d="M364.76,146.5H381v15c3.61-9.48,15.34-17.3,31.88-17.3v13.39c-19.7,0-31.58,11.27-31.88,27.81v38.94H364.76Z"/></svg>