<svg id="Layer_1" data-name="Layer 1" xmlns="http://www.w3.org/2000/svg" viewBox="0 0 886.85 886.85"><defs><style>.cls-1{fill:#efc960;}</style></defs><title>Adpr Memetic Brand Labs</title><path class="cls-1" d="M685.47,272.35S637,297.53,559.22,291.2s-178-72.94-242.21-85.9-132.85-15.08-165.56,38.44S205,347.48,205,347.48s-4.82-65.83,4.44-75.24,9.65,2.29,7.93,12-13.23,113.33,30.07,172,94.12,27.89,97.21,1.43S334.51,320.07,332,297s16.58-20.4,17.71,23.06c1.19,45.52,7.23,79.66,8.68,93.54,0,0,48.13-25.69,91.84-20.58s149.21,48.73,238.19,25.42c51.57-13.52,89.36-34.6,95.28-69.75C791.64,301.29,751.11,245,685.47,272.35Z"/><path class="cls-1" d="M360.75,426.35s82-34.18,116.6-16.14,38.25,56.94,18.93,92.59S370,563.82,296.36,522c-31.58-17.93-41.07-34.95-39-37.11C257.32,484.92,358.52,559.12,360.75,426.35Z"/><path class="cls-1" d="M236.9,471.94s20.51,99,202.38,79.52c0,0,42.43,41.18-40.31,70.59s-162.56-26-182.4-70.85S199.55,472.25,236.9,471.94Z"/><path class="cls-1" d="M195.37,523S208,649.33,378.79,640.11c0,0-32.44,48.11-126.83,22.51S136.36,542,195.37,523Z"/><path class="cls-1" d="M132.07,276s-14.89,46.08,75.71,95.72c0,0-5.23,39.84,21.45,81,0,0-31.66-3.52-36.45,52.49,0,0-30.82,9.23-35.83,37.21,0,0-49.3-37.7-29.36-135.2C127.59,407.29,99.93,324.09,132.07,276Z"/></svg>