<svg preserveAspectRatio="xMidYMid meet" width="100%" height="100%" overflow="visible" style="display: block;" viewBox="0 0 94.1682 116.175" fill="none" xmlns="http://www.w3.org/2000/svg">
<g id="Thumbs Up">
<path id="Vector" d="M43.5265 16.2532C43.5265 16.2532 38.4943 1.95673 32.4034 0.367356C26.3126 -1.22202 17.439 2.35276 15.7229 10.9597C14.0068 19.5666 17.967 28.0363 23.1365 33.7232C26.3897 37.2761 29.9327 40.5524 33.7288 43.5182C33.7288 43.5182 8.70534 50.4117 2.74913 63.6521C-3.20708 76.8925 0.901011 84.5701 11.3534 85.4968C21.8058 86.4235 38.1432 79.662 39.3101 73.8537C40.4771 68.0453 36.9049 64.188 28.8287 67.7628C20.7524 71.3376 19.4323 69.7482 21.2171 68.0268C23.0018 66.3054 37.3036 61.4079 41.0183 67.1001C44.733 72.7923 40.7543 75.9711 40.7543 75.9711C40.7543 75.9711 50.2853 75.7467 48.1679 85.5892C48.1679 85.5892 56.7722 84.842 56.7722 92.2556C56.7722 92.2556 63.7158 88.6808 66.0708 98.0798C66.0708 98.0798 89.2092 89.3435 93.18 73.059C97.1508 56.7745 88.5386 39.8193 78.3449 35.1858C68.1513 30.5523 49.2002 27.5188 43.5265 16.2532Z" fill="var(--fill-0, #EFC960)"/>
<path id="Vector_2" d="M8.51461 88.1316C8.51461 88.1316 28.4795 88.7283 39.3095 78.4422C39.3095 78.4422 51.5387 78.3894 45.0333 87.094C37.4614 97.2217 18.6819 103.083 14.3758 100.451C11.1785 98.4969 6.12262 96.1445 8.51461 88.1316Z" fill="var(--fill-0, #EFC960)"/>
<path id="Vector_3" d="M47.0799 88.2505C47.0799 88.2505 36.3134 100.691 21.2063 102.724C21.2063 102.724 21.1826 117.078 38.0506 111.098C54.9186 105.118 54.7338 93.9928 53.9285 91.7197C53.1233 89.4465 50.8105 87.4109 47.0799 88.2505Z" fill="var(--fill-0, #EFC960)"/>
<path id="Vector_4" d="M39.3098 113.353C39.3098 113.353 53.4901 107.988 56.9593 94.8298C56.9593 94.8298 64.6158 92.018 63.4198 101.079C62.2238 110.14 52.6532 115.764 47.988 116.128C43.3228 116.492 40.2048 114.652 39.3098 113.353Z" fill="var(--fill-0, #EFC960)"/>
</g>
</svg>
