<svg preserveAspectRatio="none" width="100%" height="100%" overflow="visible" style="display: block;" viewBox="0 0 80 80" fill="none" xmlns="http://www.w3.org/2000/svg">
<g id="Frame 1321317458">
<rect width="80" height="80" rx="40" fill="var(--fill-0, #C24A8C)"/>
<path id="Vector" d="M18.9711 59.7327L20.2595 58.2613C24.862 53.0144 29.4681 47.771 34.0777 42.5311C34.5031 42.0487 34.5118 41.7503 34.1178 41.2385C28.9282 34.4821 23.7526 27.7181 18.591 20.9467C18.4167 20.7194 18.2615 20.48 18 20.1069C18.4254 20.067 18.6974 20.0202 18.9763 20.0184C23.0315 20.0184 27.0849 20.0184 31.1383 20.0063C31.3679 19.9915 31.5973 20.0371 31.8036 20.1386C32.0098 20.24 32.1856 20.3936 32.3133 20.5841C35.1969 24.4186 38.0916 28.2444 40.9972 32.0616C41.1576 32.2716 41.3267 32.4746 41.644 32.8719C41.8143 32.5971 41.9987 32.3313 42.1967 32.0755C45.4952 28.2913 48.8094 24.5192 52.094 20.7229C52.5333 20.2162 52.9849 19.982 53.663 20.0011C55.2321 20.0462 56.8012 20.0132 58.3807 20.0167C58.6474 20.0167 58.9124 20.0392 59.3535 20.0583C59.085 20.4244 58.9159 20.6986 58.7067 20.938C54.2227 26.0623 49.7317 31.1802 45.2337 36.2917C44.7891 36.7949 44.7944 37.1159 45.1971 37.6434C50.6388 44.7907 56.0655 51.9479 61.477 59.115C61.6339 59.3214 61.7646 59.5453 62 59.8958C61.5485 59.9339 61.2469 59.9808 60.9452 59.9808C57.0627 59.9808 53.1819 59.9721 49.2993 59.9981C48.6839 59.9981 48.3073 59.7795 47.9517 59.3128C44.7543 55.1023 41.5476 50.8982 38.3316 46.7005C38.102 46.4075 37.8458 46.1363 37.5662 45.8902C37.4389 46.1487 37.357 46.4489 37.1739 46.6606C33.4919 50.8907 29.7906 55.1035 26.1173 59.3405C25.9478 59.5604 25.7265 59.7353 25.4728 59.8497C25.2192 59.9641 24.9411 60.0145 24.6633 59.9964C23.0942 59.9617 21.5252 59.9964 19.9456 59.9825C19.6615 59.9825 19.3755 59.9548 19.0914 59.9391L18.9711 59.7327ZM54.0135 55.8652C53.7659 55.4991 53.6543 55.3151 53.5236 55.1434C45.9688 45.1782 38.424 35.209 30.889 25.2358C30.1271 24.2208 29.3583 23.7367 28.0995 23.8998C27.4179 23.99 26.7048 23.9154 25.8593 23.9154C26.1138 24.285 26.2428 24.4863 26.3823 24.6771C28.9892 28.0744 31.5962 31.4711 34.2032 34.8672C39.4299 41.6641 44.6491 48.4593 49.8607 55.2527C50.0455 55.4921 50.3087 55.8235 50.558 55.8374C51.6407 55.9016 52.7356 55.8652 54.0187 55.8652H54.0135Z" fill="var(--fill-0, #F2DDB6)"/>
</g>
</svg>
