<svg id="Layer_1" data-name="Layer 1" xmlns="http://www.w3.org/2000/svg" viewBox="0 0 1322.95 425.9"><defs><style>.cls-1{opacity:0.15;}.cls-2,.cls-3,.cls-4,.cls-5{fill:none;stroke:#fff;stroke-miterlimit:10;}.cls-2,.cls-4{stroke-width:0.6px;}.cls-3{stroke-width:0.34px;}.cls-3,.cls-4{opacity:0.5;}.cls-5{stroke-width:1.5px;}</style></defs><title>TCT_Landing Page</title><g class="cls-1"><line class="cls-2" x1="74.83" y1="5.92" x2="74.83" y2="419.98"/><line class="cls-3" x1="61.03" y1="5.92" x2="61.03" y2="419.98"/><line class="cls-3" x1="47.23" y1="5.92" x2="47.23" y2="419.98"/><line class="cls-3" x1="33.43" y1="5.92" x2="33.43" y2="419.98"/><line class="cls-3" x1="19.63" y1="5.92" x2="19.63" y2="419.98"/><line class="cls-2" x1="5.82" y1="5.92" x2="5.82" y2="419.98"/><line class="cls-2" x1="143.85" y1="5.92" x2="143.85" y2="419.98"/><line class="cls-3" x1="130.04" y1="5.92" x2="130.04" y2="419.98"/><line class="cls-3" x1="116.24" y1="5.92" x2="116.24" y2="419.98"/><line class="cls-3" x1="102.44" y1="5.92" x2="102.44" y2="419.98"/><line class="cls-3" x1="88.64" y1="5.92" x2="88.64" y2="419.98"/><line class="cls-2" x1="212.86" y1="5.92" x2="212.86" y2="419.98"/><line class="cls-3" x1="199.05" y1="5.92" x2="199.05" y2="419.98"/><line class="cls-3" x1="185.25" y1="5.92" x2="185.25" y2="419.98"/><line class="cls-3" x1="171.45" y1="5.92" x2="171.45" y2="419.98"/><line class="cls-3" x1="157.65" y1="5.92" x2="157.65" y2="419.98"/><line class="cls-2" x1="281.87" y1="5.92" x2="281.87" y2="419.98"/><line class="cls-3" x1="268.07" y1="5.92" x2="268.07" y2="419.98"/><line class="cls-3" x1="254.26" y1="5.92" x2="254.26" y2="419.98"/><line class="cls-3" x1="240.46" y1="5.92" x2="240.46" y2="419.98"/><line class="cls-3" x1="226.66" y1="5.92" x2="226.66" y2="419.98"/><line class="cls-2" x1="350.88" y1="5.92" x2="350.88" y2="419.98"/><line class="cls-3" x1="337.08" y1="5.92" x2="337.08" y2="419.98"/><line class="cls-3" x1="323.27" y1="5.92" x2="323.27" y2="419.98"/><line class="cls-3" x1="309.47" y1="5.92" x2="309.47" y2="419.98"/><line class="cls-3" x1="295.67" y1="5.92" x2="295.67" y2="419.98"/><line class="cls-2" x1="419.89" y1="5.92" x2="419.89" y2="419.98"/><line class="cls-3" x1="406.09" y1="5.92" x2="406.09" y2="419.98"/><line class="cls-3" x1="392.29" y1="5.92" x2="392.29" y2="419.98"/><line class="cls-3" x1="378.48" y1="5.92" x2="378.48" y2="419.98"/><line class="cls-3" x1="364.68" y1="5.92" x2="364.68" y2="419.98"/><line class="cls-2" x1="488.9" y1="5.92" x2="488.9" y2="419.98"/><line class="cls-3" x1="475.1" y1="5.92" x2="475.1" y2="419.98"/><line class="cls-3" x1="461.3" y1="5.92" x2="461.3" y2="419.98"/><line class="cls-3" x1="447.49" y1="5.92" x2="447.49" y2="419.98"/><line class="cls-3" x1="433.69" y1="5.92" x2="433.69" y2="419.98"/><line class="cls-2" x1="557.91" y1="5.92" x2="557.91" y2="419.98"/><line class="cls-3" x1="544.11" y1="5.92" x2="544.11" y2="419.98"/><line class="cls-3" x1="530.31" y1="5.92" x2="530.31" y2="419.98"/><line class="cls-3" x1="516.51" y1="5.92" x2="516.51" y2="419.98"/><line class="cls-3" x1="502.7" y1="5.92" x2="502.7" y2="419.98"/><line class="cls-2" x1="626.92" y1="5.92" x2="626.92" y2="419.98"/><line class="cls-3" x1="613.12" y1="5.92" x2="613.12" y2="419.98"/><line class="cls-3" x1="599.32" y1="5.92" x2="599.32" y2="419.98"/><line class="cls-3" x1="585.52" y1="5.92" x2="585.52" y2="419.98"/><line class="cls-3" x1="571.71" y1="5.92" x2="571.71" y2="419.98"/><line class="cls-2" x1="695.94" y1="5.92" x2="695.93" y2="419.98"/><line class="cls-3" x1="682.13" y1="5.92" x2="682.13" y2="419.98"/><line class="cls-3" x1="668.33" y1="5.92" x2="668.33" y2="419.98"/><line class="cls-3" x1="654.53" y1="5.92" x2="654.53" y2="419.98"/><line class="cls-3" x1="640.73" y1="5.92" x2="640.73" y2="419.98"/><line class="cls-2" x1="764.95" y1="5.92" x2="764.95" y2="419.98"/><line class="cls-3" x1="751.14" y1="5.92" x2="751.14" y2="419.98"/><line class="cls-3" x1="737.34" y1="5.92" x2="737.34" y2="419.98"/><line class="cls-3" x1="723.54" y1="5.92" x2="723.54" y2="419.98"/><line class="cls-3" x1="709.74" y1="5.92" x2="709.74" y2="419.98"/><line class="cls-2" x1="833.96" y1="5.92" x2="833.96" y2="419.98"/><line class="cls-3" x1="820.16" y1="5.92" x2="820.15" y2="419.98"/><line class="cls-3" x1="806.35" y1="5.92" x2="806.35" y2="419.98"/><line class="cls-3" x1="792.55" y1="5.92" x2="792.55" y2="419.98"/><line class="cls-3" x1="778.75" y1="5.92" x2="778.75" y2="419.98"/><line class="cls-2" x1="902.97" y1="5.92" x2="902.97" y2="419.98"/><line class="cls-3" x1="889.17" y1="5.92" x2="889.17" y2="419.98"/><line class="cls-3" x1="875.36" y1="5.92" x2="875.36" y2="419.98"/><line class="cls-3" x1="861.56" y1="5.92" x2="861.56" y2="419.98"/><line class="cls-3" x1="847.76" y1="5.92" x2="847.76" y2="419.98"/><line class="cls-2" x1="971.98" y1="5.92" x2="971.98" y2="419.98"/><line class="cls-3" x1="958.18" y1="5.92" x2="958.18" y2="419.98"/><line class="cls-3" x1="944.38" y1="5.92" x2="944.37" y2="419.98"/><line class="cls-3" x1="930.57" y1="5.92" x2="930.57" y2="419.98"/><line class="cls-3" x1="916.77" y1="5.92" x2="916.77" y2="419.98"/><line class="cls-2" x1="1040.99" y1="5.92" x2="1040.99" y2="419.98"/><line class="cls-3" x1="1027.19" y1="5.92" x2="1027.19" y2="419.98"/><line class="cls-3" x1="1013.39" y1="5.92" x2="1013.39" y2="419.98"/><line class="cls-3" x1="999.58" y1="5.92" x2="999.58" y2="419.98"/><line class="cls-3" x1="985.78" y1="5.92" x2="985.78" y2="419.98"/><line class="cls-2" x1="1110" y1="5.92" x2="1110" y2="419.98"/><line class="cls-3" x1="1096.2" y1="5.92" x2="1096.2" y2="419.98"/><line class="cls-3" x1="1082.4" y1="5.92" x2="1082.4" y2="419.98"/><line class="cls-3" x1="1068.6" y1="5.92" x2="1068.59" y2="419.98"/><line class="cls-3" x1="1054.79" y1="5.92" x2="1054.79" y2="419.98"/><line class="cls-2" x1="1179.01" y1="5.92" x2="1179.01" y2="419.98"/><line class="cls-3" x1="1165.21" y1="5.92" x2="1165.21" y2="419.98"/><line class="cls-3" x1="1151.41" y1="5.92" x2="1151.41" y2="419.98"/><line class="cls-3" x1="1137.61" y1="5.92" x2="1137.61" y2="419.98"/><line class="cls-3" x1="1123.8" y1="5.92" x2="1123.8" y2="419.98"/><line class="cls-2" x1="1248.02" y1="5.92" x2="1248.02" y2="419.98"/><line class="cls-3" x1="1234.22" y1="5.92" x2="1234.22" y2="419.98"/><line class="cls-3" x1="1220.42" y1="5.92" x2="1220.42" y2="419.98"/><line class="cls-3" x1="1206.62" y1="5.92" x2="1206.62" y2="419.98"/><line class="cls-3" x1="1192.82" y1="5.92" x2="1192.81" y2="419.98"/><line class="cls-2" x1="1317.04" y1="5.92" x2="1317.04" y2="419.98"/><line class="cls-3" x1="1303.23" y1="5.92" x2="1303.23" y2="419.98"/><line class="cls-3" x1="1289.43" y1="5.92" x2="1289.43" y2="419.98"/><line class="cls-3" x1="1275.63" y1="5.92" x2="1275.63" y2="419.98"/><line class="cls-3" x1="1261.83" y1="5.92" x2="1261.83" y2="419.98"/><line class="cls-2" x1="5.82" y1="5.92" x2="1317.04" y2="5.92"/><line class="cls-4" x1="5.82" y1="19.72" x2="1317.04" y2="19.72"/><line class="cls-4" x1="5.82" y1="33.52" x2="1317.04" y2="33.52"/><line class="cls-4" x1="5.82" y1="47.32" x2="1317.04" y2="47.32"/><line class="cls-4" x1="5.82" y1="61.13" x2="1317.04" y2="61.13"/><line class="cls-2" x1="5.82" y1="74.93" x2="1317.04" y2="74.93"/><line class="cls-2" x1="5.82" y1="281.96" x2="1317.04" y2="281.96"/><line class="cls-4" x1="5.82" y1="295.76" x2="1317.04" y2="295.76"/><line class="cls-4" x1="5.82" y1="309.57" x2="1317.04" y2="309.57"/><line class="cls-4" x1="5.82" y1="323.37" x2="1317.04" y2="323.37"/><line class="cls-4" x1="5.82" y1="337.17" x2="1317.04" y2="337.17"/><line class="cls-2" x1="5.82" y1="350.97" x2="1317.04" y2="350.97"/><line class="cls-4" x1="5.82" y1="364.78" x2="1317.04" y2="364.78"/><line class="cls-4" x1="5.82" y1="378.58" x2="1317.04" y2="378.58"/><line class="cls-4" x1="5.82" y1="392.38" x2="1317.04" y2="392.38"/><line class="cls-4" x1="5.82" y1="406.18" x2="1317.04" y2="406.18"/><line class="cls-2" x1="5.82" y1="419.98" x2="1317.04" y2="419.98"/><line class="cls-4" x1="5.82" y1="88.73" x2="1317.04" y2="88.73"/><line class="cls-4" x1="5.82" y1="102.53" x2="1317.04" y2="102.53"/><line class="cls-4" x1="5.82" y1="116.33" x2="1317.04" y2="116.33"/><line class="cls-4" x1="5.82" y1="130.14" x2="1317.04" y2="130.14"/><line class="cls-2" x1="5.82" y1="143.94" x2="1317.04" y2="143.94"/><line class="cls-4" x1="5.82" y1="157.74" x2="1317.04" y2="157.74"/><line class="cls-4" x1="5.82" y1="171.54" x2="1317.04" y2="171.54"/><line class="cls-4" x1="5.82" y1="185.35" x2="1317.04" y2="185.35"/><line class="cls-4" x1="5.82" y1="199.15" x2="1317.04" y2="199.15"/><line class="cls-2" x1="5.82" y1="212.95" x2="1317.04" y2="212.95"/><line class="cls-4" x1="5.82" y1="226.75" x2="1317.04" y2="226.75"/><line class="cls-4" x1="5.82" y1="240.55" x2="1317.04" y2="240.55"/><line class="cls-4" x1="5.82" y1="254.36" x2="1317.04" y2="254.36"/><line class="cls-4" x1="5.82" y1="268.16" x2="1317.04" y2="268.16"/><line class="cls-5" y1="5.92" x2="11.83" y2="5.92"/><line class="cls-5" x1="5.92" x2="5.92" y2="11.83"/><line class="cls-5" x1="69.01" y1="5.92" x2="80.84" y2="5.92"/><line class="cls-5" x1="74.92" x2="74.92" y2="11.83"/><line class="cls-5" x1="138.01" y1="5.92" x2="149.85" y2="5.92"/><line class="cls-5" x1="143.93" x2="143.93" y2="11.83"/><line class="cls-5" x1="207.02" y1="5.92" x2="218.85" y2="5.92"/><line class="cls-5" x1="212.94" x2="212.94" y2="11.83"/><line class="cls-5" x1="276.02" y1="5.92" x2="287.86" y2="5.92"/><line class="cls-5" x1="281.94" x2="281.94" y2="11.83"/><line class="cls-5" x1="345.03" y1="5.92" x2="356.86" y2="5.92"/><line class="cls-5" x1="350.95" x2="350.95" y2="11.83"/><line class="cls-5" x1="414.04" y1="5.92" x2="425.87" y2="5.92"/><line class="cls-5" x1="419.95" x2="419.95" y2="11.83"/><line class="cls-5" x1="483.04" y1="5.92" x2="494.88" y2="5.92"/><line class="cls-5" x1="488.96" x2="488.96" y2="11.83"/><line class="cls-5" y1="74.93" x2="11.83" y2="74.93"/><line class="cls-5" x1="5.92" y1="69.01" x2="5.92" y2="80.84"/><line class="cls-5" x1="69.01" y1="74.93" x2="80.84" y2="74.93"/><line class="cls-5" x1="74.92" y1="69.01" x2="74.92" y2="80.84"/><line class="cls-5" x1="138.01" y1="74.93" x2="149.85" y2="74.93"/><line class="cls-5" x1="143.93" y1="69.01" x2="143.93" y2="80.84"/><line class="cls-5" x1="207.02" y1="74.93" x2="218.85" y2="74.93"/><line class="cls-5" x1="212.94" y1="69.01" x2="212.94" y2="80.84"/><line class="cls-5" x1="276.02" y1="74.93" x2="287.86" y2="74.93"/><line class="cls-5" x1="281.94" y1="69.01" x2="281.94" y2="80.84"/><line class="cls-5" x1="345.03" y1="74.93" x2="356.86" y2="74.93"/><line class="cls-5" x1="350.95" y1="69.01" x2="350.95" y2="80.84"/><line class="cls-5" x1="414.04" y1="74.93" x2="425.87" y2="74.93"/><line class="cls-5" x1="419.95" y1="69.01" x2="419.95" y2="80.84"/><line class="cls-5" x1="483.04" y1="74.93" x2="494.88" y2="74.93"/><line class="cls-5" x1="488.96" y1="69.01" x2="488.96" y2="80.84"/><line class="cls-5" y1="143.94" x2="11.83" y2="143.94"/><line class="cls-5" x1="5.92" y1="138.02" x2="5.92" y2="149.86"/><line class="cls-5" x1="69.01" y1="143.94" x2="80.84" y2="143.94"/><line class="cls-5" x1="74.92" y1="138.02" x2="74.92" y2="149.86"/><line class="cls-5" x1="138.01" y1="143.94" x2="149.85" y2="143.94"/><line class="cls-5" x1="143.93" y1="138.02" x2="143.93" y2="149.86"/><line class="cls-5" x1="207.02" y1="143.94" x2="218.85" y2="143.94"/><line class="cls-5" x1="212.94" y1="138.02" x2="212.94" y2="149.86"/><line class="cls-5" x1="276.02" y1="143.94" x2="287.86" y2="143.94"/><line class="cls-5" x1="281.94" y1="138.02" x2="281.94" y2="149.86"/><line class="cls-5" x1="345.03" y1="143.94" x2="356.86" y2="143.94"/><line class="cls-5" x1="350.95" y1="138.02" x2="350.95" y2="149.86"/><line class="cls-5" x1="414.04" y1="143.94" x2="425.87" y2="143.94"/><line class="cls-5" x1="419.95" y1="138.02" x2="419.95" y2="149.86"/><line class="cls-5" x1="483.04" y1="143.94" x2="494.88" y2="143.94"/><line class="cls-5" x1="488.96" y1="138.02" x2="488.96" y2="149.86"/><line class="cls-5" y1="212.95" x2="11.83" y2="212.95"/><line class="cls-5" x1="5.92" y1="207.03" x2="5.92" y2="218.87"/><line class="cls-5" x1="69.01" y1="212.95" x2="80.84" y2="212.95"/><line class="cls-5" x1="74.92" y1="207.03" x2="74.92" y2="218.87"/><line class="cls-5" x1="138.01" y1="212.95" x2="149.85" y2="212.95"/><line class="cls-5" x1="143.93" y1="207.03" x2="143.93" y2="218.87"/><line class="cls-5" x1="207.02" y1="212.95" x2="218.85" y2="212.95"/><line class="cls-5" x1="212.94" y1="207.03" x2="212.94" y2="218.87"/><line class="cls-5" x1="276.02" y1="212.95" x2="287.86" y2="212.95"/><line class="cls-5" x1="281.94" y1="207.03" x2="281.94" y2="218.87"/><line class="cls-5" x1="345.03" y1="212.95" x2="356.86" y2="212.95"/><line class="cls-5" x1="350.95" y1="207.03" x2="350.95" y2="218.87"/><line class="cls-5" x1="414.04" y1="212.95" x2="425.87" y2="212.95"/><line class="cls-5" x1="419.95" y1="207.03" x2="419.95" y2="218.87"/><line class="cls-5" x1="483.04" y1="212.95" x2="494.88" y2="212.95"/><line class="cls-5" x1="488.96" y1="207.03" x2="488.96" y2="218.87"/><line class="cls-5" y1="281.96" x2="11.83" y2="281.96"/><line class="cls-5" x1="5.92" y1="276.04" x2="5.92" y2="287.88"/><line class="cls-5" x1="69.01" y1="281.96" x2="80.84" y2="281.96"/><line class="cls-5" x1="74.92" y1="276.04" x2="74.92" y2="287.88"/><line class="cls-5" x1="138.01" y1="281.96" x2="149.85" y2="281.96"/><line class="cls-5" x1="143.93" y1="276.04" x2="143.93" y2="287.88"/><line class="cls-5" x1="207.02" y1="281.96" x2="218.85" y2="281.96"/><line class="cls-5" x1="212.94" y1="276.04" x2="212.94" y2="287.88"/><line class="cls-5" x1="276.02" y1="281.96" x2="287.86" y2="281.96"/><line class="cls-5" x1="281.94" y1="276.04" x2="281.94" y2="287.88"/><line class="cls-5" x1="345.03" y1="281.96" x2="356.86" y2="281.96"/><line class="cls-5" x1="350.95" y1="276.04" x2="350.95" y2="287.88"/><line class="cls-5" x1="414.04" y1="281.96" x2="425.87" y2="281.96"/><line class="cls-5" x1="419.95" y1="276.04" x2="419.95" y2="287.88"/><line class="cls-5" x1="483.04" y1="281.96" x2="494.88" y2="281.96"/><line class="cls-5" x1="488.96" y1="276.04" x2="488.96" y2="287.88"/><line class="cls-5" y1="350.97" x2="11.83" y2="350.97"/><line class="cls-5" x1="5.92" y1="345.06" x2="5.92" y2="356.89"/><line class="cls-5" x1="69.01" y1="350.97" x2="80.84" y2="350.97"/><line class="cls-5" x1="74.92" y1="345.06" x2="74.92" y2="356.89"/><line class="cls-5" x1="138.01" y1="350.97" x2="149.85" y2="350.97"/><line class="cls-5" x1="143.93" y1="345.06" x2="143.93" y2="356.89"/><line class="cls-5" x1="207.02" y1="350.97" x2="218.85" y2="350.97"/><line class="cls-5" x1="212.94" y1="345.06" x2="212.94" y2="356.89"/><line class="cls-5" x1="276.02" y1="350.97" x2="287.86" y2="350.97"/><line class="cls-5" x1="281.94" y1="345.06" x2="281.94" y2="356.89"/><line class="cls-5" x1="345.03" y1="350.97" x2="356.86" y2="350.97"/><line class="cls-5" x1="350.95" y1="345.06" x2="350.95" y2="356.89"/><line class="cls-5" x1="414.04" y1="350.97" x2="425.87" y2="350.97"/><line class="cls-5" x1="419.95" y1="345.06" x2="419.95" y2="356.89"/><line class="cls-5" x1="483.04" y1="350.97" x2="494.88" y2="350.97"/><line class="cls-5" x1="488.96" y1="345.06" x2="488.96" y2="356.89"/><line class="cls-5" y1="419.98" x2="11.83" y2="419.98"/><line class="cls-5" x1="5.92" y1="414.07" x2="5.92" y2="425.9"/><line class="cls-5" x1="69.01" y1="419.98" x2="80.84" y2="419.98"/><line class="cls-5" x1="74.92" y1="414.07" x2="74.92" y2="425.9"/><line class="cls-5" x1="138.01" y1="419.98" x2="149.85" y2="419.98"/><line class="cls-5" x1="143.93" y1="414.07" x2="143.93" y2="425.9"/><line class="cls-5" x1="207.02" y1="419.98" x2="218.85" y2="419.98"/><line class="cls-5" x1="212.94" y1="414.07" x2="212.94" y2="425.9"/><line class="cls-5" x1="276.02" y1="419.98" x2="287.86" y2="419.98"/><line class="cls-5" x1="281.94" y1="414.07" x2="281.94" y2="425.9"/><line class="cls-5" x1="345.03" y1="419.98" x2="356.86" y2="419.98"/><line class="cls-5" x1="350.95" y1="414.07" x2="350.95" y2="425.9"/><line class="cls-5" x1="414.04" y1="419.98" x2="425.87" y2="419.98"/><line class="cls-5" x1="419.95" y1="414.07" x2="419.95" y2="425.9"/><line class="cls-5" x1="483.04" y1="419.98" x2="494.88" y2="419.98"/><line class="cls-5" x1="488.96" y1="414.07" x2="488.96" y2="425.9"/><line class="cls-5" x1="552.05" y1="5.92" x2="563.88" y2="5.92"/><line class="cls-5" x1="557.97" x2="557.97" y2="11.83"/><line class="cls-5" x1="552.05" y1="74.93" x2="563.88" y2="74.93"/><line class="cls-5" x1="557.97" y1="69.01" x2="557.97" y2="80.84"/><line class="cls-5" x1="552.05" y1="143.94" x2="563.88" y2="143.94"/><line class="cls-5" x1="557.97" y1="138.02" x2="557.97" y2="149.86"/><line class="cls-5" x1="552.05" y1="212.95" x2="563.88" y2="212.95"/><line class="cls-5" x1="557.97" y1="207.03" x2="557.97" y2="218.87"/><line class="cls-5" x1="552.05" y1="281.96" x2="563.88" y2="281.96"/><line class="cls-5" x1="557.97" y1="276.04" x2="557.97" y2="287.88"/><line class="cls-5" x1="552.05" y1="350.97" x2="563.88" y2="350.97"/><line class="cls-5" x1="557.97" y1="345.06" x2="557.97" y2="356.89"/><line class="cls-5" x1="552.05" y1="419.98" x2="563.88" y2="419.98"/><line class="cls-5" x1="557.97" y1="414.07" x2="557.97" y2="425.9"/><line class="cls-5" x1="621.06" y1="5.92" x2="632.89" y2="5.92"/><line class="cls-5" x1="626.97" x2="626.97" y2="11.83"/><line class="cls-5" x1="621.06" y1="74.93" x2="632.89" y2="74.93"/><line class="cls-5" x1="626.97" y1="69.01" x2="626.97" y2="80.84"/><line class="cls-5" x1="621.06" y1="143.94" x2="632.89" y2="143.94"/><line class="cls-5" x1="626.97" y1="138.02" x2="626.97" y2="149.86"/><line class="cls-5" x1="621.06" y1="212.95" x2="632.89" y2="212.95"/><line class="cls-5" x1="626.97" y1="207.03" x2="626.97" y2="218.87"/><line class="cls-5" x1="621.06" y1="281.96" x2="632.89" y2="281.96"/><line class="cls-5" x1="626.97" y1="276.04" x2="626.97" y2="287.88"/><line class="cls-5" x1="621.06" y1="350.97" x2="632.89" y2="350.97"/><line class="cls-5" x1="626.97" y1="345.06" x2="626.97" y2="356.89"/><line class="cls-5" x1="621.06" y1="419.98" x2="632.89" y2="419.98"/><line class="cls-5" x1="626.97" y1="414.07" x2="626.97" y2="425.9"/><line class="cls-5" x1="690.06" y1="5.92" x2="701.9" y2="5.92"/><line class="cls-5" x1="695.98" x2="695.98" y2="11.83"/><line class="cls-5" x1="690.06" y1="74.93" x2="701.9" y2="74.93"/><line class="cls-5" x1="695.98" y1="69.01" x2="695.98" y2="80.84"/><line class="cls-5" x1="690.06" y1="143.94" x2="701.9" y2="143.94"/><line class="cls-5" x1="695.98" y1="138.02" x2="695.98" y2="149.86"/><line class="cls-5" x1="690.06" y1="212.95" x2="701.9" y2="212.95"/><line class="cls-5" x1="695.98" y1="207.03" x2="695.98" y2="218.87"/><line class="cls-5" x1="690.06" y1="281.96" x2="701.9" y2="281.96"/><line class="cls-5" x1="695.98" y1="276.04" x2="695.98" y2="287.88"/><line class="cls-5" x1="690.06" y1="350.97" x2="701.9" y2="350.97"/><line class="cls-5" x1="695.98" y1="345.06" x2="695.98" y2="356.89"/><line class="cls-5" x1="690.06" y1="419.98" x2="701.9" y2="419.98"/><line class="cls-5" x1="695.98" y1="414.07" x2="695.98" y2="425.9"/><line class="cls-5" x1="759.07" y1="5.92" x2="770.9" y2="5.92"/><line class="cls-5" x1="764.99" x2="764.99" y2="11.83"/><line class="cls-5" x1="759.07" y1="74.93" x2="770.9" y2="74.93"/><line class="cls-5" x1="764.99" y1="69.01" x2="764.99" y2="80.84"/><line class="cls-5" x1="759.07" y1="143.94" x2="770.9" y2="143.94"/><line class="cls-5" x1="764.99" y1="138.02" x2="764.99" y2="149.86"/><line class="cls-5" x1="759.07" y1="212.95" x2="770.9" y2="212.95"/><line class="cls-5" x1="764.99" y1="207.03" x2="764.99" y2="218.87"/><line class="cls-5" x1="759.07" y1="281.96" x2="770.9" y2="281.96"/><line class="cls-5" x1="764.99" y1="276.04" x2="764.99" y2="287.88"/><line class="cls-5" x1="759.07" y1="350.97" x2="770.9" y2="350.97"/><line class="cls-5" x1="764.99" y1="345.06" x2="764.99" y2="356.89"/><line class="cls-5" x1="759.07" y1="419.98" x2="770.9" y2="419.98"/><line class="cls-5" x1="764.99" y1="414.07" x2="764.99" y2="425.9"/><line class="cls-5" x1="828.07" y1="5.92" x2="839.91" y2="5.92"/><line class="cls-5" x1="833.99" x2="833.99" y2="11.83"/><line class="cls-5" x1="828.07" y1="74.93" x2="839.91" y2="74.93"/><line class="cls-5" x1="833.99" y1="69.01" x2="833.99" y2="80.84"/><line class="cls-5" x1="828.07" y1="143.94" x2="839.91" y2="143.94"/><line class="cls-5" x1="833.99" y1="138.02" x2="833.99" y2="149.86"/><line class="cls-5" x1="828.07" y1="212.95" x2="839.91" y2="212.95"/><line class="cls-5" x1="833.99" y1="207.03" x2="833.99" y2="218.87"/><line class="cls-5" x1="828.07" y1="281.96" x2="839.91" y2="281.96"/><line class="cls-5" x1="833.99" y1="276.04" x2="833.99" y2="287.88"/><line class="cls-5" x1="828.07" y1="350.97" x2="839.91" y2="350.97"/><line class="cls-5" x1="833.99" y1="345.06" x2="833.99" y2="356.89"/><line class="cls-5" x1="828.07" y1="419.98" x2="839.91" y2="419.98"/><line class="cls-5" x1="833.99" y1="414.07" x2="833.99" y2="425.9"/><line class="cls-5" x1="897.08" y1="5.92" x2="908.91" y2="5.92"/><line class="cls-5" x1="903" x2="903" y2="11.83"/><line class="cls-5" x1="897.08" y1="74.93" x2="908.91" y2="74.93"/><line class="cls-5" x1="903" y1="69.01" x2="903" y2="80.84"/><line class="cls-5" x1="897.08" y1="143.94" x2="908.91" y2="143.94"/><line class="cls-5" x1="903" y1="138.02" x2="903" y2="149.86"/><line class="cls-5" x1="897.08" y1="212.95" x2="908.91" y2="212.95"/><line class="cls-5" x1="903" y1="207.03" x2="903" y2="218.87"/><line class="cls-5" x1="897.08" y1="281.96" x2="908.91" y2="281.96"/><line class="cls-5" x1="903" y1="276.04" x2="903" y2="287.88"/><line class="cls-5" x1="897.08" y1="350.97" x2="908.91" y2="350.97"/><line class="cls-5" x1="903" y1="345.06" x2="903" y2="356.89"/><line class="cls-5" x1="897.08" y1="419.98" x2="908.91" y2="419.98"/><line class="cls-5" x1="903" y1="414.07" x2="903" y2="425.9"/><line class="cls-5" x1="966.09" y1="5.92" x2="977.92" y2="5.92"/><line class="cls-5" x1="972" x2="972" y2="11.83"/><line class="cls-5" x1="966.09" y1="74.93" x2="977.92" y2="74.93"/><line class="cls-5" x1="972" y1="69.01" x2="972" y2="80.84"/><line class="cls-5" x1="966.09" y1="143.94" x2="977.92" y2="143.94"/><line class="cls-5" x1="972" y1="138.02" x2="972" y2="149.86"/><line class="cls-5" x1="966.09" y1="212.95" x2="977.92" y2="212.95"/><line class="cls-5" x1="972" y1="207.03" x2="972" y2="218.87"/><line class="cls-5" x1="966.09" y1="281.96" x2="977.92" y2="281.96"/><line class="cls-5" x1="972" y1="276.04" x2="972" y2="287.88"/><line class="cls-5" x1="966.09" y1="350.97" x2="977.92" y2="350.97"/><line class="cls-5" x1="972" y1="345.06" x2="972" y2="356.89"/><line class="cls-5" x1="966.09" y1="419.98" x2="977.92" y2="419.98"/><line class="cls-5" x1="972" y1="414.07" x2="972" y2="425.9"/><line class="cls-5" x1="1035.09" y1="5.92" x2="1046.93" y2="5.92"/><line class="cls-5" x1="1041.01" x2="1041.01" y2="11.83"/><line class="cls-5" x1="1035.09" y1="74.93" x2="1046.93" y2="74.93"/><line class="cls-5" x1="1041.01" y1="69.01" x2="1041.01" y2="80.84"/><line class="cls-5" x1="1035.09" y1="143.94" x2="1046.93" y2="143.94"/><line class="cls-5" x1="1041.01" y1="138.02" x2="1041.01" y2="149.86"/><line class="cls-5" x1="1035.09" y1="212.95" x2="1046.93" y2="212.95"/><line class="cls-5" x1="1041.01" y1="207.03" x2="1041.01" y2="218.87"/><line class="cls-5" x1="1035.09" y1="281.96" x2="1046.93" y2="281.96"/><line class="cls-5" x1="1041.01" y1="276.04" x2="1041.01" y2="287.88"/><line class="cls-5" x1="1035.09" y1="350.97" x2="1046.93" y2="350.97"/><line class="cls-5" x1="1041.01" y1="345.06" x2="1041.01" y2="356.89"/><line class="cls-5" x1="1035.09" y1="419.98" x2="1046.93" y2="419.98"/><line class="cls-5" x1="1041.01" y1="414.07" x2="1041.01" y2="425.9"/><line class="cls-5" x1="1104.1" y1="5.92" x2="1115.93" y2="5.92"/><line class="cls-5" x1="1110.02" x2="1110.02" y2="11.83"/><line class="cls-5" x1="1104.1" y1="74.93" x2="1115.93" y2="74.93"/><line class="cls-5" x1="1110.02" y1="69.01" x2="1110.02" y2="80.84"/><line class="cls-5" x1="1104.1" y1="143.94" x2="1115.93" y2="143.94"/><line class="cls-5" x1="1110.02" y1="138.02" x2="1110.02" y2="149.86"/><line class="cls-5" x1="1104.1" y1="212.95" x2="1115.93" y2="212.95"/><line class="cls-5" x1="1110.02" y1="207.03" x2="1110.02" y2="218.87"/><line class="cls-5" x1="1104.1" y1="281.96" x2="1115.93" y2="281.96"/><line class="cls-5" x1="1110.02" y1="276.04" x2="1110.02" y2="287.88"/><line class="cls-5" x1="1104.1" y1="350.97" x2="1115.93" y2="350.97"/><line class="cls-5" x1="1110.02" y1="345.06" x2="1110.02" y2="356.89"/><line class="cls-5" x1="1104.1" y1="419.98" x2="1115.93" y2="419.98"/><line class="cls-5" x1="1110.02" y1="414.07" x2="1110.02" y2="425.9"/><line class="cls-5" x1="1173.11" y1="5.92" x2="1184.94" y2="5.92"/><line class="cls-5" x1="1179.02" x2="1179.02" y2="11.83"/><line class="cls-5" x1="1173.11" y1="74.93" x2="1184.94" y2="74.93"/><line class="cls-5" x1="1179.02" y1="69.01" x2="1179.02" y2="80.84"/><line class="cls-5" x1="1173.11" y1="143.94" x2="1184.94" y2="143.94"/><line class="cls-5" x1="1179.02" y1="138.02" x2="1179.02" y2="149.86"/><line class="cls-5" x1="1173.11" y1="212.95" x2="1184.94" y2="212.95"/><line class="cls-5" x1="1179.02" y1="207.03" x2="1179.02" y2="218.87"/><line class="cls-5" x1="1173.11" y1="281.96" x2="1184.94" y2="281.96"/><line class="cls-5" x1="1179.02" y1="276.04" x2="1179.02" y2="287.88"/><line class="cls-5" x1="1173.11" y1="350.97" x2="1184.94" y2="350.97"/><line class="cls-5" x1="1179.02" y1="345.06" x2="1179.02" y2="356.89"/><line class="cls-5" x1="1173.11" y1="419.98" x2="1184.94" y2="419.98"/><line class="cls-5" x1="1179.02" y1="414.07" x2="1179.02" y2="425.9"/><line class="cls-5" x1="1242.11" y1="5.92" x2="1253.95" y2="5.92"/><line class="cls-5" x1="1248.03" x2="1248.03" y2="11.83"/><line class="cls-5" x1="1242.11" y1="74.93" x2="1253.95" y2="74.93"/><line class="cls-5" x1="1248.03" y1="69.01" x2="1248.03" y2="80.84"/><line class="cls-5" x1="1242.11" y1="143.94" x2="1253.95" y2="143.94"/><line class="cls-5" x1="1248.03" y1="138.02" x2="1248.03" y2="149.86"/><line class="cls-5" x1="1242.11" y1="212.95" x2="1253.95" y2="212.95"/><line class="cls-5" x1="1248.03" y1="207.03" x2="1248.03" y2="218.87"/><line class="cls-5" x1="1242.11" y1="281.96" x2="1253.95" y2="281.96"/><line class="cls-5" x1="1248.03" y1="276.04" x2="1248.03" y2="287.88"/><line class="cls-5" x1="1242.11" y1="350.97" x2="1253.95" y2="350.97"/><line class="cls-5" x1="1248.03" y1="345.06" x2="1248.03" y2="356.89"/><line class="cls-5" x1="1242.11" y1="419.98" x2="1253.95" y2="419.98"/><line class="cls-5" x1="1248.03" y1="414.07" x2="1248.03" y2="425.9"/><line class="cls-5" x1="1311.12" y1="5.92" x2="1322.95" y2="5.92"/><line class="cls-5" x1="1317.04" x2="1317.04" y2="11.83"/><line class="cls-5" x1="1311.12" y1="74.93" x2="1322.95" y2="74.93"/><line class="cls-5" x1="1317.04" y1="69.01" x2="1317.04" y2="80.84"/><line class="cls-5" x1="1311.12" y1="143.94" x2="1322.95" y2="143.94"/><line class="cls-5" x1="1317.04" y1="138.02" x2="1317.04" y2="149.86"/><line class="cls-5" x1="1311.12" y1="212.95" x2="1322.95" y2="212.95"/><line class="cls-5" x1="1317.04" y1="207.03" x2="1317.04" y2="218.87"/><line class="cls-5" x1="1311.12" y1="281.96" x2="1322.95" y2="281.96"/><line class="cls-5" x1="1317.04" y1="276.04" x2="1317.04" y2="287.88"/><line class="cls-5" x1="1311.12" y1="350.97" x2="1322.95" y2="350.97"/><line class="cls-5" x1="1317.04" y1="345.06" x2="1317.04" y2="356.89"/><line class="cls-5" x1="1311.12" y1="419.98" x2="1322.95" y2="419.98"/><line class="cls-5" x1="1317.04" y1="414.07" x2="1317.04" y2="425.9"/></g></svg>