<svg id="Layer_1" data-name="Layer 1" xmlns="http://www.w3.org/2000/svg" viewBox="0 0 83.19 83.19"><defs><style>.cls-1{fill:#fff;}</style></defs><title>TCT_Landing Page</title><path class="cls-1" d="M51.43,41.59a9.82,9.82,0,1,0-9.82,9.84A9.76,9.76,0,0,0,51.43,41.59Zm-2.84,0a6.93,6.93,0,0,1-2.08,4.94,6.83,6.83,0,0,1-4.85,2.05h-.09a7,7,0,0,1-7-7,7.05,7.05,0,0,1,7-7A7,7,0,0,1,48.59,41.6Z"/><path class="cls-1" d="M28.37,26.62l1.12,1.48,3.25,4.31a1.83,1.83,0,0,0,1.42.81A1.52,1.52,0,0,0,35.61,32a1.87,1.87,0,0,0-.42-1.42c-.55-.75-1.12-1.49-1.68-2.23l-1.4-1.87-1-1.39-.24-.32a8,8,0,0,0-.33-10.85,7.9,7.9,0,0,0-12.44,9.5A8,8,0,0,0,28.37,26.62Zm-8.28-7.07a4.88,4.88,0,0,1,1.43-3.47,4.77,4.77,0,0,1,3.39-1.42A4.83,4.83,0,0,1,25,24.31h-.05a4.82,4.82,0,0,1-3.39-1.39A4.77,4.77,0,0,1,20.09,19.55Z"/><path class="cls-1" d="M54.82,56.57l-1.77-2.34L52.2,53.1,52.11,53c-.58-.78-1.17-1.56-1.76-2.33a1.56,1.56,0,0,0-2.18-.38,1.54,1.54,0,0,0-.3,2.19l.24.32,4.25,5.63a8,8,0,0,0,.5,11A7.9,7.9,0,0,0,65.2,59.91,8,8,0,0,0,54.82,56.57Zm8.29,7.09a4.82,4.82,0,0,1-9.64.12,4.84,4.84,0,0,1,1.4-3.47,4.73,4.73,0,0,1,3.4-1.41A4.82,4.82,0,0,1,63.11,63.66Z"/><path class="cls-1" d="M32.92,50.56c-.16.18-.29.36-.43.55l-4.13,5.48c-4.71-1.52-8.52-.25-10.46,3.48a7.9,7.9,0,1,0,12.93-1.64L33,55.51l.72-.95c.53-.69,1.07-1.41,1.59-2.13a1.52,1.52,0,0,0-.28-2.14A1.56,1.56,0,0,0,32.92,50.56Zm-8,18h0a4.77,4.77,0,0,1-3.37-1.39,4.89,4.89,0,0,1-1.46-3.47,4.82,4.82,0,1,1,4.85,4.86Z"/><path class="cls-1" d="M49.05,33.22a1.71,1.71,0,0,0,1.28-.65l.31-.4,4.19-5.56a7.9,7.9,0,0,0,8.36-13.29A7.91,7.91,0,0,0,52.36,24.78l-2.9,3.84c-.52.69-1.05,1.39-1.56,2.09a1.53,1.53,0,0,0,.25,2.2A1.51,1.51,0,0,0,49.05,33.22ZM61.64,16.07a4.8,4.8,0,0,1-3.4,8.24,4.83,4.83,0,0,1-4.8-4.79,4.86,4.86,0,0,1,4.78-4.85h.05A4.78,4.78,0,0,1,61.64,16.07Z"/><path class="cls-1" d="M21.66,43.14h7.25a2,2,0,0,0,1.41-.51,1.39,1.39,0,0,0,.4-1.05c0-.92-.73-1.51-1.83-1.52h-7.2a8,8,0,0,0-9.07-6.26A8,8,0,0,0,6,41.35a7.88,7.88,0,0,0,6.41,8A8.09,8.09,0,0,0,14,49.5a7.61,7.61,0,0,0,3.76-1A8,8,0,0,0,21.66,43.14Zm-3-1.51a4.81,4.81,0,0,1-4.81,4.8,4.83,4.83,0,0,1,0-9.66,4.7,4.7,0,0,1,3.34,1.38A4.86,4.86,0,0,1,18.7,41.63Z"/><path class="cls-1" d="M70.72,33.83h0a8,8,0,0,0-9.22,6.23H54.23a1.57,1.57,0,0,0-1.76,1.51,1.43,1.43,0,0,0,.5,1.13,1.85,1.85,0,0,0,1.23.42h7.33a8,8,0,0,0,7.82,6.35,7.41,7.41,0,0,0,1.05-.07,8,8,0,0,0,6.77-7.55A7.89,7.89,0,0,0,70.72,33.83Zm-1.46,2.76.07.18a4.87,4.87,0,0,1,4.78,4.86h0A4.82,4.82,0,0,1,65.86,45a5,5,0,0,1-1.36-3.53,4.64,4.64,0,0,1,1.42-3.31,4.77,4.77,0,0,1,3.34-1.38v-.18Z"/></svg>