<svg id="Layer_1" data-name="Layer 1" xmlns="http://www.w3.org/2000/svg" viewBox="0 0 83.19 83.19"><defs><style>.cls-1{fill:#fff;}</style></defs><title>TCT_Landing Page</title><path class="cls-1" d="M41.13,71.6Q28.73,64.51,16.32,57.43a2.21,2.21,0,0,1-1.23-2.13q0-13.72,0-27.44a2.26,2.26,0,0,1,1.28-2.17q12-6.84,24.05-13.74a2.15,2.15,0,0,1,2.36,0q12,6.9,24.1,13.77A2.18,2.18,0,0,1,68.1,27.8q0,13.79,0,27.56a2.15,2.15,0,0,1-1.18,2q-12.06,6.86-24.1,13.76l-.75.43Zm-1.32-4.82c0-.17,0-.26,0-.35q0-11.72,0-23.44a.88.88,0,0,0-.38-.61Q29.29,36.55,19.11,30.75c-.14-.08-.29-.13-.47-.22,0,.19,0,.28,0,.38q0,11.67,0,23.33a.71.71,0,0,0,.46.7L38,65.74Zm3.55,0,.43-.23Q54,60.74,64.18,54.92a.76.76,0,0,0,.4-.8q0-11.49,0-23V30.5l-.64.34q-10,5.75-20.09,11.47a.85.85,0,0,0-.49.86q0,11.49,0,23ZM20.44,27.43l.49.31L41.12,39.28a.86.86,0,0,0,1,0L58.29,30l4.46-2.55c-.13-.09-.2-.15-.29-.2Q52.22,21.41,42,15.54a.73.73,0,0,0-.85.07L22.77,26.1Z"/></svg>