<svg id="Layer_1" data-name="Layer 1" xmlns="http://www.w3.org/2000/svg" viewBox="0 0 500 365"><defs><style>.cls-1{fill:#fff;}</style></defs><title>TCT_Landing Page</title><path class="cls-1" d="M476.61,238.29v47.55c0,11-6.89,18-17.22,18-10,0-16.72-7.38-16.72-18V238.29H421.19V260.9a31.07,31.07,0,0,0-7.62-15.37c-5.58-5.9-12.79-8.85-21.81-8.85-11.15,0-19.51,4.75-25.25,14.26V238.3H345.19v30.29A39.36,39.36,0,0,0,334,248.48c-8.19-7.87-18.69-11.8-31.31-11.8s-23.13,3.93-31.32,11.8a38.93,38.93,0,0,0-11.42,20.22,40,40,0,0,0-11.29-20.18c-8.19-7.87-18.53-11.81-31.12-11.81s-23.14,3.94-31.34,11.81a39,39,0,0,0-12,23.46v-3.33q0-14-8.36-23.12c-5.58-5.9-12.79-8.85-21.81-8.85-11.15,0-19.51,4.75-25.25,14.26V222.12H97.45v16.13H63.5V222.12H42v16.13H17.13V256H42v32.91q0,14,8.37,23.12c5.57,5.91,12.79,8.86,21.8,8.86,11.15,0,19.52-4.76,25.26-14.27v12.74h21.31V271.77c0-11,6.89-18,17.22-18,10,0,16.72,7.38,16.72,18v47.55h21.48V285.74a38.2,38.2,0,0,0,12,23.3c8.2,7.87,18.68,11.81,31.34,11.81a44.41,44.41,0,0,0,26.87-8.55A39.33,39.33,0,0,0,257,297.49l-19-6.87c-3.11,7.33-11.13,12.84-20.43,12.84-11.16,0-20-7.37-22.64-18h64.29a38.34,38.34,0,0,0,12,23.56c8.19,7.87,18.69,11.8,31.32,11.8S325.77,316.86,334,309A38.5,38.5,0,0,0,345.19,289v30.28h21.32V271.77c0-11,6.89-18,17.21-18,10,0,16.73,7.38,16.73,18h20.74V289q0,14,8.36,23.12c5.57,5.9,12.79,8.85,21.8,8.85,11.16,0,19.52-4.75,25.26-14.26V323.4a19.85,19.85,0,0,1-19.85,19.83,19.64,19.64,0,0,1-4.7-.57v19.89a40.5,40.5,0,0,0,4.7.27c13.84,0,26.77-6.27,34.23-16.73,4.8-6.73,6.93-15.54,6.93-24.43V238.29ZM97.45,285.76c0,11-6.89,18-17.22,18-10,0-16.73-7.38-16.73-18V256h34v29.8Zm98.37-16.57a22.92,22.92,0,0,1,21.82-15.09c10.34,0,19.36,6.08,22.65,15.09Zm106.66,33.07c-12.63,0-21.64-9.84-21.64-23.44,0-6.89,2-12.63,6.07-17.06s9.18-6.55,15.57-6.55,11.64,2.13,15.74,6.55,6.07,10.17,6.07,17.06C324.29,292.42,315.11,302.26,302.48,302.26Z"/><path class="cls-1" d="M261,59.06c-.18-12.3-4.26-22.46-12.48-30.5-8.18-7.86-18.52-11.8-31.1-11.8s-23.13,3.94-31.32,11.8a39.09,39.09,0,0,0-12,23.45V48.68q0-14-8.35-23.11c-5.57-5.89-12.78-8.84-21.8-8.84-11.14,0-19.5,4.75-25.23,14.25V2.18H97.4V18.3H63.48V2.18H42V18.3H17.13V36H42V68.89q0,14,8.36,23.11c5.56,5.9,12.78,8.85,21.79,8.85,11.14,0,19.5-4.75,25.24-14.26V99.32h21.3V51.79c0-11,6.88-18,17.2-18,10,0,16.72,7.37,16.72,18V99.32h21.46V65.76a38.23,38.23,0,0,0,12,23.29c8.19,7.86,18.66,11.8,31.32,11.8a44.35,44.35,0,0,0,26.85-8.55,39.11,39.11,0,0,0,12.65-14.8l-18.94-6.86c-3.11,7.33-11.12,12.83-20.42,12.83-11.15,0-20-7.36-22.63-18h65.39A24.36,24.36,0,0,0,261,59.06ZM80.19,83.8c-10,0-16.71-7.37-16.71-18V36H97.4V65.78C97.4,76.76,90.51,83.8,80.19,83.8ZM195.71,49.22a22.91,22.91,0,0,1,21.81-15.08c10.33,0,19.34,6.07,22.63,15.08Z"/><path class="cls-1" d="M286,127.58a33.44,33.44,0,0,0-4.52-8.74,18.09,18.09,0,0,0-7.44-5.72h0c-.65-.29-4-1.27-4.21-1.31a29.73,29.73,0,0,0-9-.45,37.89,37.89,0,0,0-11.23,2.84c-.44-.64.37-2.31-1.71-3.8a8,8,0,0,1-.88-.76c-2.17-2.17-3.07-3.68-4.6-4.93-.86-.71-1.61-.28-3.05.61A107.35,107.35,0,0,0,225,117c-18.12,17.34-34.27,43.52-42.14,65.31-2.64,7.33-6.49,19.54,4,36.6,2.39,3.89,5.37,7.92,9.44,10.35,6.35,3.78,13.72,3.32,27.73-3.73,31-15.58,57.94-49,62.92-62C292.59,148.9,290.81,140.7,286,127.58Zm-38,57.74c-12,11.17-30.62,28-43,27-7.27-.6-8.82-8.55-6.16-17.86A76.09,76.09,0,0,1,202.64,184a9.12,9.12,0,0,0,7.74-.73c3.38-2.15,15.7-15.63,21.8-21.29s13.17-12.81,20.85-19.21c9-7.52,19.43-10.93,21.45-4.32C278,150,264.21,170.16,248,185.32Z"/><path class="cls-1" d="M497.4,94c-5.39-7.44-10.82-17.79-14.55-21.58a3.8,3.8,0,0,0-4.45-.23c-9.07,7.6-29.18,27.76-52.2,58.41-21.1,28.09-37.28,51.48-48.31,67.29-3.71,5.32-9.56,13.1-13.43,10.16-1.68-1.45-1.51-5.19-1.42-7.47.86-22.16,7-41.32,16.11-58.86,1.48-2.84,1.38-4.51-.8-9-4.54-9.39-4.4-10.36-5.44-13.18-1.22-2.38-2.93-3-4.66-2.19a7.64,7.64,0,0,0-2.24,1.62c-21.77,23.65-43,49.07-64.58,73.79-6.22,6.06-3.44-18.09,6.35-37,19.14-36.88,34.63-48.88,48.94-60.15,1.3-1,2.6-1.31,1.37-3.44s-5.17-8.9-8.44-14.46c-3.11-5.28-4.19-4.06-7.6-1.29-12.81,10.34-28.45,25.78-42.84,49.92C285.14,150,279.87,175.64,276.86,195c-1.23,7.95,3.44,11.2,9.34,18.79,3.08,4,3,6,6.18,8.58,4.23,3.41,9.2-1.91,18-10.81,5.21-5.25,27.79-30,28.71-30.91.52-.53,4.19-4.52,4.9-5.17,1.26-1.17,1.72-.63,1.69.56-.05,2-1.52,10-1.75,16.82-.23,6.44-.37,13.37.55,19.46s2.4,6.72,10.62,13.26c5.12,4.07,5.67,6.39,9.45,8.55,7.75,4.42,14.92-2,22.59-11.09,11.35-13.51,28.43-37.36,46.8-60C456.81,135,474.69,115.89,496.4,98,497.8,96.81,498.45,95.4,497.4,94Z"/><path class="cls-1" d="M110.53,178.25,98.77,165.39c-1.63-1.71-2.63-1.73-4.26-.15-36.33,35.1-57.83,38.88-62.73,39.28l-1.08,0c-7.72.15-13.84-5.85-11.87-13.1,3.75-13.75,17.55-29.9,30.32-43.71,10.26-11.08,23.61-22.36,36.21-25.57a9.44,9.44,0,0,1,10,3.24c4.16,5.54,1.79,13.26.07,17.06-.51,1.15.59,1.78,1.84,1.65a39.54,39.54,0,0,0,13.53-3.74c18.43-9.86,9.12-35.54-7.12-41.15-8.55-2.95-20.15-2.58-28.27,0-19.21,6.11-53.32,37.91-67.22,63.05a46.9,46.9,0,0,0-5.13,32.92c1.71,8.73,4.47,18.34,11.5,24.45,8.29,7.21,20,7.39,30.12,4.68,5.84-1.56,13.31-4.5,24.71-11.39,10.25-6.2,29.72-20.78,41.75-30.28C112.49,181.64,112.57,180.4,110.53,178.25Z"/><path class="cls-1" d="M200.33,127.78c-.13-2.63-.51-3.33-2.24-5.31-4-4.58-7.72-10.45-11.09-10.2a8.68,8.68,0,0,0-1.34.28,22.05,22.05,0,0,0-2.63,1c-12.2,6.62-24.93,16.17-39.28,30.61a112.59,112.59,0,0,0-9.3,10.13c.62-1.86,2.35-6.44,2.54-6.94a178.92,178.92,0,0,1,19.25-35.15c.2-.28,1.92-2.76,2.17-3.22.87-1.62.49-2.6-.42-4.66-1.39-3.15-6.45-10.71-8.74-16.34-1.16-2.86-3.39-2.17-4.77-.27C131.91,105.12,115.94,149,109.65,167c-2.23,5.86-11.61,36.76-12.43,41.7a4,4,0,0,0,.29,2.49c.52,1.19,9.06,12.8,19.3,16.89,4.16,1.66-.64-15.14,15.42-44.94.47-.86,4.14-7.24,5.69-9.66a117.65,117.65,0,0,1,15.53-18.59,139.72,139.72,0,0,1,24.88-19.3l1.23-.72c.92-.44,2.18-.74,3,.14,1.49,1.57-.1,5.92-.55,8.76a65.7,65.7,0,0,0-1,12.6c.14,6.36,3.14,13.44,5.7,17.46,2.37.36,10.48-19,11-21.93.92-3.47.49-6.45,1.31-11.8A91.27,91.27,0,0,0,200.33,127.78Z"/></svg>