<svg id="Layer_1" data-name="Layer 1" xmlns="http://www.w3.org/2000/svg" viewBox="0 0 83.19 83.19"><defs><style>.cls-1{fill:#fff;}</style></defs><title>TCT_Landing Page</title><path class="cls-1" d="M65.32,41.2Q52.62,28.47,39.88,15.76a2.31,2.31,0,0,0-.79-.52c-.9-.36-1.71,0-2.28,1.12l-3.06,5.79L24.53,39.57a4.24,4.24,0,0,1-.68.91l-3.76,3.77c-.88.88-1.77,1.76-2.65,2.66a7.65,7.65,0,0,0-2.19,7.2A1.54,1.54,0,0,1,15,55.34a7.75,7.75,0,0,0,.48,9.39,7.59,7.59,0,0,0,9.32,1.9,4,4,0,0,1,3.3-.6.69.69,0,0,0,.3,0h.22a8.17,8.17,0,0,0,4-1.16l.21-.11L33,65l.11.19a2,2,0,0,0,.23.34c.41.41.82.83,1.24,1.24,1.17,1.2,2.38,2.42,3.63,3.59a4.71,4.71,0,0,0,6.57-.14,4.78,4.78,0,0,0,.11-6.64c-.4-.43-.82-.85-1.24-1.27l-4.15-4.13.24-.19c.24-.17.46-.36.68-.53a9.24,9.24,0,0,1,1.46-1q7.78-4.17,15.58-8.28l7.33-3.87A2.1,2.1,0,0,0,66,42.79,1.87,1.87,0,0,0,65.32,41.2ZM22.23,63.86a4.86,4.86,0,0,1-.9.1,4.06,4.06,0,0,1-2.83-1.14,4.14,4.14,0,0,1-1.28-4l.1-.47,5.39,5.4Zm9.56-2.79a4.57,4.57,0,0,1-3.24,1.49A4.65,4.65,0,0,1,25.26,61L20,55.79a4.33,4.33,0,0,1,0-6.5L24,45.34l1.4-1.4.13-.09.17-.09.18.11L37.39,55.42S33.24,59.63,31.79,61.07Zm10.28,4.65a2.08,2.08,0,0,1,.5.7A1.18,1.18,0,0,1,42,67.87a1.26,1.26,0,0,1-.68.21,1.23,1.23,0,0,1-.9-.41L36.77,64l-1.44-1.45,1.81-1.71.18.16.22.17.54.55Q40.09,63.72,42.07,65.72Zm18.07-23-1.78,1L41,52.89a1.47,1.47,0,0,1-.58.19.75.75,0,0,1-.54-.27c-3-3-6-6-9-9l-2.7-2.7a1.25,1.25,0,0,1-.12-.17l-.17-.22,11-20.8L61.12,42.19Z"/><path class="cls-1" d="M63.52,19.61a.59.59,0,0,1-.05.22,2.81,2.81,0,0,1-.54.83c-1.29,1.37-2.64,2.7-3.93,4a1.75,1.75,0,1,1-2.48-2.47c1.3-1.33,2.66-2.68,4-4a1.64,1.64,0,0,1,1.18-.53,2,2,0,0,1,.74.16A1.86,1.86,0,0,1,63.52,19.61Z"/><path class="cls-1" d="M51.4,17.36a1.74,1.74,0,0,1-1.75,1.77h0a1.74,1.74,0,0,1-1.72-1.77c0-1.48,0-2.8,0-4a1.75,1.75,0,0,1,3.5,0C51.42,13.79,51.41,16.9,51.4,17.36Z"/><path class="cls-1" d="M69.56,31.48a1.78,1.78,0,0,1-1.86,1.78H65.14c-.44,0-.88,0-1.33,0A1.76,1.76,0,0,1,62,31.49a1.74,1.74,0,0,1,1.81-1.74h3.9A1.77,1.77,0,0,1,69.56,31.48Z"/></svg>