<svg id="Layer_1" data-name="Layer 1" xmlns="http://www.w3.org/2000/svg" viewBox="0 0 886.85 886.85"><defs><style>.cls-1{fill:#efc960;}.cls-2{fill:#211d16;}.cls-3{fill:none;stroke:#211d16;stroke-linecap:round;stroke-miterlimit:10;stroke-width:10px;}</style></defs><title>Adpr Memetic Brand Labs</title><path class="cls-1" d="M445.27,239.16s-151.46-.59-185.78,139.64,68.63,223.65,149.69,233.11S661.23,581.74,628.69,380C628.69,380,602.66,242.12,445.27,239.16Z"/><path class="cls-2" d="M302.5,352.48s-.36,30.95,10.23,45.16c8,10.67,19.87,27.39,56.3,17.76s44-39.14,44-51.48V351.57s15.95-5.72,25.89,0c0,0-4.82,58.41,48.77,65s61.41-38.53,61.41-56.29-9.63-38.54-47.26-38.84-49.38,9-56.3,16.86c0,0-22.88-7.83-37.33,3,0,0-10.71-23.13-60.52-19.88C301.58,324.47,302.5,352.48,302.5,352.48Z"/><path class="cls-3" d="M448.91,508s70.67,7.46,71.28-60.16"/><path class="cls-3" d="M502.79,444.5c12.23-1.1,23.69,4,33.58,7.9"/><path class="cls-1" d="M644.18,313s15.41,26.76,43.66,1.11,62.28-67.69,47.55-68.18S683.1,259,658.48,273.46,636.58,300.05,644.18,313Z"/><path class="cls-1" d="M522,217.31s28.73,11.33,34.84-26.34,6.52-91.75-5.31-82.95-32.74,42.82-43,69.47S508,211.94,522,217.31Z"/><path class="cls-1" d="M340.29,218.22s29.55-9,10.95-42.28-51.87-76-55.68-61.72.94,53.9,9.46,81.14S326,222.71,340.29,218.22Z"/><path class="cls-1" d="M223,333.07s17.56-25.41-17.74-39.91-87.87-27.2-82-13.68,34.27,41.61,57.89,57.64S214.58,345.48,223,333.07Z"/><path class="cls-1" d="M210.93,478.51s-5.72-30.35-40.85-15.45S89,506.42,102.71,511.74s53.67,4.89,81.68-.64S213.84,493.22,210.93,478.51Z"/><path class="cls-1" d="M300.67,610.66s-17.75-25.27-43.58,2.82-55.95,73-41.23,72.17,50.9-17.73,74.12-34.34S309.41,622.86,300.67,610.66Z"/><path class="cls-1" d="M448.21,665.09s-30.87-.86-23.78,36.63,25.13,88.49,33.25,76.18,16.19-51.41,16.74-79.95S463.21,665.37,448.21,665.09Z"/><path class="cls-1" d="M600.23,601.42s-25.18,17.87,3,43.57,73.27,55.61,72.37,40.9-18-50.82-34.69-74S612.39,592.63,600.23,601.42Z"/><path class="cls-1" d="M677,453.61s-11.89,28.5,25.65,35.35,91.61,8.33,83-3.67S743.56,451.71,717.12,441,682.69,439.71,677,453.61Z"/></svg>