<svg id="Layer_1" data-name="Layer 1" xmlns="http://www.w3.org/2000/svg" viewBox="0 0 886.85 886.85"><defs><style>.cls-1{fill:#de5f64;}.cls-2{fill:#f2ddb6;}</style></defs><title>Adpr Memetic Brand Labs</title><polygon class="cls-1" points="248 333.02 462.31 334.16 692.3 295.99 734.95 366.4 718.71 437.72 757.19 499.07 477.48 535.27 521.95 550.5 171.48 590.86 129.66 474.23 189.76 360.55 220.12 361.81 248 333.02"/><path class="cls-2" d="M232.67,521.09a7.26,7.26,0,0,0,3.31-1.4,15.38,15.38,0,0,0,2.09-2.11q2.2-2.28,4.3-4.78a36.9,36.9,0,0,0,3.61-5.11q6.24-9.72,12.31-19.5t12-19.44c.83-1.6,1.6-3.15,2.3-4.63s1.48-3,2.31-4.63c.45-.91.89-1.85,1.33-2.82s.94-1.91,1.48-2.84a4,4,0,0,1,.58-.65,3.85,3.85,0,0,0,.57-.65,1.39,1.39,0,0,1,1.33-.41,2.44,2.44,0,0,1,1,.58,6,6,0,0,1,1.2,1.4,2.78,2.78,0,0,0,1.62,1.17,8.61,8.61,0,0,0,1.43,3.46,5,5,0,0,1,.71,3.75,32.81,32.81,0,0,0-.95,5.23c-.16,1.64-.38,3.36-.65,5.17a97.72,97.72,0,0,0-.35,13,49.06,49.06,0,0,0,2.24,12.63,20.74,20.74,0,0,0,2,5,7.72,7.72,0,0,0,4.91,3.34,9.52,9.52,0,0,0,6.17-.63,23.13,23.13,0,0,0,7.66-5.49,46.75,46.75,0,0,0,8.48-12.63,75.79,75.79,0,0,0,5.16-15.43,138.77,138.77,0,0,0,3-16.72,162.24,162.24,0,0,0,1.06-17q-.22-5.24-.1-10.77c.08-3.69,0-7.34-.13-10.93a65.53,65.53,0,0,0-.5-7.13c-.29-2.38-.54-4.9-.73-7.55a6.65,6.65,0,0,0,.35-.61,4.87,4.87,0,0,1,.75-1c.87-1.41,2-1.56,3.32-.48a12.56,12.56,0,0,1,3,3.24,17.91,17.91,0,0,1,1.91,3.91c.48,1.46.89,2.78,1.22,4a25.42,25.42,0,0,1,.71,3.75A165.49,165.49,0,0,1,336.67,441a158.54,158.54,0,0,1-2.26,25.83q-1.61,5.43-2.91,10.89a90.86,90.86,0,0,1-3.36,11,71.07,71.07,0,0,1-12.6,20.41,41.69,41.69,0,0,1-5.56,5.09,28.11,28.11,0,0,1-6.6,3.74,16.16,16.16,0,0,1-8.19,1,15.7,15.7,0,0,1-7.17-3.38q-.39-.39-.84-.78a3,3,0,0,0-1.12-.56,55.6,55.6,0,0,1-8.31-12.72,45,45,0,0,1-4-14.32c-.05-.82-.11-1.53-.17-2.14a11.2,11.2,0,0,0-.47-2.09,2.28,2.28,0,0,0-1.41,1.2c-.26.57-.45,1-.6,1.36q-4,6.66-8,13.24T255.34,512q-2,3.33-4.35,6.57l-4.56,6.3a19.4,19.4,0,0,1-3,3.22q-1.68,1.41-3.25,2.95a11.61,11.61,0,0,1-6.82,2.53,14.31,14.31,0,0,1-1.94-.41,4.63,4.63,0,0,1-1.73-.91c-1.51-2-3-3.83-4.54-5.52a20.74,20.74,0,0,1-3.69-6,38.75,38.75,0,0,1-1.59-6.76q-.5-3.41-.85-6.91,0-6.53.6-12.85t1.67-12.9q1.73-10.59,4.48-21.05a142.29,142.29,0,0,1,7.2-20.63q1.78-4.53,3.76-8.86t4.29-8.51a31.57,31.57,0,0,1,2.5-4.43c.93-1.37,1.83-2.81,2.68-4.32a5,5,0,0,1,.74-.6,2,2,0,0,0,.59-.58,22.3,22.3,0,0,1,1.7-1.72,2.13,2.13,0,0,1,2.39-.45,4,4,0,0,1,2.14,2.23,5.22,5.22,0,0,1,.57,3,5.77,5.77,0,0,1-.52.95,2,2,0,0,0-.37.93A387.47,387.47,0,0,0,241.13,455a281.49,281.49,0,0,0-7.55,38.88q-.35,6.44-.83,12.43a118.48,118.48,0,0,0-.35,12.49c0,.2.09.5.17.9A7.2,7.2,0,0,1,232.67,521.09Z"/><path class="cls-2" d="M389.09,477.48a5.28,5.28,0,0,0,1-.58,2.87,2.87,0,0,1,1.15-.45,1.9,1.9,0,0,1,1.95,0,2.36,2.36,0,0,1,.79,2.11,3.54,3.54,0,0,1-.31,1.22c-.19.4-.38.88-.59,1.43a10.37,10.37,0,0,1-5.61,4,4.13,4.13,0,0,1-3.65,0,8.12,8.12,0,0,1-2.93-2.79,21.93,21.93,0,0,1-2.66-5.79,13.69,13.69,0,0,1-.27-6.39,37.73,37.73,0,0,0,1.1-4.4q.43-2.26,1-4.23c.37-1.31.77-2.63,1.19-4l1.32-4.13c.31-1.09.66-2.24,1-3.46s.85-2.59,1.39-4.15a8.51,8.51,0,0,1-1.81,1.12,3.4,3.4,0,0,0-1.11.68,129.54,129.54,0,0,0-14,16.17,114,114,0,0,0-6.58,9.56q-3,4.83-6.07,9.77c-.93,1.63-1.66,3-2.17,4.14a3.88,3.88,0,0,1-3.4,1.73c-1.33.05-2.08-.32-2.23-1.13a14.11,14.11,0,0,0-.88-2.16c-.33-.66-.66-1.33-1-2a3.53,3.53,0,0,1-.52-1.53c-.05-.56-.09-1.15-.1-1.77a31.61,31.61,0,0,1,.08-7.78,75.71,75.71,0,0,1,1.48-7.74q1-5.16,2.22-10.05t2.06-10a5.82,5.82,0,0,0,.36-1.39,11.78,11.78,0,0,1,.21-1.36c-1.12.11-2.06.23-2.81.37l-2.62.5a5.1,5.1,0,0,1-2.26,0,5.64,5.64,0,0,1-1.28-2.24,7.39,7.39,0,0,1-.66-1c-.17-.33-.4-.73-.69-1.19l.12-.18c0-.1,0-.15,0-.16s.06-.11,0-.32a14.57,14.57,0,0,1,.94-1.18,15.58,15.58,0,0,0,1.19-1.55,14.35,14.35,0,0,0,2.73.88,4.59,4.59,0,0,0,2.09-.86,1.72,1.72,0,0,1,.91-.48,1.76,1.76,0,0,0,.92-.49,28.51,28.51,0,0,0,2.58-1.57,8.63,8.63,0,0,0,1.46-1.29,6.82,6.82,0,0,0,1.07-1.76c.33-.73.73-1.71,1.23-2.95q2.37-7.9,5.41-15.32a123.49,123.49,0,0,1,7.1-14.55,77.24,77.24,0,0,1,15.27-20.29c.9-.69,1.81-1.35,2.73-2s1.77-1.29,2.58-2a10.35,10.35,0,0,1,2.9-1.48,14.6,14.6,0,0,1,2.93-.55c2.67-.09,4.51.85,5.51,2.84a3.35,3.35,0,0,1,.29,1.11,1,1,0,0,0,.2.66,6.77,6.77,0,0,1,2.3,4.38c.16,1.63.27,3.16.33,4.6a20.19,20.19,0,0,1-.76,4.57,21.63,21.63,0,0,1-1.78,4.14,65.25,65.25,0,0,1-5.62,9.3,102.85,102.85,0,0,1-6.87,8.45q-5.08,5.94-10.44,11.3t-11.39,10.39c-.53.51-1,1-1.52,1.45a2.73,2.73,0,0,0-.85,1.64q-1.47,6.18-2.91,12.12t-3.11,11.86a1.75,1.75,0,0,0,.09.91,4.38,4.38,0,0,1,.18,1.37,9.73,9.73,0,0,1,2.06-2.26q2.85-3.79,5.92-7.72t6.39-7.66a62.84,62.84,0,0,1,5.08-4.77,58.48,58.48,0,0,1,5.79-4.28A7.35,7.35,0,0,1,387.8,433a3.11,3.11,0,0,1,3.17,1.11,16,16,0,0,1,3.5,7.41,19.75,19.75,0,0,1-.4,8.16,34.82,34.82,0,0,1-1.14,5q-.74,2.31-1.47,4.94-1,3.92-2,7.76c-.7,2.57-1.44,5.12-2.2,7.64a5.32,5.32,0,0,0-.35,1.47,10.67,10.67,0,0,1-.19,1.43Zm-17.48-62.72a1.25,1.25,0,0,0,.48.84,4,4,0,0,1,.71-.75c.31-.27.55-.47.74-.61q4-4.32,7.78-8.93t6.95-9.24a25.68,25.68,0,0,0,2.77-4.64c.7-1.53,1.46-3.1,2.3-4.71q.09-.32.24-.75a7.57,7.57,0,0,0,.32-1.22,4.94,4.94,0,0,1-1.4.81,2.89,2.89,0,0,0-.86.4c-1,.81-2,1.67-2.93,2.57s-1.93,1.87-2.88,2.87A74.39,74.39,0,0,0,375,407.13c-.58,1.35-1.11,2.65-1.6,3.88A33.3,33.3,0,0,1,371.61,414.76Z"/><path class="cls-2" d="M438.79,435.59l.1-1.1q2.83-4,5.44-7.4t5.57-6.65a.77.77,0,0,1,.53-.49,2.48,2.48,0,0,0,.71-.37q4,3.14,1.87,7.42c-.35.89-.69,1.84-1,2.83a26.46,26.46,0,0,1-1,2.68q-2.82,6.45-5.13,13.1A101,101,0,0,0,442.14,459c-.32,2.13-.57,4.23-.75,6.28a22.61,22.61,0,0,0,.33,6.23,2.26,2.26,0,0,1,0,.93,9.86,9.86,0,0,1-.62.81,1.47,1.47,0,0,1-.83.55,2.23,2.23,0,0,1-1-.13,1.55,1.55,0,0,1-.86-.46,22.24,22.24,0,0,1-1.82-3.85,18.42,18.42,0,0,1-.92-4,30.39,30.39,0,0,1-.21-5.24c.07-1.77.2-3.56.38-5.36.09-.63.15-1.37.2-2.21-.56-.2-.91-.19-1.07.05l-.49.71a62.1,62.1,0,0,1-4.3,5.63c-1.48,1.74-3,3.52-4.5,5.36a35.65,35.65,0,0,1-3.41,3.29,50,50,0,0,0-3.69,3.5,8.09,8.09,0,0,1-2.77,1.76,12.38,12.38,0,0,1-3.27.78,8,8,0,0,1-3.72-.77,6.88,6.88,0,0,1-2.56-2.86,4.6,4.6,0,0,1-.37-1.1,4.21,4.21,0,0,0-.36-1.09,10.37,10.37,0,0,1-2.42-6.61,46.47,46.47,0,0,1,.62-7c.32-1,.68-2,1.07-2.92a15.21,15.21,0,0,1,1.56-2.86,49.28,49.28,0,0,1,13.68-18,15.75,15.75,0,0,1,7.08-4.44l1.2-.23q4-.76,5.6.42a11.14,11.14,0,0,1,2.95,4.49,7.91,7.91,0,0,1,1.17,2.49c.21.84.44,1.66.69,2.43-.5.1-1,.23-1.56.38a5.54,5.54,0,0,1-1.59.22,9.5,9.5,0,0,0-5.11.89,26.93,26.93,0,0,0-4.45,2.79,52.35,52.35,0,0,0-8.55,9.77,41.4,41.4,0,0,0-5.38,11.82,1.07,1.07,0,0,0-.16.8,1,1,0,0,1-.15.81,6.28,6.28,0,0,0,3.18-.83,13.93,13.93,0,0,0,2.38-1.78q2.19-2.43,4.3-4.38a49.72,49.72,0,0,0,4-4.18,87.63,87.63,0,0,0,5.74-7.46l5.22-7.67a3.82,3.82,0,0,0,.85-.86C437.73,435.62,438.15,435.51,438.79,435.59Z"/><path class="cls-2" d="M479.36,423.4a22.05,22.05,0,0,0-6.7,1.12,42.83,42.83,0,0,1-6,1.6q-3,.72-5.93,1.51a19.11,19.11,0,0,1-6.1.61,4.09,4.09,0,0,1-.57-1.37,2.71,2.71,0,0,0-.54-1.21,3.91,3.91,0,0,1,.77-5c.73-.54,1.43-1,2.13-1.49a16.45,16.45,0,0,0,2-1.46q3.32-1.39,6.37-2.45c2.05-.69,4.17-1.51,6.38-2.45q3.36-1.09,6.51-2.09c2.11-.65,4.27-1.4,6.49-2.23.35-.9.69-1.69,1-2.37a19.08,19.08,0,0,0,.91-2.2c1.28-3,2.64-6.55,4.05-10.55s2.93-8.06,4.53-12.2,3.3-8.11,5.12-11.92a47,47,0,0,1,5.88-9.58,10,10,0,0,0,.93-.8,1.83,1.83,0,0,1,1-.5,2.13,2.13,0,0,1,.86.07,1.25,1.25,0,0,1,.78.4q1,2.28,1.93,4.44a6.46,6.46,0,0,1-.17,4.85q-1.26,4.9-2.63,9.9t-2.65,9.82q-1.26,4.83-2.56,9t-2.26,7.34a10.71,10.71,0,0,1,1.29-.16,9.19,9.19,0,0,0,1.29-.17q2.85-.54,5.68-1.15c1.89-.41,3.8-.74,5.72-1a35.14,35.14,0,0,0,3.76-.24,19.51,19.51,0,0,1,3.78-.1,4.81,4.81,0,0,1,3.39,1.46,4.35,4.35,0,0,1,1.36,3.08,4.5,4.5,0,0,1-.64,2,3.28,3.28,0,0,1-2,1.32,31.54,31.54,0,0,1-4.46,1.46c-1.63.42-3.18.86-4.64,1.35-3.14.9-6.24,1.8-9.28,2.69l-9.28,2.69a123.62,123.62,0,0,0-4.21,12.21,107.44,107.44,0,0,0-2.93,13.22,101.23,101.23,0,0,0-1.2,13.35,62.16,62.16,0,0,0,1,12.78,23,23,0,0,0,.65,2.6,3.73,3.73,0,0,0,1.79,2.07,12.12,12.12,0,0,1,.9,1.46c.32.61.58,1.16.78,1.64a2.81,2.81,0,0,1,.23,2.44,3.18,3.18,0,0,1-2,1.94,3.71,3.71,0,0,1-2.68.2,6.23,6.23,0,0,1-2.27-1.75,38.76,38.76,0,0,1-8.58-13.29,47.22,47.22,0,0,1-2.91-14.13,64.74,64.74,0,0,1,.93-14.39Q477.62,430.57,479.36,423.4Z"/><path class="cls-2" d="M594.92,452.78c2-.27,4.1-.49,6.24-.64a55.15,55.15,0,0,0,6.52-.84,4.75,4.75,0,0,1,4.69,1.75,2.11,2.11,0,0,1,.69,2,2.57,2.57,0,0,1-1.72,1.57q-2.91,1-5.63,1.85a44.64,44.64,0,0,0-5.15,1.91l-7.48,2.34c-2.45.78-4.9,1.5-7.36,2.18-2,.57-3.88,1.14-5.74,1.7s-3.63,1.05-5.31,1.48c-1.54.6-3,1.1-4.3,1.51a18.65,18.65,0,0,0-3.94,1.75,1.37,1.37,0,0,1-.73.22,2.47,2.47,0,0,0-.61,0,10.39,10.39,0,0,1-1.47-1.59,17.1,17.1,0,0,0-1.5-1.73,6.51,6.51,0,0,1,2.75-4.41,27.1,27.1,0,0,1,6.16-4q3.35-1.56,7.14-2.91a5.8,5.8,0,0,1,1.24-.39,2.75,2.75,0,0,0,1.22-.54c0-1.14-.07-2.26-.17-3.38a30.2,30.2,0,0,1-.15-3.24,61.66,61.66,0,0,1,.57-9.27q.64-4.79,1-9.36,1.23-6.6,2.44-13.36t3.13-13.8q2-6,3.78-12.05a86.54,86.54,0,0,1,4.55-12q2-5,4.25-10t4.55-10c.12-.44.21-.79.26-1.06a6.07,6.07,0,0,1,.66-1.45,72.88,72.88,0,0,0-7,2.27c-2.12.81-4.2,1.62-6.22,2.42s-3.83,1.66-5.72,2.63a32.52,32.52,0,0,1-6.07,2.4,4.63,4.63,0,0,1-1.34-1.77,4.69,4.69,0,0,1-.42-1.78,2.13,2.13,0,0,1,.45-1.33,5,5,0,0,0,.66-1.06,27.83,27.83,0,0,1,3.49-3.69,28.49,28.49,0,0,1,4.12-2.88,90.72,90.72,0,0,1,8.45-4.55,79.34,79.34,0,0,1,8.81-3.53q7.1-2.75,14.17-4.78t14.33-3.88l3.83-.73a11.55,11.55,0,0,1,3.63-.07,3.48,3.48,0,0,1,3,1.61,3.74,3.74,0,0,1,.7,3.28,2.85,2.85,0,0,1-2.27,2,22.91,22.91,0,0,1-2.78.92,20.43,20.43,0,0,0-2.63.89q-4.23,1.43-8.48,2.77c-2.84.9-5.65,1.87-8.46,2.92a.92.92,0,0,0-.49.25,1.71,1.71,0,0,1-.8.31q-.78,3.26-1.49,6.1a62.53,62.53,0,0,1-1.81,6q-5.75,17.25-11,34.31t-10,34.45c-.7,2.83-1.38,5.8-2,8.93s-1.25,6.24-1.81,9.35a3.34,3.34,0,0,0-.23,1.21c0,.47-.07,1-.15,1.66Z"/><path class="cls-2" d="M633.48,393.9a19.15,19.15,0,0,0,3.86.28c1.07-.05,2.13-.07,3.17-.06,1.84-.14,3.63-.22,5.39-.24l5.27-.07a3.21,3.21,0,0,1,.93,0,8.5,8.5,0,0,0,1.26.07,16.94,16.94,0,0,1,8.26,3.88q3.11,2.82,4.65,9.37a18.92,18.92,0,0,1,.67,6.79,30,30,0,0,1-1.37,6.7,48.47,48.47,0,0,1-4.52,9.79,44.92,44.92,0,0,1-6.51,8.3A20.23,20.23,0,0,1,641.61,445a15.46,15.46,0,0,1-7.81-1,11.34,11.34,0,0,1-3.91-2.21,12.91,12.91,0,0,1-2.79-3.67,7.94,7.94,0,0,0-.9-1.85,15.33,15.33,0,0,1-1.07-2,8.39,8.39,0,0,1-.38-4,6,6,0,0,1,2.19-3.6l1.2-.23A2.76,2.76,0,0,1,629.3,428a7,7,0,0,1,.18,2.21c.26,1.92,1.19,3,2.78,3.21a12.31,12.31,0,0,0,4.71.66,8.7,8.7,0,0,0,4.19-1.26A43,43,0,0,0,652.3,424a33.22,33.22,0,0,0,6.77-12.23q.81-3.11.12-4.69t-3.67-2.57a20.82,20.82,0,0,0-4.57-1.15,41.78,41.78,0,0,0-4.57-.38l-11.39.61-1.55,0a12.66,12.66,0,0,1-1.74-.14,7,7,0,0,1-3.26-1.24,4.71,4.71,0,0,1-1.75-3.09q-.06-.3-.21-.27a11,11,0,0,1-2.52-8,24,24,0,0,1,2.5-8.94,41.19,41.19,0,0,1,5.55-8.43,43.2,43.2,0,0,1,6.62-6.46,65.49,65.49,0,0,1,6-4.08,16.72,16.72,0,0,1,7-2.25,16,16,0,0,1,4,0,15.7,15.7,0,0,1,3.76,1,11.72,11.72,0,0,1,3.92,2.21,13.44,13.44,0,0,1,2.79,3.67,8.13,8.13,0,0,0,.89,1.85,15.33,15.33,0,0,1,1.07,2,8.19,8.19,0,0,1,.38,4,6,6,0,0,1-2.19,3.6l-1.2.22a2.65,2.65,0,0,1-1.15-1.56,6.74,6.74,0,0,1-.19-2.22c-.26-1.92-1.19-3-2.78-3.2a11.55,11.55,0,0,0-8.82.58,27.46,27.46,0,0,0-7.71,5.66,53.05,53.05,0,0,0-6.34,7.95C636.16,389.33,634.63,391.82,633.48,393.9Z"/></svg>