<svg id="Layer_1" data-name="Layer 1" xmlns="http://www.w3.org/2000/svg" viewBox="0 0 886.85 886.85"><defs><style>.cls-1{fill:#efc960;}</style></defs><title>Adpr Memetic Brand Labs</title><path class="cls-1" d="M598.9,390.18S577.05,274.49,445,272c0,0-127.11-.5-155.91,117.18s57.59,187.68,125.62,195.63S626.2,559.49,598.9,390.18ZM525.56,452.6a4.45,4.45,0,0,1-4.14,2.81,4.35,4.35,0,0,1-1.64-.32l-1.87-.74c-1.95-.79-4-1.59-6.06-2.35-1.06,15.2-6.25,27.42-15.91,36-14.07,12.55-33.25,14.27-42.69,14.27-3.27,0-5.38-.2-5.68-.23a4.46,4.46,0,0,1-4-4.89,4.28,4.28,0,0,1,4.89-4c.21,0,25.58,2.43,41.56-11.86,8.22-7.35,12.54-18.13,13.13-31.83a32.65,32.65,0,0,0-9.55-.79,4.45,4.45,0,0,1-.78-8.86c10.44-.92,20,2.84,28.38,6.2l1.84.73A4.46,4.46,0,0,1,525.56,452.6Zm-45-31.68c-45-5.56-40.93-54.58-40.93-54.58-8.34-4.8-21.73,0-21.73,0V376.7c0,10.36-6.32,35.12-36.89,43.21s-40.57-6-47.24-14.91c-8.89-11.92-8.59-37.9-8.59-37.9s-.77-23.5,37.9-26c41.79-2.72,50.78,16.68,50.78,16.68,12.12-9.09,31.33-2.52,31.33-2.52,5.81-6.57,15.66-14.4,47.24-14.15s39.67,17.69,39.67,32.59S525.51,426.47,480.54,420.92Z"/><path class="cls-1" d="M611.9,334s12.93,22.46,36.64.93,52.26-56.81,39.9-57.21-43.89,11-64.54,23.11S605.51,323.11,611.9,334Z"/><path class="cls-1" d="M509.38,253.68s24.1,9.5,29.23-22.11,5.47-77-4.45-69.61-27.48,35.93-36.07,58.3S497.62,249.17,509.38,253.68Z"/><path class="cls-1" d="M356.88,254.44s24.8-7.52,9.18-35.48-43.53-63.75-46.72-51.8.78,45.23,7.94,68.09S344.86,258.2,356.88,254.44Z"/><path class="cls-1" d="M258.44,350.81s14.73-21.32-14.89-33.49-73.74-22.82-68.8-11.48,28.75,34.92,48.58,48.37S251.38,361.23,258.44,350.81Z"/><path class="cls-1" d="M248.32,472.86s-4.8-25.46-34.29-13S146,496.29,157.5,500.75s45,4.11,68.55-.53S250.76,485.21,248.32,472.86Z"/><path class="cls-1" d="M323.63,583.77s-14.9-21.21-36.58,2.36-47,61.27-34.6,60.57,42.72-14.88,62.2-28.82S331,594,323.63,583.77Z"/><path class="cls-1" d="M447.44,629.44s-25.9-.72-19.95,30.75,21.08,74.25,27.9,63.93S469,681,469.44,657,460,629.68,447.44,629.44Z"/><path class="cls-1" d="M575,576s-21.14,15,2.53,36.56S639,659.25,638.28,646.9s-15.08-42.65-29.11-62.07S585.22,568.64,575,576Z"/><path class="cls-1" d="M639.47,452s-10,23.92,21.53,29.66,76.87,7,69.68-3.07-35.38-28.18-57.57-37.21S644.21,440.31,639.47,452Z"/></svg>