<svg id="Layer_1" data-name="Layer 1" xmlns="http://www.w3.org/2000/svg" viewBox="0 0 1466.25 1182.27"><defs><style>.cls-1{fill:#8e4ed5;}.cls-14,.cls-2{font-size:58.75px;fill:#fff;font-family:Urbanist-Medium, Urbanist;font-weight:500;}.cls-3{letter-spacing:0.01em;}.cls-4{fill:#d8474d;}.cls-5{letter-spacing:-0.08em;}.cls-6{letter-spacing:0em;}.cls-7{fill:#efc960;}.cls-8{letter-spacing:0.01em;}.cls-9{letter-spacing:-0.02em;}.cls-10{fill:#ff80d2;}.cls-11{fill:#828de0;}.cls-12,.cls-14{letter-spacing:0em;}.cls-13{fill:#de5f64;}.cls-15{letter-spacing:0em;}.cls-16{fill:#246eaf;}.cls-17{letter-spacing:-0.03em;}.cls-18{letter-spacing:-0.01em;}.cls-19{fill:#211d16;}.cls-20{fill:#f2ddb6;}.cls-21{fill:#c24a8c;}.cls-22{letter-spacing:-0.03em;}</style></defs><title>Adpr Memetic Brand Labs</title><rect class="cls-1" x="119.52" y="178.47" width="284.09" height="284.09"/><text class="cls-2" transform="translate(132.5 440.11)">8E4<tspan class="cls-3" x="95.5" y="0">E</tspan><tspan x="127.52" y="0">D5</tspan></text><rect class="cls-4" x="416.3" y="178.47" width="284.09" height="284.09"/><text class="cls-2" transform="translate(429.27 440.11)">D84<tspan class="cls-5" x="103.26" y="0">7</tspan><tspan class="cls-6" x="130.13" y="0">4D</tspan></text><rect class="cls-7" x="713.08" y="178.47" width="284.09" height="284.09"/><text class="cls-2" transform="translate(726.05 440.11)"><tspan class="cls-8">E</tspan><tspan class="cls-9" x="32.02" y="0">F</tspan><tspan x="59.28" y="0">C960</tspan></text><rect class="cls-10" x="1009.86" y="178.47" width="284.09" height="284.09"/><text class="cls-2" transform="translate(1022.83 440.11)"><tspan class="cls-8">F</tspan><tspan x="28.55" y="0">F80D2</tspan></text><rect class="cls-11" x="119.52" y="471.24" width="284.09" height="284.09"/><text class="cls-2" transform="translate(132.5 732.88)">828<tspan class="cls-12" x="94.88" y="0">D</tspan><tspan x="134.25" y="0">E0</tspan></text><rect class="cls-13" x="416.3" y="471.24" width="284.09" height="284.09"/><text class="cls-14" transform="translate(429.27 732.88)">D<tspan class="cls-15" x="39.36" y="0">E5F64</tspan></text><rect class="cls-16" x="119.52" y="768.38" width="284.09" height="284.09"/><text class="cls-2" transform="translate(132.5 1030.03)"><tspan class="cls-17">2</tspan><tspan x="30.67" y="0">46</tspan><tspan class="cls-18" x="95.06" y="0">EA</tspan><tspan x="166.27" y="0">F</tspan></text><rect class="cls-19" x="416.3" y="768.38" width="284.09" height="284.09"/><text class="cls-2" transform="translate(429.27 1030.03)">211D16</text><rect class="cls-20" x="713.08" y="471.24" width="284.09" height="284.09"/><text class="cls-2" transform="translate(726.05 732.88)">F2<tspan class="cls-12" x="60.66" y="0">DD</tspan><tspan class="cls-6" x="139.39" y="0">B6</tspan></text><rect class="cls-21" x="1009.86" y="471.24" width="284.09" height="284.09"/><text class="cls-2" transform="translate(1022.83 732.88)">C<tspan class="cls-22" x="41.66" y="0">2</tspan><tspan class="cls-6" x="72.32" y="0">4A8C</tspan></text></svg>