<svg id="Layer_1" data-name="Layer 1" xmlns="http://www.w3.org/2000/svg" viewBox="0 0 886.85 886.85"><defs><style>.cls-1{fill:#8e4ed5;}.cls-2{fill:#828de0;}.cls-3{fill:#d8474d;}.cls-4{font-size:58.63px;fill:#efc960;font-family:Anton-Regular, Anton;}.cls-5{fill:#211d16;}.cls-6{fill:#ff80d2;}</style></defs><title>Adpr Memetic Brand Labs</title><polygon class="cls-1" points="749.92 643.47 181.77 643.47 136.92 479.88 172.33 379.92 143.67 243.38 749.92 243.38 749.92 643.47"/><path class="cls-2" d="M599.49,569.89l-.51,0c-47.39,8.13-159,4.43-266.94.85l-27.33-.89h-.11a10.57,10.57,0,0,1-10.74-10.35V461a10.55,10.55,0,0,1,10.74-10.33l.35,0c45.69-5.39,136.77-3.37,224.83-1.42,23.09.52,47,1,69.71,1.44A10.55,10.55,0,0,1,610.24,461v98.5A10.58,10.58,0,0,1,599.49,569.89Z"/><path class="cls-2" d="M576.74,356.68c-1.92-.69-7-1.27-14.47-1.73a51.43,51.43,0,0,1,.5,7.15c0,7.34-5.32,13.18-13.91,17.82-22.42,12.09-67.07,15.79-96.81,15.79-28.44,0-55-2.74-74.74-7.73q-13.63-3.44-22.1-8c-9.23-5-13.88-11-13.88-17.88,0-.29,0-.56,0-.85-11.25,1.66-18.62,3.62-20.39,5.9-7.38,9.54-28.12,41.64-40.88,61.59a32.2,32.2,0,0,1,15.09-4.37c21.74-2.57,53.85-3.82,98.18-3.82,42.84,0,92.85,1.14,141.21,2.24,23,.55,49.14,1.13,73.33,1.56A31.73,31.73,0,0,1,625,429.42C615.79,411.24,589.52,361.29,576.74,356.68Zm31.07,73.91c-24.24-.44-50.36-1-73.39-1.56-48.33-1.1-98.29-2.24-141.07-2.24-44.17,0-76.09,1.24-97.58,3.8l-.27,0a25.93,25.93,0,0,0-25.15,26V563.8a26.13,26.13,0,0,0,25.81,26.06l28.73,1c63.39,2.16,129,4.41,182.32,4.41,47.06,0,80.23-1.75,101.41-5.37l.37,0a26,26,0,0,0,24.76-26V456.65A26.12,26.12,0,0,0,607.81,430.59Zm8.67,129a16.79,16.79,0,0,1-16.71,16.56C578.4,579.74,544.52,581,504,581c-50.8,0-112-2-172.16-4l-27.29-.9a16.81,16.81,0,0,1-16.92-16.58V461a16.79,16.79,0,0,1,16.79-16.57c46.15-5.4,137.33-3.39,225.52-1.43,23.07.52,46.93,1,69.63,1.43A16.77,16.77,0,0,1,616.48,461Z"/><path class="cls-3" d="M610.24,461v98.5a10.58,10.58,0,0,1-10.75,10.35l-.51,0c-47.39,8.13-159,4.43-266.94.85l-27.33-.89h-.11a10.57,10.57,0,0,1-10.74-10.35V461a10.55,10.55,0,0,1,10.74-10.33l.35,0c45.69-5.39,136.77-3.37,224.83-1.42,23.09.52,47,1,69.71,1.44A10.55,10.55,0,0,1,610.24,461Z"/><text class="cls-4" transform="translate(331.23 535.09)">Apply Now</text><path class="cls-5" d="M549.61,388.17c0,36.87-195.12,36.87-195.12,0a46.45,46.45,0,0,1,.72-8.19q8.49,4.57,22.1,8c19.76,5,46.3,7.73,74.74,7.73,29.74,0,74.39-3.7,96.81-15.79A45.29,45.29,0,0,1,549.61,388.17Z"/><path class="cls-3" d="M556.53,362.1c0,4.2-3.26,8.13-9.2,11.64-16.09,9.46-51.78,15.74-95.28,15.74s-79.19-6.28-95.28-15.74c-5.94-3.51-9.21-7.44-9.21-11.64,0-.58,0-1.14.05-1.7,1.35-38.1,47.68-68.8,104.44-68.8,53.87,0,98.35,27.65,103.9,63A46.76,46.76,0,0,1,556.53,362.1Z"/><path class="cls-6" d="M473.39,311.44s3.46-10.41,19.42-6.94,43.7,26.28,40.93,36-19.23,2.82-30.08-4.81S472,322.54,473.39,311.44Z"/></svg>