<svg id="Layer_1" data-name="Layer 1" xmlns="http://www.w3.org/2000/svg" viewBox="0 0 886.85 886.85"><defs><style>.cls-1{fill:#f2ddb6;}</style></defs><title>Adpr Memetic Brand Labs</title><path class="cls-1" d="M422.84,201.2s-29.13-82.8-64.4-92-86.63,11.5-96.6,61.33,13,98.9,42.93,131.87a503.66,503.66,0,0,0,61.34,56.73S221.21,399,186.71,475.66,176,596.8,236.54,602.16s155.13-33.73,161.9-67.46-13.93-56-60.7-35.27-54.42,11.5-44.08,1.53,93.15-38.33,114.61-5.36S406.74,547,406.74,547s55.2-1.3,42.93,55.7c0,0,49.84-4.33,49.84,38.6,0,0,40.21-20.7,53.83,33.74,0,0,134-50.6,157-144.9s-26.83-192.44-85.87-219.27S455.71,266.43,422.84,201.2Z"/><path class="cls-1" d="M220.1,617.42s115.62,3.47,178.34-56.11c0,0,70.81-.3,33.13,50.1C387.73,670.07,279,704,254,688.77,235.53,677.46,206.24,663.83,220.1,617.42Z"/><path class="cls-1" d="M443.42,618.12s-62.34,72-149.76,83.81c0,0-.14,83.12,97.53,48.49s96.62-99.06,91.95-112.22S465,613.25,443.42,618.12Z"/><path class="cls-1" d="M398.44,763.48s82.11-31.07,102.2-107.27c0,0,44.33-16.27,37.4,36.2s-62.34,85-89.36,87.1S403.61,771,398.44,763.48Z"/></svg>