<svg id="Layer_1" data-name="Layer 1" xmlns="http://www.w3.org/2000/svg" viewBox="0 0 886.85 886.85"><defs><style>.cls-1{fill:#828de0;}.cls-2{fill:#efc960;}.cls-3{fill:#d8474d;}.cls-4{fill:#211d16;}.cls-5{fill:#ff80d2;}</style></defs><title>Adpr Memetic Brand Labs</title><path class="cls-1" d="M180,446.05s58.4-92.25,74.21-112.73,346.57-23.27,369.21-15.11,74.44,114.53,74.44,114.53Z"/><path class="cls-2" d="M172.6,450.24l4-6.33c2.39-3.77,58.69-92.65,74.43-113,2-2.56,6.59-8.54,64-13.69,39.47-3.54,87.65-5.3,121.13-6.16,80.44-2.06,175.43-1.34,188.62,3.42,15.53,5.6,39.84,48.13,47.83,62.1C688.26,404,701.32,430.72,701.45,431l2.72,5.59ZM518.32,318c-24.86,0-52.67.33-81.75,1.07-133.62,3.41-175.51,12.13-179.2,16.75-13.11,17-56.51,84.91-70,106.09l504.12-13C670.63,386.83,636.87,327.31,622.06,322,615.54,319.62,574.47,318,518.32,318Z"/><path class="cls-1" d="M523.06,667.09c-77.11,0-171.79-3.23-263.35-6.36l-41.37-1.4a42.18,42.18,0,0,1-41.71-42.13V462.52a42.17,42.17,0,0,1,40.66-42.1c31.23-3.7,77.5-5.5,141.4-5.5,61.79,0,134,1.65,203.75,3.24,35.1.8,71.39,1.63,105.87,2.24a42.17,42.17,0,0,1,41.91,42.12V617.2a42.19,42.19,0,0,1-40,42.08C639.37,664.54,591.2,667.09,523.06,667.09Z"/><path class="cls-2" d="M523.06,671.09c-77.21,0-171.91-3.23-263.49-6.36l-41.36-1.41a46.24,46.24,0,0,1-45.58-46.12V462.52A45.93,45.93,0,0,1,217,416.43c31.38-3.7,77.73-5.51,141.7-5.51,61.82,0,134,1.65,203.76,3.24,35.09.8,71.3,1.63,105.93,2.24a46.21,46.21,0,0,1,45.84,46.12V617.2a46.08,46.08,0,0,1-43.58,46.06C639.58,668.53,591.29,671.09,523.06,671.09ZM358.69,418.92c-63.76,0-109.86,1.79-140.93,5.47l-.33,0a38,38,0,0,0-36.8,38.1V617.2a38.24,38.24,0,0,0,37.75,38.13l41.46,1.4c91.52,3.13,186.15,6.36,263.22,6.36,68,0,115.86-2.54,146.47-7.76l.47-.05a38.09,38.09,0,0,0,36.22-38.08V462.52a38.21,38.21,0,0,0-37.93-38.12c-34.7-.62-70.92-1.44-105.94-2.24C492.53,420.57,420.42,418.92,358.69,418.92Z"/><path class="cls-3" d="M230.57,630.47c-11,0-20-8.69-20-19.42V468.86c0-10.73,9-19.42,20-19.42,83.59-9.83,267.82-2.7,425.7,0,11.06,0,20,8.69,20,19.42V611.05c0,10.73-9,19.42-20,19.42C581.69,643.27,401.76,636,230.57,630.47Z"/><path class="cls-2" d="M518.43,641.58c-73.34,0-161.75-2.93-248.54-5.81l-39.39-1.3c-13.21,0-23.94-10.53-23.94-23.42V468.86c0-12.84,10.64-23.29,23.77-23.42,66.59-7.79,198.2-4.88,325.49-2.06,33.32.74,67.77,1.5,100.52,2.06,13.18,0,23.95,10.5,23.95,23.42V611.05c0,12.8-10.58,23.24-23.66,23.42C625.82,639.71,576.92,641.58,518.43,641.58ZM230.57,453.44c-8.83,0-16,6.92-16,15.42V611.05c0,8.5,7.18,15.42,16,15.42h.13q19.68.63,39.46,1.3c155.83,5.16,317,10.5,385.44-1.25l.33-.06h.34c8.84,0,16-6.92,16-15.42V468.86c0-8.51-7.18-15.42-16-15.42-32.83-.56-67.3-1.33-100.63-2.06-127.15-2.82-258.64-5.73-324.6,2Z"/><path class="cls-2" d="M277.32,503.05H302l6.94,72.71H295.1l-1-11.77h-8.8l-.85,11.77H270.3ZM293,552.4l-3.22-37h-.67l-2.71,37Z"/><path class="cls-2" d="M313,513.8H328.1v6.6c1.78-4.57,4.74-7.28,10.67-7.28,8.12,0,11.09,6.44,11.09,16v30.47c0,9.57-3.81,16.84-13,16.84-4,0-6.94-2.37-8.72-7.27v16.92H313Zm18.54,51.12c3.13,0,3.3-3.47,3.3-8V532.67c0-4.57-.17-8-3.3-8s-3.48,3.56-3.48,8v24.21C328.1,561.37,328.36,564.92,331.58,564.92Z"/><path class="cls-2" d="M355.44,513.8h15.07v6.6c1.78-4.57,4.74-7.28,10.66-7.28,8.13,0,11.09,6.44,11.09,16v30.47c0,9.57-3.81,16.84-13,16.84-4,0-6.94-2.37-8.72-7.27v16.92H355.44ZM374,564.92c3.13,0,3.3-3.47,3.3-8V532.67c0-4.57-.17-8-3.3-8s-3.47,3.56-3.47,8v24.21C370.51,561.37,370.76,564.92,374,564.92Z"/><path class="cls-2" d="M397.85,503.05h15.06v72.71H397.85Z"/><path class="cls-2" d="M417.65,576.69h7.11c1.27,0,1.61-.51,1.61-1.1a5.31,5.31,0,0,0-.09-1.19l-9.73-60.6h14.13l4.15,45.79,4.91-45.79H454L442.45,579c-.76,4.66-2.79,7.11-8.13,7.11H417.65Z"/><path class="cls-2" d="M477.91,503.05h15l6.69,34.79V503.05h14.05v72.71H499.41l-7.28-36.4v36.4H477.91Z"/><path class="cls-2" d="M519.3,557.22V532.34c0-11.68,6.94-19.22,18.54-19.22s18.53,7.54,18.53,19.22v24.88c0,12.61-6.09,19.21-18.53,19.21S519.3,570.09,519.3,557.22ZM537.84,565c2.45,0,3.47-2,3.47-4.74V530c0-3.56-1.19-5.42-3.47-5.42s-3.47,1.86-3.47,5.42v30.3C534.37,563.06,535.38,565,537.84,565Z"/><path class="cls-2" d="M560.86,513.8h12.69l4.15,33.26,3.55-33.26h14.22l4.24,33.26,3.38-33.26h12.78l-7.61,62H592.68l-4.4-35.21-3.89,35.21h-16Z"/><path class="cls-4" d="M584.25,363.68c0,53.21-281.65,53.21-281.65,0s63-96.36,140.82-96.36S584.25,310.46,584.25,363.68Z"/><path class="cls-3" d="M598.74,326c0,58.69-310.64,58.69-310.64,0s69.54-106.28,155.32-106.28S598.74,267.33,598.74,326Z"/><path class="cls-2" d="M443.42,374.05c-41,0-79.28-3.95-107.76-11.13-34.21-8.62-51.56-21-51.56-36.89,0-29.75,16.78-57.61,47.24-78.45,30-20.52,69.8-31.83,112.08-31.83s82.1,11.31,112.09,31.83c30.46,20.84,47.23,48.7,47.23,78.45,0,15.86-17.34,28.27-51.56,36.89C522.7,370.1,484.43,374.05,443.42,374.05Zm0-150.3C360,223.75,292.1,269.63,292.1,326c0,22.81,65.06,40,151.32,40s151.32-17.21,151.32-40C594.74,269.63,526.86,223.75,443.42,223.75Z"/><path class="cls-5" d="M474.23,252.9s5-15,28-10,63.08,37.93,59.08,52S533.59,299,517.93,288,472.23,268.92,474.23,252.9Z"/></svg>