<svg id="Layer_1" data-name="Layer 1" xmlns="http://www.w3.org/2000/svg" viewBox="0 0 886.85 886.85"><defs><style>.cls-1{fill:#828de0;}</style></defs><title>Adpr Memetic Brand Labs</title><path class="cls-1" d="M477.83,624.44a230,230,0,0,1-30.79-1.9l1.84-12.42c.85.12,85.76,12,124.29-28.88S615.3,475.69,592.7,445.36c-6.14-8.23-14.51-17.34-23.36-27-26.24-28.59-56-61-54.44-96.76l.09-.8c3.38-19.36,5-53.66-5.22-63.29-7.8-7.4-20.16-11.64-32.27-11a41.59,41.59,0,0,0-30,14.53c-16.64,19.23-22.39,48.53-15.41,78.4a303.85,303.85,0,0,0,15.79,47.89L453,399l-12.39-3c-.89-.21-88.84-21.08-128.17,7.73-20.48,15-31.16,30.29-30.88,44.18.26,13.14,10.64,22.85,19.3,28.67,13.78,9.27,36.07,16.6,58.18,19.14,23.58,2.7,38.3-.89,42.43-5.65,5.14-5.93,7.08-11.83,5.33-16.18-2.27-5.65-10.84-9.55-23.52-10.71-30-2.76-34.32-9.24-34.76-14.58-.14-1.79.09-7.82,9.25-10.2h0a8.26,8.26,0,0,0,6.18,9.05,140.37,140.37,0,0,0,20.48,3.21c22.8,2.09,31.08,11.23,34,18.53,3.57,8.87.84,19.48-7.49,29.09-11.4,13.16-41.11,11.31-53.36,9.9-24.34-2.79-48.18-10.71-63.75-21.19-16-10.73-24.56-24.17-24.85-38.84-.37-18.16,12.09-37,36-54.56,35.2-25.79,100.2-17.21,126.83-12.25a313.89,313.89,0,0,1-12-39c-7.9-33.77-1.12-67.22,18.14-89.48A54.51,54.51,0,0,1,476.88,234c15.64-.77,31.17,4.63,41.53,14.45,18,17,10.31,66.64,9,74.15-1.08,30.42,26.67,60.65,51.16,87.33,9.07,9.88,17.64,19.22,24.17,28,25.63,34.37,23.53,105.25-20.46,152-18.22,19.36-46.62,30.73-84.43,33.8C490.74,624.22,484,624.44,477.83,624.44ZM359.74,451Z"/><path class="cls-1" d="M287.62,506c16.17,8.08,51,23.07,87,23.07a115.68,115.68,0,0,0,22.06-2c3.53,2.53,6.7,5.58,7.63,7.44-.73.79-2.71,2.51-7.55,4.64-11.22,4.94-26,7.55-42.76,7.55-31.25,0-57.62-9.16-61.76-14.21l-1.34-2.31c-5.19-8.89-9-15.34-3.31-24.13m-2.94-15.81c-21.69,20.82-9.88,37-3.23,48.63,6,10.48,38.9,20.39,72.58,20.39,16.85,0,33.89-2.48,47.82-8.62,35.91-15.8-2.8-36.95-2.8-36.95a99.57,99.57,0,0,1-24.4,2.87c-45.45,0-90-26.32-90-26.32Z"/><path class="cls-1" d="M405.85,571.06a6.5,6.5,0,0,1,3.6,7.21c-.31.94-9,24.47-49.16,24.47a125.88,125.88,0,0,1-20.74-1.85c-16.77-2.83-27.59-8.36-31.31-16a19.17,19.17,0,0,1-1.35-11.24,157.67,157.67,0,0,0,42.63,5.58,204,204,0,0,0,56.33-8.16m.42-13.32a186.45,186.45,0,0,1-56.75,8.92c-15.85,0-33.42-2.21-50.47-8.85,0,0-25.41,44.72,38.41,55.46a137.38,137.38,0,0,0,22.83,2c45.69,0,60.25-27.41,61.52-34.79,1.46-8.49-2.27-18.89-15.54-22.77Z"/><path class="cls-1" d="M428.9,609.83a4.08,4.08,0,0,1,.64.51c-.06.68-.53,3.29-4.33,8.31-13.16,17.42-36.86,18.78-43.81,18.78-7.19,0-12.63-1.17-15.59-2.34,18.52-1.87,42.93-7.94,63.09-25.26m-3-14.36c-23.47,24-56.42,27.8-74.75,27.8a104.12,104.12,0,0,1-13.67-.78c.52,5.6,7.15,16.74,22.51,23.75,5,2.3,12.7,3.75,21.45,3.75,18,0,40.53-6.15,53.83-23.77,19.77-26.17-9.37-30.75-9.37-30.75Z"/></svg>