<svg id="Layer_1" data-name="Layer 1" xmlns="http://www.w3.org/2000/svg" viewBox="0 0 83.19 83.19"><defs><style>.cls-1{fill:#fff;}</style></defs><title>TCT_Landing Page</title><path class="cls-1" d="M66.58,22.58l-.72.81-.28.33L60.1,29.48q-8.26,8.69-16.48,17.39a2.68,2.68,0,0,1-4.07,0C34.08,41,28.48,35.15,23.07,29.46l-5.48-5.75-.26-.3-.76-.83ZM14.45,24.87,30.57,41.64,14.45,58.39ZM16.5,60.59,32.67,43.78l3.51,3.67c.53.58,1.08,1.15,1.63,1.72a5.06,5.06,0,0,0,7.57,0c1-1,1.93-2,2.91-3.06l1.53-1.62.32-.32.37-.38,16.17,16.8Zm52.23-2.2L52.61,41.63,68.73,24.89ZM11.6,22.58v38a3,3,0,0,0,3.08,3H68.51a3,3,0,0,0,3.09-3v-38a3,3,0,0,0-3.09-3H14.68A3,3,0,0,0,11.6,22.58Z"/></svg>