<svg id="Layer_1" data-name="Layer 1" xmlns="http://www.w3.org/2000/svg" viewBox="0 0 83.19 83.19"><defs><style>.cls-1{fill:#fff;}</style></defs><title>TCT_Landing Page</title><path class="cls-1" d="M35.4,34.72c-3.94-2.56-6.11-6.07-6.16-10.73a11.9,11.9,0,0,1,3.88-9A12.38,12.38,0,1,1,47.78,34.71l.77.31c4.16,1.62,8.32,3.23,12.48,4.87a1.9,1.9,0,0,1,.85.74C63.27,43,64.64,45.37,66,47.75c.49.84.31,1.33-.6,1.7s-1.92.77-2.9,1.11a.83.83,0,0,0-.65.92c0,3.79,0,7.57,0,11.36,0,.87-.12,1-.92,1.36q-9.35,3.63-18.67,7.26a1.75,1.75,0,0,1-1.35,0L22.25,64.19c-.8-.31-.92-.48-.92-1.35,0-3.82,0-7.65,0-11.47a.69.69,0,0,0-.53-.77c-1-.37-2.08-.79-3.12-1.2a1,1,0,0,1-.56-1.54c1.4-2.45,2.81-4.9,4.25-7.33a1.78,1.78,0,0,1,.84-.66c4.23-1.66,8.47-3.3,12.7-4.95Zm6.55-8c0-.79,0-1.51,0-2.23a3,3,0,0,1,5.61-1.61,3,3,0,0,1-.36,3.65,5.58,5.58,0,0,1-2.8,1.65c-.47.12-.58.35-.58.81,0,2.25,0,4.51,0,6.77v.62H45.3a.58.58,0,0,0,0-.2,3.7,3.7,0,0,1,2-3.55,10.47,10.47,0,1,0-15.94-6.14A10.21,10.21,0,0,0,36,32.8a3.52,3.52,0,0,1,1.85,3.3,1.44,1.44,0,0,0,0,.31h1.46V35.9c0-2.31,0-4.63,0-6.94a.63.63,0,0,0-.55-.73,5.38,5.38,0,0,1-3.06-1.95,3,3,0,0,1,1.74-4.69,3,3,0,0,1,3.73,3c0,.7,0,1.4,0,2.13ZM42.57,52V69.3l.48-.16C48.52,67,54,64.87,59.47,62.76A.7.7,0,0,0,60,62c0-3.28,0-6.55,0-9.83,0-.17,0-.34,0-.59l-1.57.6L46.61,56.75c-.82.32-1.14.21-1.59-.57-.25-.42-.49-.84-.73-1.27Zm-19.31-.37c0,.2-.05.33-.05.47,0,3.35,0,6.7,0,10.06,0,.37.16.49.47.61l16.48,6.41c.15.06.31.09.45.14V52l-2.39,4.14c-.49.84-.78.95-1.67.6l-10.24-4ZM24.9,40.84c.19.09.27.14.36.17,5.33,2.07,10.66,4.15,16,6.2a1.25,1.25,0,0,0,.83-.05c3.62-1.39,7.23-2.8,10.85-4.2l5.41-2.11L47.23,36.53c0,.69,0,1.29,0,1.9A2.62,2.62,0,0,1,46,40.74a1,1,0,0,0-.35.6A3.26,3.26,0,0,1,42.51,44H40.86a3.25,3.25,0,0,1-3.32-2.68,1.1,1.1,0,0,0-.42-.61,2.55,2.55,0,0,1-1.18-2.18v-2Zm18.06,8,3.45,6L64,48,60.52,42ZM22.67,42l-3.44,6L36.8,54.81l3.43-6Zm15.18-3.65c-.05.54.17.8.65.8h6.12c.51,0,.74-.26.7-.8Zm4.07-1.93V28.68h-.66v7.76Zm-2.61-10c0-.72,0-1.35,0-2A1.13,1.13,0,0,0,37.19,24a1,1,0,0,0,.16,1.35A3.86,3.86,0,0,0,39.31,26.41Zm4.53,0a3.88,3.88,0,0,0,2-1.19,1,1,0,0,0,.09-1.3,1.06,1.06,0,0,0-1.21-.51,1.08,1.08,0,0,0-.89,1C43.81,25.09,43.84,25.73,43.84,26.42Zm-4.4,14.67a1.31,1.31,0,0,0,1.25,1q.89,0,1.77,0a1.2,1.2,0,0,0,1.2-1Z"/><path class="cls-1" d="M30.08,31.25a2.15,2.15,0,0,1-.53.63c-.78.51-1.61,1-2.43,1.42A1,1,0,0,1,25.79,33a.93.93,0,0,1,.37-1.31c.82-.5,1.65-1,2.49-1.44S30.07,30.3,30.08,31.25Z"/><path class="cls-1" d="M57.5,32.35c0,.83-.66,1.32-1.23,1a30.84,30.84,0,0,1-2.85-1.63.82.82,0,0,1-.21-1.2.84.84,0,0,1,1.17-.36c.91.49,1.81,1,2.69,1.56A1.71,1.71,0,0,1,57.5,32.35Z"/><path class="cls-1" d="M25.78,24.8c-.51,0-1,0-1.53,0a.91.91,0,0,1-.91-.89.89.89,0,0,1,.84-1c1.05,0,2.11,0,3.16,0a.9.9,0,0,1,.83,1,.93.93,0,0,1-.93.88C26.76,24.82,26.27,24.8,25.78,24.8Z"/><path class="cls-1" d="M53.9,17.74a3.39,3.39,0,0,1-.75-.71.75.75,0,0,1,.26-1c.92-.58,1.87-1.14,2.84-1.63a.82.82,0,0,1,1.11.39.78.78,0,0,1-.15,1.11c-1,.63-2,1.17-3,1.74a.8.8,0,0,1-.23,0Z"/><path class="cls-1" d="M57.46,24.81c-.49,0-1,0-1.47,0A.93.93,0,1,1,55.94,23c1,0,2,0,3,0a.89.89,0,0,1,.87,1,.91.91,0,0,1-.93.86H57.46Z"/><path class="cls-1" d="M26.55,14.14a15.89,15.89,0,0,1,3.38,2.12,1.11,1.11,0,0,1-.11,1,1.11,1.11,0,0,1-1,.23A27.62,27.62,0,0,1,26,16a.8.8,0,0,1-.29-1.09A3.42,3.42,0,0,1,26.55,14.14Z"/></svg>