<svg id="Layer_1" data-name="Layer 1" xmlns="http://www.w3.org/2000/svg" viewBox="0 0 1200 190"><defs><style>.cls-1{fill:#fff;}</style></defs><title>TCT_Landing Page</title><path class="cls-1" d="M1169.22,61.22v47.92c0,11.07-6.94,18.17-17.35,18.17-10.08,0-16.85-7.43-16.85-18.17V61.22h-21.64V84a31.3,31.3,0,0,0-7.68-15.49c-5.62-5.95-12.89-8.92-22-8.92-11.23,0-19.66,4.79-25.44,14.37V61.24H1036.8V91.91a39.73,39.73,0,0,0-11.31-20.42c-8.26-7.93-18.84-11.89-31.56-11.89s-23.3,4-31.56,11.89A39.17,39.17,0,0,0,950.87,92a40.36,40.36,0,0,0-11.38-20.49c-8.25-7.93-18.67-11.9-31.36-11.9s-23.32,4-31.57,11.9a39.35,39.35,0,0,0-12.08,24v-3.7q0-14.13-8.43-23.3c-5.61-5.95-12.88-8.92-22-8.92-11.24,0-19.66,4.79-25.45,14.37v-29H787.16V61.19H753V44.93H731.31V58.11h0v3.08H713c9.41-11.68,18.25-21.8,29.33-31.42a3.59,3.59,0,0,0,.64-4.72C739,19.28,733.61,11.1,729.28,4.83a3.56,3.56,0,0,0-5.45-.49c-9.3,9.45-23.3,28.38-43.57,55.37C659,88,644,111.58,632.89,127.51c-3.73,5.36-9.63,13.2-13.53,10.24-1.69-1.46-1.52-5.24-1.42-7.53.85-22.33,6.5-39.66,15.7-57.34,1.5-2.85,1.39-4.54-.81-9.07-4.57-9.46-4.43-10.44-5.47-13.28-1.24-2.4-3-3-4.7-2.2A7.74,7.74,0,0,0,620.4,50c-21.94,23.84-42.81,47.47-64.55,72.37-6.27,6.13-3.46-18.22,6.4-37.23,18.17-35,33.08-47.77,46.79-58.63a1.81,1.81,0,0,0,.46-2.33C606.25,18.39,599.39,6,599.26,5.76c-1-1.9-2.86-.32-3-.16C583.42,16,567.9,31.47,553.62,55.46a143.65,143.65,0,0,0-9,17.92c-.46-5.25-2-10.41-4.37-16.68a33.29,33.29,0,0,0-4.55-8.8,18.24,18.24,0,0,0-7.5-5.77h0c-.66-.29-4.08-1.28-4.24-1.32a29.88,29.88,0,0,0-9.06-.45,38.32,38.32,0,0,0-11.31,2.86c-.44-.65.37-2.33-1.73-3.83a7.24,7.24,0,0,1-.88-.77c-2.19-2.18-3.09-3.7-4.64-5-.86-.71-1.63-.28-3.08.62A108.55,108.55,0,0,0,478.88,46c-10.18,9.74-19.68,22.27-27.53,35.25,0,0,0,0,0-.06.92-3.5.49-6.5,1.32-11.89A91.14,91.14,0,0,0,454,56.9c-.14-2.65-.51-3.36-2.26-5.35-4-4.61-7.78-10.53-11.17-10.27a7.3,7.3,0,0,0-1.35.28,21.77,21.77,0,0,0-2.65,1c-12.3,6.67-25.12,16.29-39.59,30.84a111.15,111.15,0,0,0-9.36,10.21c.62-1.88,2.36-6.5,2.56-7a180.41,180.41,0,0,1,19.39-35.42c.2-.27,1.94-2.78,2.19-3.24.87-1.63.49-2.62-.42-4.69-1.4-3.18-6.51-10.8-8.81-16.47-1.17-2.88-3.42-2.19-4.81-.28C385,34.07,368.94,78.24,362.6,96.43c-.6,1.56-1.7,4.92-3,9.08L349.79,94.8c-1.64-1.72-2.64-1.74-4.29-.15-36.6,35.37-58.27,39.18-63.21,39.58l-1.09,0c-7.77.15-13.95-5.89-12-13.2,3.77-13.86,17.68-30.13,30.55-44,10.34-11.17,23.8-22.54,36.49-25.77a9.49,9.49,0,0,1,10.09,3.26c4.19,5.59,1.81,13.37.08,17.2-.52,1.15.59,1.79,1.86,1.66a39.83,39.83,0,0,0,13.63-3.77c18.57-9.94,9.18-35.81-7.18-41.47-8.61-3-20.31-2.6-28.48,0-19.36,6.16-53.73,38.2-67.74,63.54a50,50,0,0,0-3.67,8.25c-.64-11.35-4.69-20.83-12.45-28.42-8.24-7.92-18.66-11.88-31.34-11.88s-23.3,4-31.55,11.88a39.39,39.39,0,0,0-12.07,24v-3.7q0-14.12-8.42-23.29c-5.61-5.94-12.88-8.91-22-8.91-11.23,0-19.65,4.79-25.43,14.36v-29H90.18V61.18H56V44.93H34.37V58.11h0v3.07H9.3V79H34.37v33.14q0,14.13,8.42,23.29c5.61,5.94,12.88,8.91,22,8.91,11.23,0,19.65-4.78,25.43-14.36v12.82h21.47V94.92c0-11.06,6.93-18.16,17.34-18.16,10.07,0,16.84,7.43,16.84,18.16v47.89h21.63V108.64a38.49,38.49,0,0,0,12.07,23.82c8.25,7.93,18.8,11.89,31.55,11.89a44.72,44.72,0,0,0,27.06-8.61,39.44,39.44,0,0,0,12.75-14.91l-19.09-6.92c-3.14,7.39-11.21,12.94-20.57,12.94-11.24,0-20.14-7.43-22.8-18.16h64.38a48.73,48.73,0,0,0,.56,16.16c1.72,8.8,4.51,18.48,11.58,24.64,8.37,7.26,20.2,7.44,30.36,4.71,5.88-1.57,13.41-4.53,24.9-11.48,8.7-5.26,24-16.49,35.8-25.63-2.82,9.38-5.51,18.8-5.93,21.35a4,4,0,0,0,.29,2.51c.53,1.2,9.13,12.9,19.45,17,4.19,1.68-.65-15.26,15.54-45.29.47-.86,4.17-7.29,5.73-9.73a119.29,119.29,0,0,1,15.65-18.73,140.39,140.39,0,0,1,25.07-19.44c.66-.4,1.1-.66,1.24-.73.93-.45,2.19-.75,3,.14,1.5,1.58-.1,6-.55,8.83a65.83,65.83,0,0,0-1,12.69c.13,6.21,3,13.08,5.5,17.19-1.33,3-2.54,6-3.59,8.93-2.67,7.38-6.55,19.69,4,36.88,2.41,3.92,5.42,8,9.52,10.43,6.39,3.81,13.82,3.34,27.94-3.76C502.32,143.09,524.23,119.79,535,104c-1.68,7.34-2.94,14.34-3.92,20.64-1.25,8,3.47,11.28,9.41,18.91,3.1,4,3,6.06,6.22,8.65,4.27,3.45,9.28-1.91,18.17-10.89,5.26-5.28,33.17-35.7,33.88-36.36,1.27-1.17,1.73-.62,1.7.58-.05,2-1.53,10.09-1.77,16.94-.22,6.5-.37,13.48.57,19.6s2.4,6.78,10.69,13.36c5.15,4.11,5.72,6.45,9.52,8.62,7.8,4.45,15-2,22.76-11.18,11.45-13.59,27.33-37.63,45.85-60.41,6.79-8.35,12.63-15.84,18.13-22.81V79h25.08v33.16q0,14.13,8.43,23.3c5.61,5.95,12.89,8.92,22,8.92,11.24,0,19.66-4.79,25.45-14.37v12.83h21.47V95c0-11.06,6.94-18.17,17.35-18.17,10.08,0,16.85,7.43,16.85,18.17v47.92h21.65V108.68a38.53,38.53,0,0,0,12.08,23.84c8.25,7.93,18.81,11.89,31.57,11.89a44.73,44.73,0,0,0,27.07-8.61A39.5,39.5,0,0,0,948,120.88L928.86,114c-3.14,7.39-11.21,12.94-20.58,12.94-11.25,0-20.15-7.42-22.82-18.16h64.83a38.63,38.63,0,0,0,12.08,23.73c8.26,7.93,18.83,11.9,31.56,11.9s23.3-4,31.56-11.9a38.84,38.84,0,0,0,11.31-20.26v30.67h21.48V95c0-11.06,6.94-18.17,17.35-18.17,10.08,0,16.85,7.43,16.85,18.17h20.9v17.33q0,14.13,8.42,23.3c5.62,5.94,12.89,8.92,22,8.92,11.24,0,19.67-4.79,25.45-14.38V147a20,20,0,0,1-20,20,19.53,19.53,0,0,1-4.74-.57v20a41.32,41.32,0,0,0,4.74.27c14,0,27-6.31,34.5-16.85,4.83-6.78,7-15.66,7-24.62v-84ZM90.18,109c0,11.06-6.93,18.16-17.34,18.16C62.77,127.18,56,119.75,56,109V79H90.18Zm99.07-16.69a23.09,23.09,0,0,1,22-15.2c10.41,0,19.49,6.13,22.8,15.2ZM502,114.88c-12.07,11.26-30.86,28.18-43.3,27.16-7.33-.6-8.89-8.61-6.21-18a76.92,76.92,0,0,1,3.86-10.47,9.22,9.22,0,0,0,7.8-.73c3.4-2.17,15.81-15.75,22-21.45s13.27-12.91,21-19.36c9.1-7.58,19.58-11,21.62-4.36C532.25,79.27,518.34,99.61,502,114.88Zm285.2-5.82c0,11.06-6.94,18.17-17.35,18.17-10.08,0-16.85-7.43-16.85-18.17V79h34.2v30Zm99.13-16.7a23.08,23.08,0,0,1,22-15.21c10.41,0,19.5,6.13,22.81,15.21Zm107.47,33.33c-12.72,0-21.81-9.92-21.81-23.63,0-6.94,2-12.72,6.12-17.18a20.23,20.23,0,0,1,15.69-6.61c6.45,0,11.73,2.15,15.87,6.61s6.11,10.24,6.11,17.18C1015.74,115.77,1006.49,125.69,993.76,125.69Z"/></svg>