<svg id="Layer_1" data-name="Layer 1" xmlns="http://www.w3.org/2000/svg" viewBox="0 0 83.19 83.19"><defs><style>.cls-1{fill:#fff;}</style></defs><title>TCT_Landing Page</title><path class="cls-1" d="M53.65,71.6c-1-.18-2.08-.31-3.1-.53a40.21,40.21,0,0,1-10.9-4.47A57.87,57.87,0,0,1,25.32,55.36a56.68,56.68,0,0,1-12-18.59,24.25,24.25,0,0,1-1.75-8,9.65,9.65,0,0,1,2.62-7.34c1.59-1.62,3.12-3.31,4.83-4.79,2.63-2.29,5.51-2.27,8.05.11,2.69,2.53,5.27,5.17,7.79,7.87a5.34,5.34,0,0,1,0,7.27c-1.33,1.51-2.79,2.89-4.2,4.33-.12.12-.26.23-.5.44A41,41,0,0,0,46.36,52.8l3.36-3.39a8.38,8.38,0,0,1,3-2.24,5.06,5.06,0,0,1,5.52,1q4.23,4,8.23,8.26a5.4,5.4,0,0,1,.15,7.2c-1.72,2-3.6,3.86-5.49,5.69a8.42,8.42,0,0,1-4.89,2.19,1.74,1.74,0,0,0-.39.11ZM15,28.61c.13,1,.2,1.94.41,2.89a37.42,37.42,0,0,0,4.88,11.6A57.5,57.5,0,0,0,44,65.06a27.6,27.6,0,0,0,9.88,3.09,6.5,6.5,0,0,0,5.59-1.94c1.27-1.33,2.57-2.62,3.85-3.94.16-.17.32-.34.47-.52a2.33,2.33,0,0,0-.06-3.33c-1-1.06-2-2.07-3-3.09-1.45-1.46-2.89-2.92-4.36-4.35a2.24,2.24,0,0,0-3.3-.09c-.21.18-.4.37-.59.56-1.35,1.34-2.68,2.69-4,4a2.57,2.57,0,0,1-3.21.54c-.82-.42-1.64-.83-2.43-1.3a42.3,42.3,0,0,1-9.39-7.79,33.64,33.64,0,0,1-6.17-8.78c-.84-1.84-.68-2.66.76-4.06s2.83-2.75,4.19-4.18a2.17,2.17,0,0,0,0-3.17c-.16-.19-.33-.38-.51-.56-2.21-2.21-4.41-4.43-6.63-6.63-1.44-1.45-2.69-1.45-4.15,0-1.26,1.25-2.49,2.54-3.77,3.76A6.84,6.84,0,0,0,15,28.61Z"/><path class="cls-1" d="M71.59,38.53s0,0,0,0c-.37,1-1,1.49-1.74,1.44-1-.06-1.52-.6-1.73-1.75A28.93,28.93,0,0,0,50.5,16.7,59.16,59.16,0,0,0,44.62,15a1.78,1.78,0,0,1-1.5-2.08,1.75,1.75,0,0,1,2.22-1.26,31.85,31.85,0,0,1,13,5.48A32.42,32.42,0,0,1,71.47,37.79a2.91,2.91,0,0,0,.12.39Z"/><path class="cls-1" d="M42.61,24.18a1.69,1.69,0,0,1,2-1.7,19.76,19.76,0,0,1,16,15.85,1.74,1.74,0,0,1-1.28,2.16,1.69,1.69,0,0,1-2-1.38,17.62,17.62,0,0,0-1.74-4.94,16.17,16.17,0,0,0-11.4-8.3A1.69,1.69,0,0,1,42.61,24.18Z"/></svg>