<svg id="Layer_1" data-name="Layer 1" xmlns="http://www.w3.org/2000/svg" viewBox="0 0 83.19 83.19"><defs><style>.cls-1{fill:#fff;}</style></defs><title>TCT_Landing Page</title><path class="cls-1" d="M71.14,36.43a30,30,0,0,0-25.4-24.55l-1.68-.2-.71-.08h-3.5l-1.05.13c-.78.1-1.59.2-2.37.33A30,30,0,0,0,12.13,36,30.06,30.06,0,0,0,34.41,70.73,30.05,30.05,0,0,0,69.83,51.79a28.74,28.74,0,0,0,1.67-7.87,3.07,3.07,0,0,1,.07-.42s0-.11,0-.17v-3.5c0-.34-.09-.71-.14-1.08C71.37,38,71.27,37.2,71.14,36.43ZM39.72,15l.26-.11V27.56l-9.66-.64.09-.24C32.56,21.35,34.61,17.11,39.72,15ZM40,30.75V40H28.19V39.8a47.13,47.13,0,0,1,1.25-9.62l0-.16h.16Zm-19.25-6a26.84,26.84,0,0,1,10.92-8.07l.52-.21-.29.48c-.27.46-.55.92-.83,1.38-.62,1-1.25,2-1.79,3.09s-1,2.15-1.47,3.31l-.65,1.56-.07.14L20.53,25Zm-6,15L15,38.58c.12-.88.24-1.7.4-2.54a25.59,25.59,0,0,1,3-7.83c.15-.26.32-.56.83-.43,1.62.41,3.26.79,4.86,1.17l1.76.41v0l.4.15-.05.16L24.83,40H14.75Zm4.3,15.28a2,2,0,0,1-.35.05.57.57,0,0,1-.53-.35,26.75,26.75,0,0,1-3.33-11v-.58h10l1.31,10.23L24,53.92C22.37,54.29,20.73,54.66,19.08,55.05ZM32,66.49c-2.29,0-9.76-5.5-11.42-8.39l-.13-.22.25-.06L27,56.5l.16,0,.05.15a30.5,30.5,0,0,0,4.92,9.56l.25.31ZM40,68l-.24-.07a9.28,9.28,0,0,1-4-2.46,23.42,23.42,0,0,1-5.27-9.23L30.41,56,40,55.45Zm0-15.75h-.18l-10.34.64,0-.15a45.85,45.85,0,0,1-1.25-9.35v-.2H40ZM51.5,16.71A26.37,26.37,0,0,1,62.61,24.9l.2.24-6.75,1.42L56,26.4A32.15,32.15,0,0,0,51.28,17l-.39-.52ZM43.23,15l.24.07a9.1,9.1,0,0,1,4.09,2.57A22.06,22.06,0,0,1,52,24.73c.18.42.34.85.51,1.31l.26.71.09.24-2.43.15-7.21.43Zm0,15.77h.18l10.36-.65,0,.16A46.36,46.36,0,0,1,55,39.78V40H43.21ZM53.74,52.83l0,.15-10.48-.72v-9h11.7l0,.16A40.72,40.72,0,0,1,53.74,52.83ZM43.46,67.93l-.24.07V55.45l9.61.63-.09.24-.25.69c-.16.43-.31.84-.47,1.23a21.81,21.81,0,0,1-4.44,7.1A9.15,9.15,0,0,1,43.46,67.93Zm19.15-9.64a26.1,26.1,0,0,1-11.26,8.23l-.61.23.39-.52A32.32,32.32,0,0,0,56,56.71l.06-.16,6.78,1.5ZM68.36,43.4a26.53,26.53,0,0,1-3.6,11.77l-.07.12-.14,0-7.5-1.77,0-.17,1.3-10.12h10ZM58.38,40,57.07,29.62l7.62-1.7.07.12a26.68,26.68,0,0,1,3.61,11.73V40Z"/></svg>