<svg id="Layer_1" data-name="Layer 1" xmlns="http://www.w3.org/2000/svg" viewBox="0 0 83.19 83.19"><defs><style>.cls-1{fill:#fff;}</style></defs><title>TCT_Landing Page</title><path class="cls-1" d="M18.1,64.11c.15.59.31,1.19.45,1.8a2.65,2.65,0,0,1-1.87,3.22c-1.07.31-2.15.59-3.23.85A2.7,2.7,0,0,1,10,67.85q-1.5-5.7-3-11.41c-.45-1.73-.9-3.45-1.33-5.18a2.67,2.67,0,0,1,2-3.43c1-.26,2-.51,2.95-.75a2.67,2.67,0,0,1,3.49,2c.06.21.13.41.22.71l2.29-.59c2.62-.68,5.22-1.42,7.86-2a7.45,7.45,0,0,1,6.2,1.23A73.72,73.72,0,0,0,39.65,54a4.1,4.1,0,0,1,1.61,5.58c-.08.17-.17.33-.33.64.57-.12,1-.19,1.45-.31,4.13-1.1,8.26-2.23,12.39-3.31A9,9,0,0,1,59,56.53a4.22,4.22,0,0,1,3.44,4,4.4,4.4,0,0,1-3.13,4.45q-10.55,3.16-21.1,6.3a8.18,8.18,0,0,1-6.7-.87c-3.54-2-7.1-4-10.6-6.14A2.5,2.5,0,0,0,18.1,64.11ZM15,52l2.54,9.78a9.66,9.66,0,0,0,1.32-.35,2.51,2.51,0,0,1,2.39.31C25,64,28.81,66.11,32.61,68.33a6.33,6.33,0,0,0,5.23.62c6.91-2.08,13.83-4.13,20.74-6.2a2.13,2.13,0,0,0,1.55-2.18,1.71,1.71,0,0,0-1.64-1.73,10.44,10.44,0,0,0-3.44.12c-4.1,1-8.17,2.14-12.24,3.26a8.11,8.11,0,0,1-6.37-.76c-2.15-1.2-4.31-2.38-6.47-3.57a3.09,3.09,0,0,1-.6-.39,1,1,0,0,1-.23-1.36,2.4,2.4,0,0,1,1.2-.6c.2,0,.48.18.71.31C33,56.93,34.86,58,36.79,59.09a1.68,1.68,0,0,0,2.44-.62,1.79,1.79,0,0,0-.8-2.48,75.43,75.43,0,0,1-9.19-5.78,4.3,4.3,0,0,0-3.36-.83C22.25,50.18,18.65,51.09,15,52Zm1.38,14.58c-.12-.45-.21-.77-.29-1.1-1.34-5.18-2.7-10.35-4-15.53-.15-.59-.38-.75-1-.57-.81.26-1.63.45-2.46.63-.54.13-.77.32-.59.95.62,2.28,1.19,4.57,1.78,6.86.81,3.1,1.61,6.2,2.42,9.3.09.35.13.76.67.62,1-.25,2-.5,3-.78C16.08,66.89,16.21,66.66,16.33,66.56Z"/><path class="cls-1" d="M68.78,33.35c-2.81.75-5.53,1.5-8.26,2.21a24.22,24.22,0,0,1-2.92.55,7,7,0,0,1-5-1.22,82.36,82.36,0,0,0-9.13-5.75,4.08,4.08,0,0,1-1.62-5.52l.35-.64c-.43.07-.75.09-1.06.17-4.27,1.13-8.52,2.35-12.82,3.37a11.19,11.19,0,0,1-4.08.1,4,4,0,0,1-3.56-4A4.41,4.41,0,0,1,24,18.21c6.94-2.08,13.89-4.13,20.82-6.22a8.51,8.51,0,0,1,7,.89c3.51,2,7.06,4,10.53,6.11a2.64,2.64,0,0,0,2.75.11c-.15-.61-.31-1.23-.46-1.86a2.65,2.65,0,0,1,1.83-3.18c1-.31,2.05-.55,3.08-.82a2.75,2.75,0,0,1,3.67,2.17c1,4,2.06,7.93,3.09,11.9.4,1.56.82,3.12,1.2,4.69a2.64,2.64,0,0,1-1.87,3.28c-1.14.34-2.28.63-3.44.89a2.68,2.68,0,0,1-3.13-1.84C69,34,68.89,33.73,68.78,33.35Zm-3.08-12c-.47.13-.83.19-1.16.32a2.82,2.82,0,0,1-2.66-.32c-3.76-2.23-7.57-4.38-11.35-6.58a6.19,6.19,0,0,0-5.09-.62Q35,17.34,24.55,20.44a2.11,2.11,0,0,0-1.5,2.14,1.68,1.68,0,0,0,1.55,1.73,10.58,10.58,0,0,0,3.51-.09c4.13-1,8.22-2.16,12.32-3.28a8.06,8.06,0,0,1,6.23.72q3.12,1.71,6.22,3.44a6.45,6.45,0,0,1,.87.52A1.06,1.06,0,0,1,54,27.1a1.08,1.08,0,0,1-1.44.47,6.8,6.8,0,0,1-.7-.38c-1.85-1-3.68-2.12-5.55-3.13a1.67,1.67,0,0,0-2.42.69,1.78,1.78,0,0,0,.8,2.42,71.56,71.56,0,0,1,9.07,5.7,4.82,4.82,0,0,0,3.7.91c1.55-.28,3.07-.65,4.59-1,2-.52,4-1.09,6.12-1.65ZM71.57,34c1.24-.33,2.32-.59,3.38-.93.14,0,.28-.47.23-.68-.33-1.41-.7-2.81-1.07-4.2-1-4-2.09-8-3.11-12-.15-.62-.41-.79-1-.6-.81.25-1.63.47-2.45.64-.6.13-.72.39-.56,1C67.76,20,68.5,23,69.26,25.86c.64,2.47,1.28,4.94,1.94,7.41A2.68,2.68,0,0,0,71.57,34Z"/><path class="cls-1" d="M48.81,50.33c-2.58.49-2.58.49-3.28-1.86a1.34,1.34,0,0,0-.45.09,2.61,2.61,0,0,1-2.78-.29c-1.23-.8-2.55-1.47-3.81-2.23A1.08,1.08,0,0,0,37.42,46a8.36,8.36,0,1,1,5-8.77,1.08,1.08,0,0,0,.64.94c3.92,2.24,7.82,4.52,11.74,6.75a2.38,2.38,0,0,1,1.23,1.51c.38,1.37.82,2.72,1.23,4.08a1.17,1.17,0,0,1-1,1.68c-1.5.36-3,.71-4.52,1A2.57,2.57,0,0,1,49,51.38C49,51,48.88,50.68,48.81,50.33Zm6-.19c-.29-.92-.5-1.77-.82-2.57a1.84,1.84,0,0,0-.72-.9Q47.3,43.21,41.32,39.8A1.94,1.94,0,0,1,40.21,38,6.06,6.06,0,1,0,37,43.61a1.81,1.81,0,0,1,2,0c.94.59,2,1.06,2.87,1.69,1.29.9,2.57,1.36,4,.49l.07,0a1.17,1.17,0,0,1,1.58.94c.12.44.21.88.32,1.35l1-.31c1.21-.38,1.72-.09,2,1.13a9.22,9.22,0,0,0,.34,1.47.74.74,0,0,0,.58.42C52.78,50.64,53.74,50.39,54.78,50.14Z"/><path class="cls-1" d="M11.37,51.67a1,1,0,0,1-2.08-.07,1,1,0,1,1,2.08.07Z"/><path class="cls-1" d="M72.85,32.58a1.08,1.08,0,0,1-1-1.09,1.06,1.06,0,0,1,1.06-1,1,1,0,0,1,1,1.08A1,1,0,0,1,72.85,32.58Z"/><path class="cls-1" d="M35.94,37.42a3.3,3.3,0,1,1-3.29-3.34A3.3,3.3,0,0,1,35.94,37.42Zm-2.32,0a1,1,0,0,0-.95-1,1,1,0,1,0,0,2A1,1,0,0,0,33.62,37.4Z"/></svg>