<svg id="Layer_1" data-name="Layer 1" xmlns="http://www.w3.org/2000/svg" viewBox="0 0 115 35"><defs><style>.cls-1{fill:#fff;}</style></defs><title>TCT_Landing Page</title><path class="cls-1" d="M58.65,11.94a6.93,6.93,0,0,0-.92-1.77A3.64,3.64,0,0,0,56.23,9h0c-.13-.06-.82-.26-.85-.26a6,6,0,0,0-1.82-.1,7.8,7.8,0,0,0-2.27.58c-.09-.13.07-.47-.35-.77l-.18-.15c-.44-.44-.62-.75-.93-1s-.33-.06-.62.12a22.45,22.45,0,0,0-2.88,2.36A37.31,37.31,0,0,0,37.79,23a7.73,7.73,0,0,0,.81,7.41,6,6,0,0,0,1.91,2.1c1.28.76,2.77.67,5.61-.76,6.27-3.15,11.73-9.93,12.74-12.55C60,16.26,59.63,14.6,58.65,11.94ZM51,23.63c-2.43,2.26-6.2,5.66-8.7,5.45C40.78,29,40.47,27.35,41,25.47a14.73,14.73,0,0,1,.78-2.11,1.85,1.85,0,0,0,1.56-.14c.69-.44,3.18-3.17,4.41-4.31S50.43,16.31,52,15c1.83-1.52,3.94-2.21,4.35-.88C57,16.47,54.25,20.56,51,23.63Z"/><path class="cls-1" d="M99.36,5.58a.72.72,0,0,1-.13,1c-4,3.46-6.51,7.2-10.88,12.59-3.73,4.57-6.92,9.4-9.21,12.13-1.56,1.85-3,3.14-4.58,2.25-.76-.44-.87-.91-1.91-1.73-1.66-1.33-2-1.43-2.15-2.69a23.35,23.35,0,0,1-.11-3.94c0-1.37.34-3,.36-3.4,0-.24-.09-.35-.35-.11s-5.75,6.24-6.8,7.3c-1.79,1.8-2.79,2.88-3.65,2.19-.65-.52-.63-.94-1.25-1.74-1.19-1.53-2.14-2.19-1.89-3.8a38.34,38.34,0,0,1,4.52-13.89,37.3,37.3,0,0,1,8.56-10s.4-.34.61,0c0,.05,1.4,2.54,2.06,3.69a.37.37,0,0,1-.09.47c-2.76,2.18-5.75,4.74-9.4,11.77-2,3.82-2.55,8.71-1.29,7.48,4.37-5,8.56-9.75,13-14.54a1.4,1.4,0,0,1,.45-.32c.35-.16.7,0,.94.44a15.77,15.77,0,0,0,1.1,2.67c.45.91.47,1.25.17,1.82a25.78,25.78,0,0,0-3.16,11.52c0,.46,0,1.22.29,1.51.78.59,2-1,2.72-2.06,2.23-3.2,5.24-7.93,9.51-13.62,4.07-5.42,6.88-9.22,8.75-11.12a.72.72,0,0,1,1.1.1C97.49,2.78,98.57,4.42,99.36,5.58Z"/><path class="cls-1" d="M22.77,22.2l-2.38-2.61c-.33-.34-.53-.35-.86,0-7.35,7.11-11.71,7.87-12.7,8H6.61a2.19,2.19,0,0,1-2.4-2.65C5,22.09,7.76,18.82,10.35,16c2.07-2.24,4.78-4.52,7.33-5.17a1.89,1.89,0,0,1,2,.65c.85,1.12.37,2.69,0,3.46-.11.23.12.36.37.33a8.09,8.09,0,0,0,2.74-.76c3.73-2,1.84-7.19-1.44-8.33a10,10,0,0,0-5.72,0C11.78,7.44,4.87,13.88,2.06,19a9.52,9.52,0,0,0-1,6.66,8.58,8.58,0,0,0,2.33,4.95c1.68,1.46,4.06,1.49,6.1,1a19.61,19.61,0,0,0,5-2.31c2.07-1.26,6-4.21,8.45-6.13C23.17,22.88,23.18,22.63,22.77,22.2Z"/><path class="cls-1" d="M41.32,12a1.38,1.38,0,0,0-.46-1.08c-.81-.92-1.56-2.11-2.24-2.06a1.17,1.17,0,0,0-.27.06,4.36,4.36,0,0,0-.53.2,34.38,34.38,0,0,0-7.95,6.2A22.44,22.44,0,0,0,28,17.35c.13-.38.48-1.3.52-1.41a36.23,36.23,0,0,1,3.89-7.11c0-.05.39-.56.44-.65.18-.33.1-.53-.08-.94C32.47,6.6,31.44,5.07,31,3.93c-.24-.58-.69-.44-1-.06-2.54,3.52-5.77,12.4-7,16.05-.45,1.19-2.35,7.44-2.51,8.44a.74.74,0,0,0,.06.5,9.9,9.9,0,0,0,3.9,3.42c.85.34-.13-3.06,3.12-9.1.1-.17.84-1.46,1.16-1.95a23.51,23.51,0,0,1,3.14-3.76,28.38,28.38,0,0,1,5-3.91l.25-.14a.53.53,0,0,1,.61,0c.31.32,0,1.2-.11,1.78a13.6,13.6,0,0,0-.2,2.55,7.49,7.49,0,0,0,1.15,3.53c.48.07,2.12-3.85,2.23-4.44s.1-1.3.27-2.39A18.65,18.65,0,0,0,41.32,12Z"/><path class="cls-1" d="M96.14,9.17C90,15.16,98,17.6,101.61,21c3.83,3.65,1.41,5.8-1.53,6.46s-7.1-.32-7-3.22a4.34,4.34,0,0,1,1.35-2.41c.32-.32.55-.45.56-.54.1-.55-3.82-2.55-4.26-2.12a9.4,9.4,0,0,0-2.07,6.67,6.39,6.39,0,0,0,4.66,5.31c11.77,3.42,18.87-5.85,13.21-11.33-3.32-3.22-10.08-6.35-5.09-9.58,4.51-2.91,7.89,2,7.6,3.88-.15,1,5.2-1.49,5.1-2.4C113.43,5.06,101.8,3.64,96.14,9.17Z"/></svg>